<?xml version="1.0" encoding="utf-8"?>
<!-- Generator: Adobe Illustrator 19.0.0, SVG Export Plug-In . SVG Version: 6.00 Build 0)  -->
<svg version="1.1" id="Layer_1" xmlns="http://www.w3.org/2000/svg" xmlns:xlink="http://www.w3.org/1999/xlink" x="0px" y="0px"
	 viewBox="0 0 15 15" style="enable-background:new 0 0 15 15;" xml:space="preserve">
<style type="text/css">
	.st0{fill:#FFFFFF;stroke:#666766;stroke-width:2;stroke-linecap:round;stroke-linejoin:round;stroke-miterlimit:10;}
	.st1{fill:#FFFFFF;}
	.st2{fill:#666766;}
</style>
<line id="XMLID_2_" class="st0" x1="1" y1="14" x2="6.7" y2="8.6"/>
<g id="XMLID_1_">
	<path id="XMLID_122_" class="st1" d="M9.1,10.7c-2.7,0-4.8-2.2-4.8-4.8c0-2.7,2.2-4.8,4.8-4.8s4.8,2.2,4.8,4.8
		C13.9,8.5,11.8,10.7,9.1,10.7z"/>
	<path id="XMLID_119_" class="st2" d="M9.1,2.1c2.1,0,3.8,1.7,3.8,3.8s-1.7,3.8-3.8,3.8S5.3,8,5.3,5.9S7,2.1,9.1,2.1 M9.1,0.1
		c-3.2,0-5.8,2.6-5.8,5.8s2.6,5.8,5.8,5.8s5.8-2.6,5.8-5.8S12.3,0.1,9.1,0.1L9.1,0.1z"/>
</g>
</svg>
