<?xml version="1.0" encoding="utf-8"?>
<!-- Generator: Adobe Illustrator 19.1.0, SVG Export Plug-In . SVG Version: 6.00 Build 0)  -->
<svg version="1.1" id="Layer_1" xmlns="http://www.w3.org/2000/svg" xmlns:xlink="http://www.w3.org/1999/xlink" x="0px" y="0px"
	 viewBox="0 0 126 55" style="enable-background:new 0 0 126 55;" xml:space="preserve">
<style type="text/css">
	.st0{fill:#FFFFFF;stroke:#000000;stroke-linecap:round;stroke-linejoin:round;stroke-miterlimit:10;}
	.st1{fill:none;stroke:#000000;stroke-linecap:round;stroke-linejoin:round;stroke-miterlimit:10;}
</style>
<g>
	<path id="XMLID_709_" class="st0" d="M120.1,54.2H54.2c-2.9,0-5.3-2.4-5.3-5.3V6.1c0-2.9,2.4-5.3,5.3-5.3l65.9,0
		c2.9,0,5.3,2.4,5.3,5.3v42.8C125.4,51.8,123,54.2,120.1,54.2z"/>
	<path id="XMLID_717_" class="st1" d="M124.1,2.7L90.1,29c-2.2,1.7-5.3,1.7-7.4-0.1L50.8,2.3"/>
	<line id="XMLID_720_" class="st0" x1="71.6" y1="19.9" x2="49.3" y2="47.9"/>
	<line id="XMLID_721_" class="st0" x1="101.9" y1="20.1" x2="125.4" y2="48.3"/>
	<line id="XMLID_722_" class="st0" x1="1.7" y1="10.5" x2="42.8" y2="10.5"/>
	<line id="XMLID_726_" class="st0" x1="0.6" y1="25.1" x2="24.5" y2="25.1"/>
	<line id="XMLID_727_" class="st0" x1="19.7" y1="20.5" x2="48.4" y2="20.5"/>
	<line id="XMLID_723_" class="st0" x1="25.2" y1="15.9" x2="38.4" y2="15.9"/>
	<line id="XMLID_724_" class="st0" x1="14.5" y1="16.2" x2="22.1" y2="16.2"/>
	<line id="XMLID_730_" class="st0" x1="24.3" y1="29.4" x2="37.6" y2="29.4"/>
	<line id="XMLID_725_" class="st0" x1="14.7" y1="20.5" x2="11.9" y2="20.5"/>
	<line id="XMLID_942_" class="st0" x1="12.3" y1="34.7" x2="42.8" y2="34.7"/>
	<line id="XMLID_940_" class="st0" x1="29.1" y1="44.7" x2="48.4" y2="44.7"/>
	<line id="XMLID_939_" class="st0" x1="25.2" y1="40.1" x2="38.4" y2="40.1"/>
	<line id="XMLID_938_" class="st0" x1="10.4" y1="40.3" x2="22.1" y2="40.3"/>
	<line id="XMLID_935_" class="st0" x1="23.6" y1="44.7" x2="18.6" y2="44.7"/>
</g>
</svg>
