<?xml version="1.0" encoding="utf-8"?>
<!-- Generator: Adobe Illustrator 19.1.0, SVG Export Plug-In . SVG Version: 6.00 Build 0)  -->
<svg version="1.1" id="Layer_1" xmlns="http://www.w3.org/2000/svg" xmlns:xlink="http://www.w3.org/1999/xlink" x="0px" y="0px"
	 viewBox="0 0 99 45" style="enable-background:new 0 0 99 45;" xml:space="preserve">
<style type="text/css">
	.st0{fill:none;stroke:#222222;stroke-width:0.75;stroke-linecap:round;stroke-linejoin:round;stroke-miterlimit:10;}
	.st1{fill:#FFFFFF;stroke:#222222;stroke-width:0.5;stroke-linecap:round;stroke-linejoin:round;stroke-miterlimit:10;}
	.st2{fill:none;stroke:#222222;stroke-width:0.5;stroke-linecap:round;stroke-linejoin:round;stroke-miterlimit:10;}
</style>
<g>
	<g>
		<polyline id="XMLID_1077_" class="st0" points="14.6,28.3 14.7,31.7 21.6,35.4 29.1,31.9 29.1,28.3 		"/>
		<polygon id="XMLID_1076_" class="st0" points="19.1,26.3 16.4,21.6 19.1,16.8 24.6,16.8 27.3,21.6 24.6,26.3 		"/>
	</g>
	<path id="XMLID_1078_" class="st0" d="M34.6,43.8l-25.8,0c-0.4,0-0.7-0.3-0.7-0.7V9.5c0-0.4,0.3-0.7,0.7-0.7h25.8
		c0.4,0,0.7,0.3,0.7,0.7v33.6C35.3,43.5,35,43.8,34.6,43.8z"/>
	<circle id="XMLID_1070_" class="st1" cx="8.7" cy="9.2" r="8"/>
	<rect id="XMLID_1075_" x="5.2" y="6.9" class="st1" width="7" height="4.4"/>
	<polyline id="XMLID_1068_" class="st2" points="5.4,7.2 8.6,9.6 12,7.2 	"/>
	<g>
		<polyline id="XMLID_1084_" class="st0" points="46,28.3 46.1,31.7 53,35.4 60.5,31.9 60.5,28.3 		"/>
		<polygon id="XMLID_1083_" class="st0" points="50.5,26.3 47.8,21.6 50.5,16.8 56,16.8 58.7,21.6 56,26.3 		"/>
	</g>
	<path id="XMLID_1082_" class="st0" d="M66,43.8l-25.8,0c-0.4,0-0.7-0.3-0.7-0.7V9.5c0-0.4,0.3-0.7,0.7-0.7H66
		c0.4,0,0.7,0.3,0.7,0.7v33.6C66.7,43.5,66.4,43.8,66,43.8z"/>
	<circle id="XMLID_1081_" class="st1" cx="40.1" cy="9.2" r="8"/>
	<rect id="XMLID_1080_" x="36.6" y="6.9" class="st1" width="7" height="4.4"/>
	<polyline id="XMLID_1079_" class="st2" points="36.8,7.2 40,9.6 43.4,7.2 	"/>
	<g>
		<polyline id="XMLID_1090_" class="st0" points="77.5,28.3 77.6,31.7 84.5,35.4 92.1,31.9 92.1,28.3 		"/>
		<polygon id="XMLID_1089_" class="st0" points="82,26.3 79.3,21.6 82,16.8 87.5,16.8 90.3,21.6 87.5,26.3 		"/>
	</g>
	<path id="XMLID_1088_" class="st0" d="M97.5,43.8l-25.8,0c-0.4,0-0.7-0.3-0.7-0.7V9.5c0-0.4,0.3-0.7,0.7-0.7h25.8
		c0.4,0,0.7,0.3,0.7,0.7v33.6C98.3,43.5,97.9,43.8,97.5,43.8z"/>
	<circle id="XMLID_1087_" class="st1" cx="71.6" cy="9.2" r="8"/>
	<rect id="XMLID_1086_" x="68.1" y="6.9" class="st1" width="7" height="4.4"/>
	<polyline id="XMLID_1085_" class="st2" points="68.3,7.2 71.5,9.6 74.9,7.2 	"/>
</g>
</svg>
