<?xml version="1.0" encoding="utf-8"?>
<!-- Generator: Adobe Illustrator 19.0.0, SVG Export Plug-In . SVG Version: 6.00 Build 0)  -->
<svg version="1.1" id="Layer_1" xmlns="http://www.w3.org/2000/svg" xmlns:xlink="http://www.w3.org/1999/xlink" x="0px" y="0px"
	 viewBox="0 0 95 105" style="enable-background:new 0 0 95 105;" xml:space="preserve">
<style type="text/css">
	.st0{fill:none;stroke:#222222;stroke-linecap:round;stroke-linejoin:round;stroke-miterlimit:10;}
	.st1{fill:none;stroke:#000000;stroke-linecap:round;stroke-linejoin:round;stroke-miterlimit:10;}
	.st2{fill:#FFFFFF;stroke:#222222;stroke-linecap:round;stroke-linejoin:round;stroke-miterlimit:10;}
</style>
<g id="Ball">
	<circle id="XMLID_1025_" class="st0" cx="47.7" cy="42.1" r="41.4"/>
	<path id="XMLID_1024_" class="st0" d="M16.9,79.6c17,16.7,44.1,16.7,61.1,0c0.1-0.1,0.4-0.1,0.5,0.1l10.1,18.6
		c1.5,2.8-0.5,6.2-3.7,6.2H6.8c-3.4,0-5.4-3.9-3.4-6.6l13.1-18.3C16.5,79.5,16.7,79.5,16.9,79.6z"/>
	<path id="XMLID_1023_" class="st0" d="M49.3,74.2c17.1,0,30.9-13.8,30.9-30.9"/>
	<polyline id="XMLID_1022_" class="st1" points="21.1,53.7 35.9,39.4 51.1,39.4 63.8,28.1 	"/>
</g>
<circle id="dot1" class="st2" cx="66.1" cy="25.6" r="3.2"/>
<circle id="dot2_1_" class="st2" cx="34.6" cy="40.1" r="2.7"/>
<circle id="dot3" class="st2" cx="52" cy="38.9" r="2.7"/>
<circle id="dot4" class="st2" cx="21.2" cy="54.3" r="1.6"/>
</svg>
