<?xml version="1.0" encoding="utf-8"?>
<!-- Generator: Adobe Illustrator 19.1.0, SVG Export Plug-In . SVG Version: 6.00 Build 0)  -->
<svg version="1.1" id="Layer_1" xmlns="http://www.w3.org/2000/svg" xmlns:xlink="http://www.w3.org/1999/xlink" x="0px" y="0px"
	 viewBox="0 0 80 64" style="enable-background:new 0 0 80 64;" xml:space="preserve">
<style type="text/css">
	.st0{fill:#FFFFFF;stroke:#222222;stroke-miterlimit:10;}
	.st1{fill:#FFFFFF;stroke:#222222;stroke-linecap:round;stroke-linejoin:round;stroke-miterlimit:10;}
	.st2{fill:none;stroke:#222222;stroke-linecap:round;stroke-linejoin:round;stroke-miterlimit:10;}
	.st3{fill:none;stroke:#222222;stroke-width:0.75;stroke-linecap:round;stroke-linejoin:round;stroke-miterlimit:10;}
	.st4{fill:none;stroke:#222222;stroke-width:0.5;stroke-linecap:round;stroke-linejoin:round;stroke-miterlimit:10;}
	.st5{fill:#010101;}
</style>
<g>
	<circle id="XMLID_1021_" class="st0" cx="10.7" cy="13" r="9.8"/>
	<circle id="XMLID_1018_" class="st0" cx="28.5" cy="57.6" r="5.8"/>
	<circle id="XMLID_1017_" class="st0" cx="70.3" cy="57.1" r="4"/>
	<line id="XMLID_1016_" class="st0" x1="50.8" y1="29.6" x2="70.1" y2="10.3"/>
	<line id="XMLID_1015_" class="st0" x1="41.9" y1="31.4" x2="18.6" y2="18.3"/>
	<line id="XMLID_1014_" class="st0" x1="41.4" y1="40.4" x2="32.2" y2="52.7"/>
	<line id="XMLID_1013_" class="st0" x1="50.5" y1="38.2" x2="67.4" y2="54.4"/>
	<circle class="st1" cx="44" cy="32.9" r="17"/>
	<g>
		<polyline id="XMLID_1009_" class="st2" points="6.9,14.2 6.9,15.9 10.6,17.9 14.5,16.1 14.5,14.2 		"/>
		<polygon id="XMLID_1008_" class="st2" points="9.2,13.2 7.8,10.7 9.2,8.2 12.1,8.2 13.5,10.7 12.1,13.2 		"/>
	</g>
	<circle id="XMLID_1019_" class="st0" cx="73.3" cy="6.4" r="5.8"/>
	<g>
		<polyline id="XMLID_1011_" class="st3" points="71,7.3 71,8.3 73.2,9.5 75.6,8.4 75.6,7.2 		"/>
		<polygon id="XMLID_1010_" class="st3" points="72.4,6.6 71.6,5.1 72.4,3.6 74.2,3.6 75,5.1 74.2,6.6 		"/>
	</g>
	<g>
		<polyline id="XMLID_1020_" class="st4" points="69.2,57.6 69.2,58.1 70.4,58.8 71.7,58.2 71.7,57.5 		"/>
		<polygon id="XMLID_1012_" class="st4" points="69.9,57.2 69.5,56.4 69.9,55.6 70.9,55.6 71.4,56.4 70.9,57.2 		"/>
	</g>
	<g>
		<polyline id="XMLID_1023_" class="st3" points="26.4,58.3 26.4,59.3 28.5,60.4 30.7,59.4 30.7,58.3 		"/>
		<polygon id="XMLID_1022_" class="st3" points="27.7,57.7 26.9,56.3 27.7,54.9 29.4,54.9 30.2,56.3 29.4,57.7 		"/>
	</g>
	<g>
		<path class="st5" d="M48,24.8l-2.1,0c-2.3,0-3.9,1.6-3.9,4v1.8h-2.1c-0.2,0-0.3,0.1-0.3,0.3v2.7c0,0.2,0.1,0.3,0.3,0.3H42v6.7
			c0,0.2,0.1,0.3,0.3,0.3h2.7c0.2,0,0.3-0.1,0.3-0.3v-6.7h2.5c0.2,0,0.3-0.1,0.3-0.3l0-2.7c0-0.1,0-0.2-0.1-0.2
			c-0.1-0.1-0.1-0.1-0.2-0.1h-2.5v-1.6c0-0.7,0.2-1.1,1.1-1.1l1.4,0c0.2,0,0.3-0.1,0.3-0.3v-2.5C48.3,25,48.2,24.8,48,24.8z"/>
	</g>
</g>
</svg>
