<?xml version="1.0" encoding="utf-8"?>
<!-- Generator: Adobe Illustrator 19.2.0, SVG Export Plug-In . SVG Version: 6.00 Build 0)  -->
<svg version="1.1" id="Layer_1" xmlns="http://www.w3.org/2000/svg" xmlns:xlink="http://www.w3.org/1999/xlink" x="0px" y="0px"
	 viewBox="0 0 63.6 64.6" style="enable-background:new 0 0 63.6 64.6;" xml:space="preserve">
<style type="text/css">
	.st0{fill:none;stroke:#222222;stroke-width:0.75;stroke-linecap:round;stroke-linejoin:round;stroke-miterlimit:10;}
	.st1{fill:#FFFFFF;}
	.st2{fill:#222222;}
	.st3{fill:none;stroke:#010101;stroke-miterlimit:10;}
</style>
<g>
	<polyline id="XMLID_1110_" class="st0" points="15.5,27.7 15.6,32 24.3,36.5 33.7,32.2 33.7,27.7 	"/>
	<polygon id="XMLID_1109_" class="st0" points="21.2,25.3 17.6,19.3 21.2,13.2 28,13.2 31.4,19.3 28,25.3 	"/>
</g>
<path id="XMLID_1108_" class="st0" d="M47.3,64.2H1.9c-0.7,0-1.2-0.5-1.2-1.2V1.6c0-0.7,0.5-1.2,1.2-1.2h45.4c0.7,0,1.2,0.5,1.2,1.2
	V63C48.6,63.7,48,64.2,47.3,64.2z"/>
<g>
	<path class="st1" d="M52,24.8c-6.2,0-11.2-5-11.2-11.2S45.8,2.4,52,2.4s11.2,5,11.2,11.2S58.2,24.8,52,24.8z"/>
	<g>
		<path class="st2" d="M52,2.8c6,0,10.8,4.8,10.8,10.8c0,6-4.8,10.8-10.8,10.8c-6,0-10.8-4.8-10.8-10.8C41.2,7.6,46,2.8,52,2.8
			 M52,2.1c-6.4,0-11.5,5.2-11.5,11.5S45.6,25.1,52,25.1S63.5,20,63.5,13.6S58.4,2.1,52,2.1L52,2.1z"/>
	</g>
</g>
<path class="st3" d="M58.4,11"/>
<path class="st3" d="M58.9,13.6"/>
<path class="st0" d="M59.1,13.6c0,3.9-3.1,7-7,7s-7-3.1-7-7c0-3.9,3.1-7,7-7c2.4,0,4.6,1.2,5.8,3.1"/>
<polyline class="st0" points="55.3,9.8 57.9,9.7 58.3,6.9 "/>
<path class="st0" d="M40.9,58.5l-32.5,0c-2,0-3.7-1.7-3.7-3.7V53c0-2,1.7-3.7,3.7-3.7l32.5,0c2,0,3.7,1.7,3.7,3.7v1.8
	C44.6,56.8,43,58.5,40.9,58.5z"/>
<circle class="st0" cx="9.2" cy="53.8" r="1.7"/>
<line class="st0" x1="10.4" y1="55" x2="11.4" y2="56"/>
</svg>
