<?xml version="1.0" encoding="utf-8"?>
<!-- Generator: Adobe Illustrator 19.1.0, SVG Export Plug-In . SVG Version: 6.00 Build 0)  -->
<svg version="1.1" id="Layer_1" xmlns="http://www.w3.org/2000/svg" xmlns:xlink="http://www.w3.org/1999/xlink" x="0px" y="0px"
	 viewBox="0 0 276 92" style="enable-background:new 0 0 276 92;" xml:space="preserve">
<style type="text/css">
	path{fill:#1a1f24;}
</style>
<g>
	<path d="M18.7,60c-0.2-0.5,0.1-0.7,0.5-0.8c1.2-0.2,2.4-0.4,3.5-0.8c3.9-1.5,5.8-4.5,6.2-8.6c0.4-4.2-1.4-7.3-4.7-9.6
		c-2.2-1.5-4.5-2.9-6.8-4.2c-2.8-1.6-5.7-3-8.3-4.9c-2.2-1.6-4.2-3.4-5.7-5.7c-3.8-5.8-2.7-13.5,2.5-18C9,4.5,12.8,3.1,17,2.6
		c0.2,0,0.4,0,0.6,0c0.1,0.4,0.1,0.7-0.4,0.7c-0.3,0-0.6,0.1-0.9,0.2c-3.6,0.8-5.7,3.1-6.2,6.8c-0.6,4.3,1,7.6,4.3,10.1
		c2.5,1.9,5.3,3.3,8,4.9c2.8,1.6,5.6,3.2,8.3,5c2.4,1.6,4.3,3.6,5.6,6.2c3.9,7.8,0.8,17-7,20.9c-3.3,1.6-6.8,2.4-10.5,2.7
		C19,60,18.8,60,18.7,60z"/>
	<path d="M266.8,59.6c-0.9,0-1.8,0-2.7,0c-0.2,0-0.5-0.3-0.7-0.5c-2-2.5-4.1-5-6.1-7.5c-3.8-4.7-7.6-9.4-11.4-14.1
		c-4.2-5.2-8.4-10.5-12.6-15.7c-0.9-1.1-1.9-2.2-2.9-3.2c-1.7-1.6-3.7-2.6-6-3.1c-0.6-0.1-0.6-0.1-0.6-0.7c0.2,0,0.4-0.1,0.6-0.1
		c5.4,0,10.7,0,16.1,0c0.5,0,0.8,0.2,1.1,0.5c7.7,9.8,15.5,19.5,23.3,29.3c0.5,0.7,1.1,1.3,1.6,2c0.2,0.2,0.3,0.5,0.3,0.8
		c0,3.9,0,7.8,0,11.8C266.9,59.3,266.8,59.4,266.8,59.6z"/>
	<path d="M44.2,14.8c0.3,0,0.7,0,1,0c6.8,0,13.6,0,20.5,0c0.1,0,0.2,0,0.3,0c0.2,0.1,0.3,0.2,0.5,0.3c-0.2,0.1-0.3,0.3-0.5,0.4
		c-0.6,0.2-1.3,0.3-1.9,0.6c-1.1,0.5-1.7,1.4-1.7,2.5c0,1,0.1,2,0.4,3c0.9,3.2,1.9,6.3,2.8,9.5c1.6,5.4,3.3,10.8,4.9,16.2
		c0.1,0.3,0.1,0.7,0,1c-1.4,3.6-2.8,7.3-4.2,10.9c-0.1,0.2-0.2,0.3-0.2,0.5c-0.1,0-0.1,0.1-0.2,0.1c-1.5,0.1-1.5,0.1-2-1.3
		C60.2,47.2,56.4,36,52.5,24.8c-0.6-1.8-1.4-3.5-2.2-5.1c-1.2-2.2-3-3.7-5.6-4.1C44.4,15.5,44,15.4,44.2,14.8z"/>
	<path d="M81.1,14.8c3.3,0,6.6,0,9.9,0c0.1,0,0.3,0,0.4,0c0.2,0.1,0.5,0.1,0.6,0.3c0.1,0.4-0.2,0.4-0.5,0.4c-0.3,0.1-0.7,0.1-1,0.2
		c-2.1,0.6-3.2,2.1-2.8,4.2c0.3,1.9,0.8,3.7,1.3,5.5c2.2,7.3,4.4,14.5,6.6,21.8c0.1,0.4,0.1,0.8,0,1.2c-1.3,3.6-2.7,7.2-4.1,10.8
		c-0.3,0.8-0.8,0.5-1.3,0.6c-0.5,0.1-0.8-0.2-0.9-0.7c-1.3-3.8-2.5-7.5-3.8-11.3c-2.7-8.1-5.4-16.1-8.1-24.2
		c-0.6-1.8-1.3-3.6-2.3-5.2c-1-1.6-2.4-2.6-4.3-2.9c-0.1,0-0.2,0-0.3-0.1c-0.1-0.1-0.3-0.2-0.3-0.4c0-0.1,0.2-0.3,0.4-0.3
		c0.2-0.1,0.4,0,0.6,0C74.3,14.8,77.7,14.8,81.1,14.8z"/>
	<path d="M194.3,14.4c0.2,0.6-0.3,0.6-0.5,0.7c-1.3,0.3-2.6,0.8-3.8,1.6c-2.4,1.6-4,3.8-5.1,6.5c-0.9,2.4-1.4,4.8-1.7,7.3
		c-0.5,5.1-0.4,10.2,0.5,15.3c0.5,2.7,1.4,5.3,2.9,7.6c2.1,3.3,5,5.4,9,5.9c0.1,0,0.1,0,0.2,0c0.3,0,0.6,0.1,0.5,0.4
		c0,0.1-0.4,0.3-0.6,0.3c-1.1-0.1-2.1-0.1-3.2-0.3c-4.6-0.6-8.8-2.2-12.4-5.1c-4.1-3.4-6.5-7.7-7.5-12.9c-0.9-4.9-0.5-9.8,1.7-14.3
		c1.9-3.9,4.8-7,8.5-9.2c3.4-2.1,7.1-3.3,11.1-3.7C194,14.4,194.2,14.4,194.3,14.4z"/>
	<path d="M115.5,37.2c0.2-9.3,4.5-15.9,12.6-20.1c2.8-1.4,5.8-2.3,8.9-2.6c0.2,0,0.3-0.1,0.5,0c0.1,0,0.3,0.1,0.3,0.2
		c0,0.1-0.1,0.3-0.2,0.3c-0.1,0.1-0.3,0.1-0.5,0.2c-4.5,1.1-7.2,4.1-8.9,8.2c-1,2.5-1.4,5-1.7,7.7c-0.4,4.6-0.4,9.2,0.4,13.8
		c0.6,3.4,1.5,6.6,3.5,9.4c2.1,2.9,4.8,4.6,8.3,5.2c0.1,0,0.3,0,0.4,0.1c0.3,0,0.5,0.1,0.4,0.4c0,0.1-0.3,0.3-0.5,0.2
		c-4.9-0.2-9.5-1.3-13.6-4c-5.7-3.7-8.8-9-9.7-15.6C115.6,39.4,115.6,38.2,115.5,37.2z"/>
	<path d="M142.6,60c-0.2-0.5,0-0.6,0.3-0.7c0.6-0.1,1.2-0.3,1.8-0.5c3-1.1,5.1-3.3,6.5-6.1c1.2-2.4,1.9-5,2.2-7.7
		c0.7-5.7,0.6-11.5-0.5-17.1c-0.6-3.1-1.7-6-3.7-8.5c-2-2.5-4.6-4-7.8-4.4c-0.1,0-0.2,0-0.3,0c-0.3,0-0.6,0-0.5-0.4
		c0-0.1,0.4-0.2,0.6-0.2c5,0.2,9.8,1.4,14,4.3c5.4,3.6,8.4,8.8,9.3,15.1c0.5,3.4,0.3,6.7-0.6,10c-1.5,5-4.5,8.9-8.8,11.9
		c-3.5,2.4-7.4,3.8-11.6,4.3C143.2,59.9,142.9,59.9,142.6,60z"/>
	<path d="M199.2,59.9c-0.3-0.6,0.2-0.6,0.5-0.7c1.9-0.4,3.5-1.2,5-2.4c2-1.7,3.3-3.9,4.1-6.4c0.9-2.8,1.4-5.6,1.5-8.5
		c0.3-4.8,0.2-9.6-0.9-14.4c-0.5-2.2-1.2-4.3-2.4-6.3c-2.1-3.5-5.1-5.7-9.2-6.3c-0.3,0-0.8,0-0.7-0.6c0.2,0,0.3-0.1,0.5-0.1
		c5.7,0.3,11,1.7,15.5,5.3c3.3,2.6,5.6,5.9,6.9,9.8c1.5,4.6,1.7,9.3,0.4,14.1c-1.6,5.5-5,9.6-9.7,12.6c-3.3,2.1-7,3.4-10.9,3.8
		C199.7,59.9,199.5,59.9,199.2,59.9z"/>
	<path d="M0,40.5c0.6-0.3,0.8,0.1,0.9,0.5c0.6,1.8,1.1,3.7,1.8,5.5c1.5,3.6,3.6,6.9,6.4,9.7c1.5,1.4,3.2,2.6,5.2,3.2
		c0.5,0.1,0.7,0.3,0.4,0.9c-0.7-0.1-1.4-0.1-2-0.2c-3.7-0.4-7.3-1.1-10.9-2.3c-0.9-0.3-0.9-0.3-1-1.3C0.6,51.3,0.3,46.2,0,41.2
		C0,40.9,0,40.7,0,40.5z"/>
	<path d="M233.8,46.1c0.2,0,0.4,0,0.7,0c0,0.2,0.1,0.3,0.1,0.4c0.1,1.9,0.6,3.8,1.2,5.6c1.2,3.8,3.9,5.9,7.7,6.6
		c0.3,0.1,0.9-0.1,0.8,0.5c-0.1,0.5-0.6,0.3-0.9,0.3c-6,0-12,0-18,0c-0.3,0-0.8,0.2-0.8-0.3c0-0.5,0.4-0.4,0.7-0.4
		c3.8-0.7,6.2-3,7.3-6.7c0.5-1.8,1-3.7,1.1-5.6C233.8,46.3,233.8,46.2,233.8,46.1z"/>
	<path d="M266.8,28c-0.3,0-0.6,0-0.8,0c-0.2-1.2-0.3-2.3-0.5-3.5c-0.2-1.2-0.6-2.3-1-3.4c-0.9-2.4-2.7-4-5.1-4.9
		c-0.9-0.3-1.9-0.5-2.8-0.7c-0.4-0.1-0.6-0.2-0.4-0.7c0.2,0,0.5,0,0.8,0c6.1,0,12.1,0,18.2,0c0.1,0,0.2,0,0.2,0
		c0.2,0.1,0.5,0.2,0.6,0.3c0.1,0.4-0.3,0.4-0.5,0.4c-1.1,0.3-2.3,0.5-3.3,1c-2,0.9-3.2,2.5-3.9,4.5c-0.7,1.9-1.1,3.9-1.3,6
		C266.9,27.4,266.9,27.7,266.8,28z"/>
	<path d="M35.1,18.1c-0.6,0.3-0.8,0-0.9-0.5c-0.7-2.4-1.6-4.7-2.8-6.9c-1.5-2.6-3.4-4.9-6.2-6.3c-1.2-0.6-2.4-0.9-3.7-1.4
		c0-0.1,0-0.3,0-0.6c0.2,0,0.3-0.1,0.4,0c2.9,0.4,5.8,0.8,8.7,1.2c1,0.1,1.9,0.5,2.9,0.7c0.6,0.1,0.8,0.4,0.9,1
		c0.1,2.7,0.3,5.4,0.4,8.1C35,15,35.1,16.6,35.1,18.1z"/>
	<path d="M98.5,14.9c5.6,0,11.2,0,16.8,0c0.2,0.5-0.1,0.6-0.5,0.7c-1.1,0.3-2.1,0.6-3.1,1.1c-2.9,1.4-4.9,3.7-6.4,6.5
		c-0.7,1.3-1.4,2.8-2,4.2c-0.1,0.2-0.2,0.3-0.3,0.5c-0.6,0-0.5-0.4-0.4-0.8c0.6-2.2,1-4.4,1.1-6.7c0.1-2.3-0.8-3.6-3-4.4
		c-0.6-0.2-1.2-0.3-1.8-0.4C98.5,15.5,98.3,15.3,98.5,14.9z"/>
	<path d="M189.8,74.9c1.3-0.2,1.3-0.2,2,0.8c2.3,3.6,4.6,7.3,6.9,10.9c0.1,0.2,0.3,0.4,0.5,0.6c0.1,0,0.1,0,0.2,0c0-2.1,0-4.1,0-6.2
		c0-2,0-4.1,0-6.2c0.4,0,0.8,0,1.2,0c0,4.8,0,9.5,0,14.4c-0.3,0-0.7,0-1,0c-0.4,0-0.7-0.1-0.9-0.5c-1.5-2.4-3-4.8-4.5-7.2
		c-0.9-1.5-1.9-3-3-4.5c-0.1,0.8-0.1,1.6-0.1,2.3c0,0.8,0,1.6,0,2.4c0,0.8,0,1.7,0,2.5c0,0.8,0,1.6,0,2.4c0,0.8,0,1.6,0,2.5
		c-0.5,0-0.8,0-1.2,0C189.8,84.4,189.8,79.7,189.8,74.9z"/>
	<path d="M162,81.8c0.2-0.9,0.3-2,0.6-3c0.9-2.9,3.1-4.4,6.1-4.3c2.9,0.1,5,1.6,5.8,4.4c0.7,2.3,0.6,4.6-0.3,6.9
		c-1,2.6-3.7,4-6.7,3.6c-2.7-0.4-4.5-2-5.2-4.9C162.2,83.8,162.2,82.9,162,81.8z M173.6,82.3c0-1.6-0.2-2.8-0.8-4
		c-0.8-1.6-2.2-2.5-4-2.6c-1.9-0.1-3.5,0.6-4.3,2.3c-1.4,2.7-1.5,5.6,0.1,8.3c1.5,2.6,5.5,2.9,7.5,0.6
		C173.3,85.5,173.6,83.8,173.6,82.3z"/>
	<path d="M73.5,89.2c0-4.9,0-9.6,0-14.3c0.2,0,0.4-0.1,0.7-0.1c1.9,0.1,3.7,0,5.6,0.3c2.9,0.5,4.5,2.3,4.9,5.2
		c0.2,1.5,0.2,3-0.2,4.4c-0.6,2.1-2,3.5-4.1,4.1c-0.8,0.2-1.6,0.4-2.5,0.4C76.4,89.3,75,89.2,73.5,89.2z M74.8,88
		c1.5,0,2.9,0.1,4.2,0c2.5-0.3,3.9-1.8,4.3-4.3c0.1-0.8,0.2-1.6,0.1-2.4c-0.1-1.7-0.6-3.1-2.1-4.1c-2-1.4-4.3-1.1-6.6-1.1
		C74.8,80.1,74.8,84,74.8,88z"/>
	<path d="M56.6,82.3c-2.3,0-4.5,0-6.9,0c0,1.9,0,3.8,0,5.7c2.5,0,4.9,0,7.5,0c0,0.4,0,0.7,0,1.1c-2.9,0-5.8,0-8.7,0
		c0-4.7,0-9.5,0-14.3c2.8,0,5.6,0,8.4,0c0,0.3,0,0.7,0,1.1c-2.4,0-4.7,0-7.2,0c0,1.8,0,3.4,0,5.2c2.3,0,4.5,0,6.9,0
		C56.6,81.6,56.6,81.9,56.6,82.3z"/>
	<path d="M216.4,85.6c0.4,0,0.8,0,1.2,0c0.1,0.1,0.1,0.1,0.1,0.2c0.4,2,1.8,2.9,4.1,2.6c0.8-0.1,1.6-0.4,2.3-1
		c1.2-1.1,1.1-3-0.3-3.8c-0.6-0.4-1.4-0.6-2.1-0.9c-1.1-0.5-2.3-0.8-3.3-1.4c-2.4-1.5-2.3-4.7,0.2-6.1c2-1.1,4-1,5.9,0.1
		c0.9,0.5,1.3,1.4,1.4,2.5c-0.5,0-0.9,0-1.2,0c-0.5-1.6-1.2-2.1-2.9-2.2c-0.9-0.1-1.8,0.1-2.6,0.6c-1.5,0.9-1.7,2.8-0.3,3.9
		c0.5,0.4,1.2,0.7,1.9,1c0.8,0.3,1.6,0.5,2.4,0.8c0.4,0.1,0.8,0.3,1.1,0.5c1.3,0.7,2,1.8,1.9,3.3c-0.1,1.5-0.8,2.6-2.1,3.2
		c-1.4,0.6-2.9,0.8-4.4,0.5c-1.7-0.3-3-1.7-3.3-3.4C216.4,85.9,216.4,85.7,216.4,85.6z"/>
	<path d="M123.6,89.2c-0.5,0-0.8,0-1.2,0c0-4.4,0-8.7,0-13.1c-1.6,0-3.1,0-4.6,0c0-0.4,0-0.8,0-1.2c3.5,0,6.9,0,10.4,0
		c0,0.2,0.1,0.4,0.1,0.5c0,0.2,0,0.3,0,0.6c-1.5,0-3,0-4.5,0C123.6,80.4,123.6,84.7,123.6,89.2z"/>
	<path d="M101,74.8c0.4,0,0.8,0,1.1,0c0,4.8,0,9.5,0,14.4c-0.4,0-0.7,0-1.1,0.1C101,84.4,101,79.6,101,74.8z"/>
	<path d="M144.7,89.2c-0.4,0-0.8,0-1.1,0c0-4.8,0-9.5,0-14.4c0.4,0,0.7,0,1.1,0C144.7,79.6,144.7,84.3,144.7,89.2z"/>
</g>
</svg>
