<?xml version="1.0" encoding="utf-8"?>
<!-- Generator: Adobe Illustrator 19.1.0, SVG Export Plug-In . SVG Version: 6.00 Build 0)  -->
<svg version="1.1" id="Layer_1" xmlns="http://www.w3.org/2000/svg" xmlns:xlink="http://www.w3.org/1999/xlink" x="0px" y="0px"
	 viewBox="0 0 78 50" style="enable-background:new 0 0 78 50;" xml:space="preserve">
<style type="text/css">
	.st0{fill:#FFFFFF;stroke:#222222;stroke-linecap:round;stroke-linejoin:round;stroke-miterlimit:10;}
	.st1{fill:#222222;}
	.st2{fill:#FFFFFF;stroke:#222222;stroke-miterlimit:10;}
	.st3{fill:none;stroke:#222222;stroke-width:0.5;stroke-linecap:round;stroke-linejoin:round;stroke-miterlimit:10;}
</style>
<g>
	<path class="st0" d="M75.5,48.6H10.9c-0.6,0-1-0.4-1-1v-29c0-0.6,0.4-1,1-1h64.6c0.6,0,1,0.4,1,1v29C76.5,48.1,76.1,48.6,75.5,48.6
		z"/>
	<path class="st0" d="M75.5,17.6H10.9c-0.6,0-1-0.4-1-1v-5.3c0-0.6,0.4-1,1-1h64.6c0.6,0,1,0.4,1,1v5.3
		C76.5,17.1,76.1,17.6,75.5,17.6z"/>
	<line id="XMLID_1111_" class="st0" x1="28.7" y1="24.4" x2="69.8" y2="24.4"/>
	<line id="XMLID_1112_" class="st0" x1="28.7" y1="32.8" x2="69.8" y2="32.8"/>
	<line id="XMLID_1113_" class="st0" x1="28.7" y1="40.8" x2="69.8" y2="40.8"/>
	<circle id="XMLID_1114_" class="st1" cx="19.7" cy="24.7" r="2.3"/>
	<circle id="XMLID_1115_" class="st1" cx="19.7" cy="32.5" r="2.3"/>
	<circle id="XMLID_1116_" class="st1" cx="19.7" cy="40.8" r="2.3"/>
	<g>
		<circle id="XMLID_1107_" class="st2" cx="10.3" cy="10.2" r="8.8"/>
		<g>
			<polyline id="XMLID_1106_" class="st3" points="6.9,11.3 6.9,12.8 10.2,14.6 13.7,12.9 13.7,11.2 			"/>
			<polygon id="XMLID_1105_" class="st3" points="9,10.3 7.7,8.1 9,5.9 11.6,5.9 12.9,8.1 11.6,10.3 			"/>
		</g>
	</g>
</g>
</svg>
