<?xml version="1.0" encoding="utf-8"?>
<!-- Generator: Adobe Illustrator 19.1.0, SVG Export Plug-In . SVG Version: 6.00 Build 0)  -->
<svg version="1.1" id="Layer_1" xmlns="http://www.w3.org/2000/svg" xmlns:xlink="http://www.w3.org/1999/xlink" x="0px" y="0px"
	 viewBox="0 0 51 59" style="enable-background:new 0 0 51 59;" xml:space="preserve">
<style type="text/css">
	.st0{fill:#FFFFFF;stroke:#222222;stroke-linecap:round;stroke-linejoin:round;stroke-miterlimit:10;}
	.st1{fill:none;stroke:#222222;stroke-linecap:round;stroke-linejoin:round;stroke-miterlimit:10;}
	.st2{fill:#FFFFFF;stroke:#FFFFFF;stroke-linecap:round;stroke-linejoin:round;stroke-miterlimit:10;}
</style>
<g>
	<rect x="1.5" y="16.4" class="st0" width="43.9" height="35"/>
	<ellipse class="st0" cx="23.4" cy="16.5" rx="22" ry="6.3"/>
	<path class="st0" d="M45.5,50.7c0,3.5-9.9,6.3-22,6.3s-22-2.8-22-6.3"/>
	<path class="st1" d="M45.5,39.5c0,3.5-9.9,6.3-22,6.3s-22-2.8-22-6.3"/>
	<path class="st1" d="M45.5,28.2c0,3.5-9.9,6.3-22,6.3s-22-2.8-22-6.3"/>
	<g>
		<circle id="XMLID_1007_" cx="42.9" cy="23.8" r="6.5"/>
		<line id="XMLID_1006_" class="st2" x1="46.6" y1="23.8" x2="39.2" y2="23.8"/>
	</g>
	<g>
		<circle id="XMLID_1005_" cx="43.1" cy="8.5" r="6.5"/>
		<line id="XMLID_1004_" class="st2" x1="46.8" y1="8.5" x2="39.4" y2="8.5"/>
		<line id="XMLID_1003_" class="st2" x1="43.1" y1="4.8" x2="43.1" y2="12.2"/>
	</g>
</g>
</svg>
