<?xml version="1.0" encoding="utf-8"?>
<!-- Generator: Adobe Illustrator 19.1.0, SVG Export Plug-In . SVG Version: 6.00 Build 0)  -->
<svg version="1.1" id="Layer_1" xmlns="http://www.w3.org/2000/svg" xmlns:xlink="http://www.w3.org/1999/xlink" x="0px" y="0px"
	 viewBox="0 0 912 108" style="enable-background:new 0 0 912 108;" xml:space="preserve">
<style type="text/css">
	.st0{fill:#B8C2CA;}
	.st1{fill:#FFFFFF;}
</style>
<g>
	<g>
		<polygon class="st0" points="0.7,3.9 18.4,3.9 18.4,88.5 71.3,88.5 71.3,104.6 0.7,104.6 		"/>
		<rect x="105.2" y="3.9" class="st0" width="17.7" height="100.7"/>
		<polygon class="st0" points="164.2,3.9 239.1,3.9 239.1,20 181.9,20 181.9,47.5 232.7,47.5 232.7,63.6 181.9,63.6 181.9,104.6 
			164.2,104.6 		"/>
		<polygon class="st0" points="273,3.9 347.6,3.9 347.6,19.7 290.7,19.7 290.7,45.9 341.2,45.9 341.2,61.7 290.7,61.7 290.7,88.8 
			348.4,88.8 348.4,104.6 273,104.6 		"/>
		<path class="st1" d="M380.6,54.5v-0.3c0-28.5,21.3-52.1,50.9-52.1c18.3,0,29.2,6.5,39.3,16l-7.8,8.3c-8.5-8.1-18-13.8-31.7-13.8
			c-22.3,0-39,18.1-39,41.3v0.3c0,23.3,16.8,41.6,39,41.6c13.8,0,22.9-5.3,32.5-14.5l7.5,7.3c-10.5,10.7-22,17.7-40.3,17.7
			C402.1,106.3,380.6,83.5,380.6,54.5"/>
		<polygon class="st1" points="535.7,64.8 493.9,3.9 507.7,3.9 541.6,54.2 575.9,3.9 589.1,3.9 547.3,64.6 547.3,104.6 535.7,104.6 
					"/>
		<path class="st1" d="M608.6,54.5v-0.3c0-28.5,21.3-52.1,50.9-52.1c18.3,0,29.2,6.5,39.3,16l-7.8,8.3c-8.5-8.1-18-13.8-31.7-13.8
			c-22.3,0-39,18.1-39,41.3v0.3c0,23.3,16.8,41.6,39,41.6c13.8,0,22.9-5.3,32.5-14.5l7.5,7.3c-10.5,10.7-22,17.7-40.3,17.7
			C630,106.3,608.6,83.5,608.6,54.5"/>
		<polygon class="st1" points="733.6,3.9 745,3.9 745,94.1 801.7,94.1 801.7,104.6 733.6,104.6 		"/>
		<polygon class="st1" points="837.1,3.9 909.9,3.9 909.9,14.2 848.5,14.2 848.5,48.6 903.5,48.6 903.5,59 848.5,59 848.5,94.3 
			910.6,94.3 910.6,104.6 837.1,104.6 		"/>
	</g>
	<polygon class="st1" points="456.1,33.8 456.1,34.1 477.8,33.3 477,11.6 476.7,11.7 	"/>
</g>
</svg>
