<?xml version="1.0" encoding="utf-8"?>
<!-- Generator: Adobe Illustrator 19.1.0, SVG Export Plug-In . SVG Version: 6.00 Build 0)  -->
<svg version="1.1" id="Layer_1" xmlns="http://www.w3.org/2000/svg" xmlns:xlink="http://www.w3.org/1999/xlink" x="0px" y="0px"
	 viewBox="0 0 82 82" style="enable-background:new 0 0 82 82;" xml:space="preserve">
<style type="text/css">
	.st0{fill:#E3E3E3;stroke:#D3D3D3;stroke-miterlimit:10;}
	.st1{fill:none;stroke:#D3D3D3;stroke-miterlimit:10;}
</style>
<g>
	<path id="XMLID_102_" class="st0" d="M29.7,65.1L18.8,78.9L11,73.3l10.6-13.6C21.6,59.7,29.9,65,29.7,65.1z"/>
	<polygon id="XMLID_101_" class="st0" points="6.5,62.3 35.1,46.5 31.7,79.9 23.6,64.6 	"/>
	<path id="XMLID_100_" class="st1" d="M41,0.7C18.8,0.7,0.7,18.8,0.7,41c0,5.5,1.1,10.8,3.2,15.6l11-5.5c-0.9-2.7-1.1-7.1-1.1-10.2
		C13.8,26,26,13.8,41,13.8S68.2,26,68.2,41c0,14.9-14.1,27.3-29.1,27.4l-0.5,12.9c0.8,0,1.6,0.1,2.3,0.1c22.2,0,40.3-18.1,40.3-40.3
		S63.2,0.7,41,0.7z"/>
</g>
</svg>
