<?xml version="1.0" encoding="utf-8"?>
<!-- Generator: Adobe Illustrator 19.1.0, SVG Export Plug-In . SVG Version: 6.00 Build 0)  -->
<svg version="1.1" id="Layer_1" xmlns="http://www.w3.org/2000/svg" xmlns:xlink="http://www.w3.org/1999/xlink" x="0px" y="0px"
	 viewBox="-429.2 232.7 277 391" style="enable-background:new -429.2 232.7 277 391;" xml:space="preserve">
<style type="text/css">
	.st0{fill:none;stroke:#FF8D72;stroke-miterlimit:10;}
	.st1{fill:none;stroke:#FF8D72;stroke-linecap:round;stroke-linejoin:round;stroke-miterlimit:10;}
	.st2{fill:none;stroke:#DDDDDD;stroke-linecap:round;stroke-linejoin:round;stroke-miterlimit:10;}
</style>
<line id="XMLID_524_" class="st0" x1="-379.2" y1="464.7" x2="-329.5" y2="464.7"/>
<line id="XMLID_525_" class="st0" x1="-250" y1="464.7" x2="-200.1" y2="464.7"/>
<line id="XMLID_503_" class="st1" x1="-353.3" y1="477.4" x2="-226.1" y2="477.4"/>
<rect id="XMLID_502_" x="-329.5" y="394.1" class="st1" width="79.5" height="83.2"/>
<line id="XMLID_505_" class="st1" x1="-320.4" y1="406" x2="-308.3" y2="406"/>
<line id="XMLID_504_" class="st1" x1="-320.4" y1="417.8" x2="-308.3" y2="417.8"/>
<line id="XMLID_507_" class="st1" x1="-320.4" y1="429.6" x2="-308.3" y2="429.6"/>
<line id="XMLID_510_" class="st1" x1="-320.4" y1="441.2" x2="-308.3" y2="441.2"/>
<line id="XMLID_521_" class="st1" x1="-295.8" y1="406" x2="-283.6" y2="406"/>
<line id="XMLID_520_" class="st1" x1="-295.8" y1="417.8" x2="-283.6" y2="417.8"/>
<line id="XMLID_519_" class="st1" x1="-295.8" y1="429.6" x2="-283.6" y2="429.6"/>
<line id="XMLID_518_" class="st1" x1="-295.8" y1="441" x2="-283.6" y2="441"/>
<line id="XMLID_509_" class="st1" x1="-320.4" y1="453" x2="-308.3" y2="453"/>
<line id="XMLID_508_" class="st1" x1="-320.4" y1="464.5" x2="-308.3" y2="464.5"/>
<line id="XMLID_516_" class="st1" x1="-272.8" y1="406" x2="-260.6" y2="406"/>
<line id="XMLID_515_" class="st1" x1="-272.8" y1="417.8" x2="-260.6" y2="417.8"/>
<line id="XMLID_514_" class="st1" x1="-272.8" y1="429.6" x2="-260.6" y2="429.6"/>
<line id="XMLID_513_" class="st1" x1="-272.8" y1="441.2" x2="-260.6" y2="441.2"/>
<line id="XMLID_512_" class="st1" x1="-272.8" y1="453" x2="-260.6" y2="453"/>
<line id="XMLID_511_" class="st1" x1="-272.8" y1="464.5" x2="-260.6" y2="464.5"/>
<rect id="XMLID_506_" x="-299" y="452" class="st1" width="18.8" height="25.4"/>
<line id="XMLID_523_" class="st1" x1="-356.8" y1="464.7" x2="-356.8" y2="444.7"/>
<path id="XMLID_531_" class="st0" d="M-344.8,423.9c1.5-4.2-1-8.7-5-10.1c-2.8-1-5.6-0.2-7.8,1.5c-0.7-0.7-1.7-1.2-2.5-1.5
	c-4.2-1.5-8.7,0.7-10.3,5c-0.7,2.1-0.5,4.2,0.2,6.1c-1.5,1-2.3,2.3-3,4c-1.5,4.2,0.7,8.7,5,10.3c1,0.2,1.8,0.5,2.5,0.5
	c0.5,1.8,1.8,3.5,4,4.2c1.5,0.5,2.5,0.5,4,0c0.7,1,1.7,1.5,2.5,1.8c3.3,1.2,6.8-0.5,8-3.8c0.5-1,0.5-2.1,0.2-3
	c2.5-0.7,5-2.5,5.8-5.2C-339.6,430-341.5,425.8-344.8,423.9z"/>
<path id="XMLID_526_" class="st0" d="M-299,477.4c0,0,13.8,9.8,3.8,17.3s-32.1,10.6-32.1,25.4"/>
<path id="XMLID_517_" class="st0" d="M-280.2,477.4c0,0,18.9,8,17.8,19.7c-1.2,11.8-21.1,23.4-21.1,23.4s-6.6,4.7-2.3,8.9"/>
<path id="XMLID_549_" class="st0" d="M-254.5,362.2c-15.6,0-28.6,12.6-28.6,28.6c0,1.2,0,2.1,0.2,3.3h32.9v25.1
	c13.6-2.1,24.1-13.8,24.1-28.1C-226.1,374.8-238.9,362.2-254.5,362.2z"/>
<line id="XMLID_528_" class="st0" x1="-290" y1="386.1" x2="-307.6" y2="386.1"/>
<line id="XMLID_529_" class="st0" x1="-287.2" y1="376.5" x2="-294" y2="374"/>
<line id="XMLID_530_" class="st0" x1="-281.8" y1="366.2" x2="-295.2" y2="353.4"/>
<line id="XMLID_533_" class="st0" x1="-261.9" y1="356.6" x2="-265.2" y2="338.3"/>
<line id="XMLID_532_" class="st0" x1="-272.7" y1="359.9" x2="-276" y2="353.6"/>
<line id="XMLID_537_" class="st0" x1="-219.2" y1="386.9" x2="-201.7" y2="386.9"/>
<line id="XMLID_536_" class="st0" x1="-222.1" y1="377.5" x2="-215.3" y2="374.8"/>
<line id="XMLID_535_" class="st0" x1="-227.4" y1="367" x2="-214.1" y2="354"/>
<line id="XMLID_534_" class="st0" x1="-247.3" y1="357.5" x2="-244.1" y2="339.1"/>
<line id="XMLID_527_" class="st0" x1="-236.5" y1="360.6" x2="-233.3" y2="354.5"/>
<line id="XMLID_539_" class="st0" x1="-254.4" y1="355.4" x2="-253.8" y2="348.4"/>
<line id="XMLID_543_" class="st0" x1="-220.2" y1="404" x2="-203.5" y2="409.5"/>
<line id="XMLID_542_" class="st0" x1="-224.6" y1="413.1" x2="-218.8" y2="417.8"/>
<line id="XMLID_541_" class="st0" x1="-232.7" y1="420" x2="-220.4" y2="434.2"/>
<line id="XMLID_538_" class="st0" x1="-241" y1="425.6" x2="-238.5" y2="432.1"/>
<line id="XMLID_540_" class="st0" x1="-218.3" y1="395.6" x2="-211.1" y2="396"/>
<g>
	<polyline class="st1" points="-152.7,395.8 -152.7,233.2 -428.7,233.2 -428.7,395.8 	"/>
	<polyline class="st2" points="-428.7,395.8 -428.7,623.2 -152.7,623.2 -152.7,395.8 	"/>
</g>
</svg>
