<?xml version="1.0" encoding="utf-8"?>
<!-- Generator: Adobe Illustrator 19.1.0, SVG Export Plug-In . SVG Version: 6.00 Build 0)  -->
<svg version="1.1" id="Layer_1" xmlns="http://www.w3.org/2000/svg" xmlns:xlink="http://www.w3.org/1999/xlink" x="0px" y="0px"
	 viewBox="0 0 99 66" style="enable-background:new 0 0 99 66;" xml:space="preserve">
<style type="text/css">
	.st0{fill:none;stroke:#000000;stroke-linecap:round;stroke-linejoin:round;stroke-miterlimit:10;}
	.st1{fill:#F4F4F4;stroke:#222222;stroke-width:0.75;stroke-linecap:round;stroke-linejoin:round;stroke-miterlimit:10;}
	.st2{fill:none;stroke:#222222;stroke-width:0.75;stroke-linecap:round;stroke-linejoin:round;stroke-miterlimit:10;}
</style>
<g>
	<g id="XMLID_647_">
		<path id="XMLID_746_" class="st0" d="M47.5,63.4h37.2c0.2-0.3,0.2-0.7,0.2-1.1V16.7c0-1.5-1.3-2.8-2.9-2.8h-70
			c-1.6,0-2.9,1.3-2.9,2.8v45.6c0,0.4,0.1,0.8,0.2,1.1h37.6H47.5z"/>
		<rect id="XMLID_745_" x="13" y="17.5" class="st0" width="68.5" height="41.2"/>
		<path id="XMLID_734_" class="st0" d="M84.8,63.1H47.5h-0.5H9.4H0.8v0.5h9h33.4c2.3,0,3.4,0,3.9,0c0.4,0,0.5,0,0.5,0
			c0.5,0,1.6,0,3.9,0h33h9.4v-0.5H84.8z"/>
		<path id="XMLID_732_" class="st0" d="M54.7,64c0,0-0.1,0.5-1.8,0.5h-12c-1.8,0-1.8-0.5-1.8-0.5"/>
		<path id="XMLID_731_" d="M94.2,63.5c0,0-3.8,2.1-15.2,2.1c-11.3,0-31.3,0-31.3,0h0.2c0,0-20.2,0-31.6,0c-11.3,0-15.2-2.1-15.2-2.1
			"/>
		<rect id="XMLID_728_" x="13" y="17.5" class="st0" width="68.5" height="41.2"/>
	</g>
	<g id="XMLID_648_">
		<circle id="XMLID_646_" class="st1" cx="81.4" cy="17.3" r="16.9"/>
		<path id="XMLID_669_" class="st2" d="M72.6,15.9c0,0,2.4,0.4,3-0.7c0.6-1.1,0.8-2.2,1-3.4c0.1-0.6,0.5-1.3,0.9-1.8
			c1.4-1.9,3.6-2.4,5.8-1.6c0.9,0.3,1.8,0.9,2.3,1.7c0.6,1,0.5,2.1,0.5,3.2c0,1.1-0.1,2.2,0.1,3.3c0.4,1.8,1.8,2.9,3.6,2.7"/>
		<path id="XMLID_673_" class="st2" d="M73.3,13c0,0,0.8-8.2,8-8.1c7.2,0.1,8.8,6.8,8,11.1"/>
		<path id="XMLID_674_" class="st2" d="M74.2,25.8c3.9-0.2,7.7-2.5,9.9-5.7c-0.1,0.1,1.5,1.5,1.6,1.6c1.1,0.8,2.4,1.4,3.8,1"/>
		<path id="XMLID_676_" class="st2" d="M80.9,26.1c0,0,2.4,0.4,4-1.5"/>
		<path id="XMLID_675_" class="st2" d="M76.1,27.5c2.3,1.6,5.3,2.4,8,1.5c1.3-0.4,2.5-1.2,3.4-2.3c0.3-0.3,0.5-0.7,0.7-1.1
			c0.1-0.2,0.2-0.4,0.4-0.6"/>
		<path id="XMLID_677_" class="st2" d="M73,19.3c0,0,4.5-0.2,5.7-2.7c0.5-1,0.9-2.2,0.9-3.4c0-0.4,0-0.8,0.3-1.1
			c0.6-1,2.3-0.8,2.9,0.2c0.5,0.8,0.2,2,0.1,2.9c-0.2,1.7-1,3.2-2.2,4.4c-1.9,1.9-3.2,2.7-7.4,3"/>
	</g>
</g>
</svg>
