<?xml version="1.0" encoding="utf-8"?>
<!-- Generator: Adobe Illustrator 19.1.0, SVG Export Plug-In . SVG Version: 6.00 Build 0)  -->
<svg version="1.1" id="Layer_1" xmlns="http://www.w3.org/2000/svg" xmlns:xlink="http://www.w3.org/1999/xlink" x="0px" y="0px"
	 viewBox="0 0 68 68" style="enable-background:new 0 0 68 68;" xml:space="preserve">
<style type="text/css">
	.st0{fill:none;stroke:#000000;stroke-linecap:round;stroke-linejoin:round;stroke-miterlimit:10;}
</style>
<g>
	<circle id="XMLID_592_" class="st0" cx="34.2" cy="34" r="8.1"/>
	<circle id="XMLID_547_" class="st0" cx="34" cy="5.3" r="4.2"/>
	<circle id="XMLID_595_" class="st0" cx="34.4" cy="62.7" r="4.2"/>
	<circle id="XMLID_599_" class="st0" cx="54.9" cy="54.7" r="4.2"/>
	<circle id="XMLID_600_" class="st0" cx="13.7" cy="54.7" r="4.2"/>
	<circle id="XMLID_596_" class="st0" cx="5.2" cy="34" r="4.2"/>
	<circle id="XMLID_597_" class="st0" cx="12.7" cy="13.5" r="4.2"/>
	<circle id="XMLID_598_" class="st0" cx="54.9" cy="13.8" r="4.2"/>
	<circle id="XMLID_594_" class="st0" cx="62.8" cy="34.5" r="4.2"/>
	<line id="XMLID_601_" class="st0" x1="34" y1="47.4" x2="34" y2="53.8"/>
	<line id="XMLID_605_" class="st0" x1="34" y1="15.5" x2="34" y2="21.9"/>
	<line id="XMLID_602_" class="st0" x1="24.7" y1="44.1" x2="20.3" y2="48.8"/>
	<line id="XMLID_607_" class="st0" x1="47.6" y1="21.1" x2="43.3" y2="25.8"/>
	<line id="XMLID_606_" class="st0" x1="19.5" y1="19.7" x2="24.2" y2="24.1"/>
	<line id="XMLID_608_" class="st0" x1="43.3" y1="43.5" x2="48" y2="47.9"/>
	<line id="XMLID_593_" class="st0" x1="20.2" y1="33.5" x2="13.7" y2="33.6"/>
	<line id="XMLID_604_" class="st0" x1="53.3" y1="34.2" x2="46.8" y2="34.3"/>
</g>
</svg>
