<?xml version="1.0" encoding="utf-8"?>
<!-- Generator: Adobe Illustrator 19.1.0, SVG Export Plug-In . SVG Version: 6.00 Build 0)  -->
<svg version="1.1" id="Layer_1" xmlns="http://www.w3.org/2000/svg" xmlns:xlink="http://www.w3.org/1999/xlink" x="0px" y="0px"
	 viewBox="0 0 331 66" style="enable-background:new 0 0 331 66;" xml:space="preserve">
<style type="text/css">
	.st0{fill:#FFFFFF;}
</style>
<path class="st0" d="M64.7,62.9c-5.5,0-10.6,0-16.1,0c3.2-15.3,6.4-30.3,9.6-45.6c4.9-0.9,9.8-0.4,14.8-0.4c0.3,1.5,0.5,2.7,0.7,4
	c0.5-0.2,1-0.3,1.3-0.6c3.7-3.5,8.1-4.8,13.2-4.5c5.5,0.4,8.8,4.2,7.8,9.6c-1.4,7.4-3,14.8-4.5,22.2c-0.8,3.8-1.5,7.5-2.4,11.3
	c-0.3,1.3-0.8,2.6-1.3,4c-5.2,0-10.3,0-15.7,0c2.3-11.2,4.6-22.1,6.9-33c-2.7-3-5.9-2.8-7.1,0.6c-1.1,2.9-1.5,6-2.1,9
	C68,47.2,66.4,54.9,64.7,62.9z"/>
<path class="st0" d="M157.4,29.4c-4.3,0-8.4,0-12.7,0c-0.5-1.3-1-2.5-1.6-4.2c-1.7-0.1-3.3-0.2-5.2-0.2c-0.8,1.4-1.5,2.6-2.2,3.7
	c1.3,2.2,2.7,3.3,4.8,4c2.9,1,5.7,2.3,8.6,3.5c4.5,1.9,6.6,6.2,5.8,10.9c-1.2,6-3.7,11.1-9.3,14.1c-1.6,0.9-3.4,1.5-5.1,2
	c-5.5,1.5-11.1,1.3-16.5,0.3c-4.9-0.9-7.5-4.6-7.6-9.6c0-1.7,0-3.3,0-5.2c5.1,0,9.6,0,14.3,0c0.3,1.9,0.6,3.5,0.8,5
	c2,1.5,3.9,1.6,5.6,0.2c1.8-1.5,1.9-3.4,0.9-5.8c-1.4-0.7-3-1.6-4.6-2.3c-2.5-1.2-5.1-2.2-7.6-3.4c-4.9-2.5-6.1-5.5-4.9-11
	c1.6-7.6,6-12.7,13.6-14.8c5-1.3,10.2-1.2,15.1-0.2C156.8,17.9,159.1,22.8,157.4,29.4z"/>
<path class="st0" d="M17.4,62.9c-5.5,0-10.5,0-15.9,0c1.8-11.9,5-23.5,7.1-35.4c-1.8-0.4-3.1-0.8-4.8-1.2c0.7-3.1,1.4-6,2.2-9.2
	c1.5-0.2,3-0.5,4.9-0.8c0.4-1.7,1-3.4,1.3-5.2C13.3,5.1,18.4,0.9,24.1,1c3.8,0.1,7.6,0,11.6,0c0.7,3.7-0.8,6.6-1.7,9.7
	c-1.7,0.3-3.3,0.5-5.5,0.9c-0.2,1.5-0.4,3-0.7,4.8c1.9,0.2,3.2,0.4,5.1,0.7c-0.6,3.1-1.2,6.1-1.9,9.3c-1.8,0.3-3.5,0.6-5.3,0.8
	c-2.3,2.4-1.8,5.7-2.5,8.6C21.2,44.7,19.4,53.6,17.4,62.9z"/>
<path class="st0" d="M181.9,27.1c-3.2,9.9-5.4,21.8-4.5,25.2c1.3,0.3,2.7,0.7,4.3,1.1c-0.6,3.1-1.2,6.1-1.8,9.3
	c-5.3,1.9-10.6,1.8-15.9,0.5c-3.8-0.9-5.5-3.8-4.8-7.7c1.3-6.3,2.7-12.6,4.1-18.9c0.6-3,1.3-6,1.9-9.3c-1.6-0.3-3.1-0.6-4.8-0.9
	c0.6-3,1.2-5.9,1.9-9.1c1.7-0.4,3.3-0.7,5.3-1.2c0.9-4.2,1.9-8.5,2.9-13.1c5.3,0,10.5,0,16,0c-0.9,4.4-1.7,8.5-2.6,13
	c1.9,0.4,3.5,0.7,5.6,1.1c-0.7,3.1-1.5,6.2-2.2,9.4C185.4,26.8,183.7,27,181.9,27.1z"/>
<path class="st0" d="M263.6,17c5.2-0.4,10.1-0.1,15.4-0.2c-0.3,2.1-0.5,3.9-0.8,6.2c4.4-3.3,7.2-9.1,14.2-6.6
	c-0.9,4.5-1.9,9.1-3,14.2c-1.9,0-3.8,0.1-5.6,0c-3.6-0.3-6,1.4-7.2,4.6c-1.1,2.9-1.8,5.9-2.5,8.9c-1.4,6.2-2.7,12.3-4.1,18.9
	c-5.2,0.5-10.4,0.2-16.2,0.2C257.1,47.7,260.2,32.7,263.6,17z"/>
<path class="st0" d="M258.8,30.6c-2.3,0-4,0.1-5.7,0c-3.7-0.3-6.1,1.2-7.6,5.4c-1,2.9-1.5,6-2.2,9c-1.1,5-2,9.9-3.1,14.9
	c-0.2,1-0.7,2-1.1,3.1c-5.2,0-10.3,0-15.6,0c3-15.5,6.4-30.6,9.7-45.8c5.5,0,10.4,0,15.3,0c-0.2,1.9-0.3,3.5-0.6,6.1
	c4-4.4,7.5-8.3,14.1-7C260.9,21,259.9,25.6,258.8,30.6z"/>
<path class="st0" d="M110.1,62.8c-5.4,0-10.5,0-16.1,0c3.2-15.3,6.4-30.3,9.7-45.8c5.1-0.6,10.4-0.1,16.2-0.3
	C116.6,32.4,113.4,47.4,110.1,62.8z"/>
<path class="st0" d="M42.4,62.9c-5.2,0-9.9,0-14.6,0c-1.7-2.7-0.1-5.1,0.4-7.3C30.4,44,33,32.4,35.5,20.8c0.3-1.2,0.8-2.3,1.2-3.7
	c4.9,0,9.8,0,14.8,0c1.3,3-0.2,5.6-0.7,8.2c-2.2,11.6-4.8,23.2-7.3,34.8C43.3,61,42.8,61.8,42.4,62.9z"/>
<path class="st0" d="M53.6,11.8c-5.6,0-10.6,0-16.1,0c0.7-3.5,1.4-6.7,2.2-10.5c5.1-0.6,10.3-0.3,16-0.2C55,4.9,54.3,8.2,53.6,11.8z
	"/>
<path class="st0" d="M107.5,1.2c5.2,0,10.3,0,15.7,0c-0.8,3.6-1.5,7-2.3,10.7c-5.2,0.2-10.1,0.1-14.9,0.1
	C105.2,9,105.5,6.4,107.5,1.2z"/>
<path class="st0" d="M327.8,42.7c0.7-5.7,1.7-10.7,1.8-15.7c0.1-6.3-4.4-10.7-10.7-11.1c-3.2-0.2-6.6-0.4-9.7,0.1
	c-6.6,1-12.3,3.6-15.7,10.1c-2.6,5.2-4.3,10.6-5.3,16.2c-0.6,3.2-1,6.4-1,9.6c0.1,7.3,4.6,11.8,11.9,12.1c2.6,0.1,5.3,0,7.9,0
	c9.3,0.2,17.9-8.1,18.2-16.3c-4.6,0-9.1,0-13.8,0c-0.6,1.5-1,2.8-1.6,4.1c-1.5,3.3-2.7,3.7-6.6,1.9c-1.3-3.7,0.4-7.1,1.1-11
	C312.1,42.7,319.6,42.7,327.8,42.7z M313.9,25.6c1.5,3.4,1.5,3.4-0.5,8.5c-1.9,0-4,0-6.4,0C306.2,27.3,308.5,24.5,313.9,25.6z"/>
<path class="st0" d="M217.4,16.1c-4.4-0.5-8.9-0.2-13.3,0.4c-6.7,0.9-11.1,5.2-13.8,11.1c-3.7,7.9-5.6,16.3-5.3,25.1
	c0.2,5.3,2.7,8.9,7.7,10.4c7,2,14.1,1.9,20.8-1.3c5.5-2.7,8.6-7.5,9.5-14c-5,0-9.6,0-14,0c-2.2,6.7-2.8,7.3-7.9,6.7
	c-2.1-4.1,0.1-7.7,1.1-11.8c7.6,0,14.9,0,22.1,0c0.5-0.9,1-1.5,1.2-2.2c0.7-4.1,1.6-8.2,1.8-12.3C227.6,21.6,224,16.9,217.4,16.1z
	 M211.4,34.1c-2.7,0-5,0-7.9,0c0.7-2.4,1-4.6,2-6.4c0.6-1.2,2.1-2.2,3.4-2.6c2.6-0.6,4.1,1,3.7,3.7C212.3,30.4,211.9,32,211.4,34.1z
	"/>
</svg>
