<?xml version="1.0" encoding="utf-8"?>
<!-- Generator: Adobe Illustrator 19.1.0, SVG Export Plug-In . SVG Version: 6.00 Build 0)  -->
<svg version="1.1" id="Layer_1" xmlns="http://www.w3.org/2000/svg" xmlns:xlink="http://www.w3.org/1999/xlink" x="0px" y="0px"
	 viewBox="0 0 51 47" style="enable-background:new 0 0 51 47;" xml:space="preserve">
<style type="text/css">
	.st0{fill:none;stroke:#222222;stroke-width:0.75;stroke-linecap:round;stroke-linejoin:round;stroke-miterlimit:10;}
	.st1{fill:#FFFFFF;stroke:#222222;stroke-width:0.75;stroke-miterlimit:10;}
	.st2{fill:#222222;}
	.st3{fill:#FFFFFF;stroke:#222222;stroke-width:0.75;stroke-linecap:round;stroke-linejoin:round;stroke-miterlimit:10;}
</style>
<g>
	<polyline id="XMLID_1055_" class="st0" points="49.2,18.1 26.5,1.1 2,17.7 	"/>
	<g>
		<path id="XMLID_1069_" class="st1" d="M40.5,29.4H11.2c-2.5,0-4.6-2.1-4.6-4.6V14.1c0-2.5,2.1-4.6,4.6-4.6h29.3
			c2.5,0,4.6,2.1,4.6,4.6v10.7C45,27.3,43,29.4,40.5,29.4z"/>
		<polyline id="XMLID_1065_" class="st0" points="11.1,20.9 11.2,22.6 14.7,24.5 18.5,22.7 18.5,20.9 		"/>
		<polygon id="XMLID_1064_" class="st0" points="13.4,19.9 12,17.5 13.4,15.1 16.2,15.1 17.6,17.5 16.2,19.9 		"/>
		<path id="XMLID_1063_" class="st0" d="M31.7,25.8h-4.8c-0.4,0-0.7-0.3-0.7-0.7v-2.8c0-0.4,0.3-0.7,0.7-0.7h4.8
			c0.4,0,0.7,0.3,0.7,0.7v2.8C32.5,25.5,32.1,25.8,31.7,25.8z"/>
		<path id="XMLID_1062_" class="st0" d="M40.1,25.8h-4.8c-0.4,0-0.7-0.3-0.7-0.7v-2.8c0-0.4,0.3-0.7,0.7-0.7h4.8
			c0.4,0,0.7,0.3,0.7,0.7v2.8C40.8,25.5,40.5,25.8,40.1,25.8z"/>
		<path id="XMLID_1067_" class="st0" d="M31.7,19.6h-4.8c-0.4,0-0.7-0.3-0.7-0.7V16c0-0.4,0.3-0.7,0.7-0.7h4.8
			c0.4,0,0.7,0.3,0.7,0.7v2.8C32.5,19.3,32.1,19.6,31.7,19.6z"/>
		<path id="XMLID_1066_" class="st0" d="M40.1,19.6h-4.8c-0.4,0-0.7-0.3-0.7-0.7V16c0-0.4,0.3-0.7,0.7-0.7h4.8
			c0.4,0,0.7,0.3,0.7,0.7v2.8C40.8,19.3,40.5,19.6,40.1,19.6z"/>
		<polygon id="XMLID_1071_" class="st2" points="29.3,16.4 29.7,17.1 30.5,17.2 29.9,17.8 30,18.5 29.3,18.2 28.6,18.5 28.8,17.8 
			28.2,17.2 29,17.1 		"/>
		<polygon id="XMLID_1072_" class="st2" points="37.7,16.4 38,17.1 38.8,17.2 38.2,17.8 38.4,18.5 37.7,18.2 37,18.5 37.1,17.8 
			36.5,17.2 37.3,17.1 		"/>
		<polygon id="XMLID_1074_" class="st2" points="29.3,22.6 29.7,23.3 30.5,23.4 29.9,24 30,24.8 29.3,24.4 28.6,24.8 28.8,24 
			28.2,23.4 29,23.3 		"/>
		<polygon id="XMLID_1073_" class="st2" points="37.7,22.6 38,23.3 38.8,23.4 38.2,24 38.4,24.8 37.7,24.4 37,24.8 37.1,24 
			36.5,23.4 37.3,23.3 		"/>
	</g>
	<path id="XMLID_1038_" class="st3" d="M49.2,18.1c0.4,0.7,0.6,1.5,0.6,2.4v20.4c0,2.8-2.3,5-5,5H6.2c-2.8,0-5-2.3-5-5V20.5
		c0-0.9,0.2-1.8,0.7-2.5l0,0l22.9,17.1L49.2,18.1L49.2,18.1z"/>
</g>
</svg>
