<?xml version="1.0" encoding="utf-8"?>
<!-- Generator: Adobe Illustrator 19.1.0, SVG Export Plug-In . SVG Version: 6.00 Build 0)  -->
<svg version="1.1" id="Layer_1" xmlns="http://www.w3.org/2000/svg" xmlns:xlink="http://www.w3.org/1999/xlink" x="0px" y="0px"
	 viewBox="0 0 90 97" style="enable-background:new 0 0 90 97;" xml:space="preserve">
<style type="text/css">
	.st0{fill:#FFFFFF;stroke:#222222;stroke-linecap:round;stroke-linejoin:round;stroke-miterlimit:10;}
	.st1{fill:#FCB415;}
	.st2{fill:#222222;stroke:#FCB415;stroke-width:0.5;stroke-linecap:round;stroke-miterlimit:10;}
	.st3{fill:none;stroke:#FCB415;stroke-width:0.5;stroke-linecap:round;stroke-miterlimit:10;}
	.st4{fill:#555655;}
	.st5{opacity:0.43;fill:#222222;}
	.st6{fill:#222222;}
	.st7{fill:none;stroke:#FCB415;stroke-width:0.5;stroke-miterlimit:10;}
	.st8{fill:#FFFFFF;}
</style>
<g>
	<path id="XMLID_969_" class="st0" d="M75,83.1H22.9c-1.2,0-2.1-0.9-2.1-2.1V17.1c0-1.2,0.9-2.1,2.1-2.1H75c1.2,0,2.1,0.9,2.1,2.1
		V81C77.2,82.2,76.2,83.1,75,83.1z"/>
	<circle id="XMLID_1097_" class="st1" cx="55.8" cy="49.8" r="0.8"/>
	<circle id="XMLID_1095_" class="st1" cx="55.8" cy="53.2" r="0.8"/>
	<circle id="XMLID_1094_" class="st1" cx="55.8" cy="56.6" r="0.8"/>
	<line id="XMLID_1093_" class="st2" x1="58.7" y1="49.6" x2="71.2" y2="49.6"/>
	<line id="XMLID_1092_" class="st2" x1="58.7" y1="53.2" x2="71.2" y2="53.2"/>
	<line id="XMLID_1091_" class="st2" x1="58.7" y1="56.9" x2="71.2" y2="56.9"/>
	<circle id="XMLID_1090_" class="st0" cx="55.8" cy="69.7" r="0.8"/>
	<circle id="XMLID_1089_" class="st0" cx="55.8" cy="73.1" r="0.8"/>
	<circle id="XMLID_1088_" class="st0" cx="55.8" cy="76.5" r="0.8"/>
	<line id="XMLID_1087_" class="st3" x1="58.7" y1="69.4" x2="71.2" y2="69.4"/>
	<line id="XMLID_1085_" class="st0" x1="58.7" y1="73" x2="71.2" y2="73"/>
	<line id="XMLID_1083_" class="st0" x1="58.7" y1="76.7" x2="71.2" y2="76.7"/>
	<path id="XMLID_1110_" class="st0" d="M86.7,69.2H34.6c-1.2,0-2.1-0.9-2.1-2.1V3.2c0-1.2,0.9-2.1,2.1-2.1h52.2
		c1.2,0,2.1,0.9,2.1,2.1v63.9C88.8,68.2,87.9,69.2,86.7,69.2z"/>
	<polyline id="XMLID_1106_" class="st0" points="57.6,21 43.1,21 43.1,12.2 	"/>
	<polyline id="XMLID_1102_" class="st0" points="43.1,21 46.7,17.2 50.7,19.1 56.2,13.8 	"/>
	<path id="XMLID_1101_" class="st4" d="M72.1,9.7c-0.1,0-0.1,0-0.2,0v1c0.1,0,0.1,0,0.2,0c2.8,0,5,2.2,5,5s-2.2,5-5,5s-5-2.2-5-5
		c0-0.1,0-0.1,0-0.2h-1c0,0.1,0,0.1,0,0.2c0,3.3,2.7,6,6,6s6-2.7,6-6S75.4,9.7,72.1,9.7z"/>
	<path id="XMLID_1098_" class="st5" d="M72,21.7c-3.3,0-6-2.7-6-6s2.7-6,6-6s6,2.7,6,6S75.3,21.7,72,21.7z M72.1,10.7
		c-2.8,0-5,2.2-5,5s2.2,5,5,5s5-2.2,5-5S74.8,10.7,72.1,10.7z"/>
	<circle id="XMLID_1096_" class="st6" cx="69" cy="55.6" r="0.3"/>
	<polyline id="XMLID_1082_" class="st0" points="80.7,59 65.8,59 65.8,50.2 	"/>
	<circle id="XMLID_1081_" class="st6" cx="75.4" cy="55.5" r="0.3"/>
	<circle id="XMLID_1080_" class="st6" cx="74.2" cy="51.2" r="0.3"/>
	<circle id="XMLID_1079_" class="st6" cx="79.4" cy="51.9" r="0.3"/>
	<circle id="XMLID_1078_" class="st6" cx="77.8" cy="51.5" r="0.3"/>
	<circle id="XMLID_1077_" class="st6" cx="78.3" cy="53.1" r="0.3"/>
	<circle id="XMLID_1076_" class="st6" cx="76.3" cy="52.2" r="0.3"/>
	<circle id="XMLID_1075_" class="st6" cx="76" cy="54" r="0.3"/>
	<circle id="XMLID_1074_" class="st6" cx="74.6" cy="52.9" r="0.3"/>
	<circle id="XMLID_1073_" class="st6" cx="73.7" cy="54.5" r="0.3"/>
	<circle id="XMLID_1072_" class="st6" cx="72.8" cy="53.1" r="0.3"/>
	<circle id="XMLID_1071_" class="st6" cx="71.9" cy="54.5" r="0.3"/>
	<circle id="XMLID_1070_" class="st6" cx="70.8" cy="56.1" r="0.3"/>
	<circle id="XMLID_1068_" class="st6" cx="72.3" cy="56.2" r="0.3"/>
	<circle id="XMLID_1067_" class="st6" cx="69.9" cy="54.5" r="0.3"/>
	<circle id="XMLID_1065_" class="st6" cx="68.3" cy="54.2" r="0.3"/>
	<circle id="XMLID_1030_" class="st0" cx="72.1" cy="35.1" r="5.8"/>
	<path id="XMLID_1126_" class="st0" d="M72,35.1v-5.8c-3.2,0-5.7,2.6-5.7,5.8c0,3.2,2.6,5.8,5.8,5.8c3.2,0,5.7-2.6,5.8-5.7H72z"/>
	<path id="XMLID_1127_" class="st0" d="M66.3,35.1c0,3.2,2.6,5.7,5.8,5.7s5.7-2.6,5.8-5.7H66.3z"/>
	<path id="XMLID_968_" class="st0" d="M55.4,95.9H3.3c-1.2,0-2.1-0.9-2.1-2.1V29.9c0-1.2,0.9-2.1,2.1-2.1h52.2
		c1.2,0,2.1,0.9,2.1,2.1v63.9C57.6,94.9,56.6,95.9,55.4,95.9z"/>
	<circle id="XMLID_967_" class="st0" cx="28.7" cy="46.3" r="5.4"/>
	<path id="XMLID_1036_" class="st7" d="M34.1,58.1c0.1-0.3,0.1-0.6,0.1-1c0-3-2.4-5.4-5.4-5.4s-5.4,2.4-5.4,5.4c0,0.3,0,0.6,0.1,1
		H34.1z"/>
	<path id="XMLID_966_" class="st0" d="M34.1,58.1c0.1-0.3,0.1-0.6,0.1-1c0-3-2.4-5.4-5.4-5.4s-5.4,2.4-5.4,5.4c0,0.3,0,0.6,0.1,1
		H34.1z"/>
	<g id="XMLID_965_">
		<path class="st8" d="M30.2,57.6c-0.5-0.5-0.7-1.1-0.7-1.8c0-0.7,0.3-1.3,0.8-1.7c0.4-0.4,1-0.6,1.6-0.6c1,0,1.8,0.6,2.2,1.5
			c0.1,0.2,0.2,0.3,0.4,0.3c0,0,0,0,0,0c0.2,0,0.4-0.1,0.4-0.3c0.4-0.8,1.2-1.3,2.1-1.3c0.6,0,1.3,0.3,1.7,0.7
			c0.5,0.5,0.7,1.1,0.6,1.8c0,0.7-0.4,1.3-0.9,1.7l-4.3,3.5L30.2,57.6z"/>
		<g>
			<path class="st6" d="M31.9,54.1c0.8,0,1.5,0.5,1.7,1.2c0.1,0.4,0.5,0.6,0.9,0.6c0,0,0,0,0,0c0.4,0,0.7-0.2,0.9-0.5
				c0.3-0.6,1-1,1.7-1c0.4,0,0.9,0.1,1.3,0.6c0.4,0.4,0.5,0.9,0.5,1.4c0,0.5-0.3,1-0.7,1.3l-4,3.2l-3.7-3.6
				c-0.4-0.4-0.6-0.9-0.6-1.4c0-0.5,0.2-1,0.6-1.4C31.1,54.1,31.5,54.1,31.9,54.1L31.9,54.1 M31.9,53.1c-0.7,0-1.3,0.2-1.9,0.7
				c-1.2,1.1-1.3,3-0.1,4.2l4.3,4.2l0,0l0,0l4.7-3.8c1.3-1,1.4-3,0.3-4.2c-0.6-0.6-1.3-0.9-2.1-0.9c-1,0-2.1,0.6-2.6,1.6
				C34.1,53.7,33,53.1,31.9,53.1L31.9,53.1z"/>
		</g>
	</g>
	<line id="XMLID_1040_" class="st0" x1="19.2" y1="70.8" x2="41" y2="70.8"/>
	<line id="XMLID_959_" class="st0" x1="23.2" y1="75.3" x2="37" y2="75.3"/>
</g>
</svg>
