<?xml version="1.0" encoding="utf-8"?>
<!-- Generator: Adobe Illustrator 19.1.0, SVG Export Plug-In . SVG Version: 6.00 Build 0)  -->
<svg version="1.1" id="Layer_1" xmlns="http://www.w3.org/2000/svg" xmlns:xlink="http://www.w3.org/1999/xlink" x="0px" y="0px"
	 viewBox="0 0 100 63" style="enable-background:new 0 0 100 63;" xml:space="preserve">
<style type="text/css">
	.st0{fill:#8597A5;stroke:#66727F;stroke-miterlimit:10;}
	.st1{fill:none;stroke:#909CAC;stroke-miterlimit:10;}
	.st2{fill:#AEBFD0;stroke:#909CAC;stroke-miterlimit:10;}
</style>
<circle id="XMLID_945_" class="st0" cx="31.2" cy="31.5" r="30.7"/>
<circle id="XMLID_944_" class="st1" cx="68.7" cy="31.1" r="30.7"/>
<path id="XMLID_943_" class="st2" d="M49.6,7.2c0,0-11.8,7.3-12,25.5c-0.1,12.2,7.5,20.5,12,23.6c0.1,0,14.5-10.9,13.1-26
	C62.2,24,60.1,15.8,49.6,7.2z"/>
<line id="XMLID_942_" class="st1" x1="37.8" y1="37.5" x2="66.7" y2="61.6"/>
<line id="XMLID_941_" class="st1" x1="70.5" y1="0.4" x2="98.3" y2="23.6"/>
<line id="XMLID_940_" class="st1" x1="55.1" y1="3.9" x2="98.3" y2="39.6"/>
<line id="XMLID_939_" class="st1" x1="61" y1="1.2" x2="99.3" y2="32.8"/>
<line id="XMLID_938_" class="st1" x1="39" y1="22.5" x2="82.4" y2="58.5"/>
<line id="XMLID_937_" class="st1" x1="45.2" y1="11.6" x2="92.6" y2="51"/>
<line id="XMLID_936_" class="st1" x1="95.6" y1="45.4" x2="49.3" y2="7"/>
<line id="XMLID_935_" class="st1" x1="37.7" y1="29" x2="75.9" y2="61.1"/>
<line id="XMLID_730_" class="st1" x1="41.8" y1="16.8" x2="88" y2="55.3"/>
</svg>
