<?xml version="1.0" encoding="utf-8"?>
<!-- Generator: Adobe Illustrator 19.1.0, SVG Export Plug-In . SVG Version: 6.00 Build 0)  -->
<svg version="1.1" id="Layer_1" xmlns="http://www.w3.org/2000/svg" xmlns:xlink="http://www.w3.org/1999/xlink" x="0px" y="0px"
	 viewBox="0 0 72 72" style="enable-background:new 0 0 72 72;" xml:space="preserve">
<style type="text/css">
	.st0{fill:#455663;stroke:#33404D;stroke-miterlimit:10;}
	.st1{fill:none;stroke:#33404D;stroke-miterlimit:10;}
</style>
<path id="XMLID_102_" class="st0" d="M25.6,57.2l-9.5,12.2l-6.9-5l9.3-12C18.5,52.4,25.8,57.2,25.6,57.2z"/>
<polygon id="XMLID_101_" class="st0" points="5.2,54.7 30.4,40.8 27.4,70.2 20.3,56.8 "/>
<path id="XMLID_100_" class="st1" d="M36,0.5C16.4,0.5,0.5,16.4,0.5,36c0,4.9,1,9.5,2.8,13.8L13,45c-0.8-2.4-1-6.3-1-8.9
	c0-13.2,10.8-24,24-24s24,10.8,24,24c0,13.1-12.4,24-25.6,24.1l-0.5,11.3c0.7,0,1.4,0.1,2.1,0.1c19.6,0,35.5-15.9,35.5-35.5
	S55.6,0.5,36,0.5z"/>
</svg>
