<?xml version="1.0" encoding="utf-8"?>
<!-- Generator: Adobe Illustrator 19.1.0, SVG Export Plug-In . SVG Version: 6.00 Build 0)  -->
<svg version="1.1" id="Layer_1" xmlns="http://www.w3.org/2000/svg" xmlns:xlink="http://www.w3.org/1999/xlink" x="0px" y="0px"
	 viewBox="0 0 100 63" style="enable-background:new 0 0 100 63;" xml:space="preserve">
<style type="text/css">
	.st0{fill:#455663;stroke:#33404D;stroke-miterlimit:10;}
	.st1{fill:none;stroke:#33404D;stroke-miterlimit:10;}
	.st2{fill:#51687A;stroke:#33404D;stroke-miterlimit:10;}
	.st3{fill:#FFFFFF;stroke:#33404D;stroke-miterlimit:10;}
</style>
<g id="XMLID_725_">
	<circle id="XMLID_711_" class="st0" cx="31.3" cy="31.5" r="30.6"/>
	<circle id="XMLID_710_" class="st1" cx="68.6" cy="31.1" r="30.6"/>
	<path id="XMLID_709_" class="st2" d="M49.6,7.2c0,0-11.8,7.3-11.9,25.4c-0.1,12.1,7.5,20.4,12,23.5c0.1,0,14.5-10.9,13.1-25.9
		C62.2,24,60.1,15.8,49.6,7.2z"/>
	<line id="XMLID_708_" class="st3" x1="37.9" y1="37.4" x2="66.6" y2="61.5"/>
	<line id="XMLID_707_" class="st3" x1="70.5" y1="0.5" x2="98.2" y2="23.5"/>
	<line id="XMLID_706_" class="st3" x1="55.2" y1="3.9" x2="98.2" y2="39.6"/>
	<line id="XMLID_705_" class="st3" x1="61" y1="1.3" x2="99.2" y2="32.8"/>
	<line id="XMLID_704_" class="st3" x1="39" y1="22.5" x2="82.3" y2="58.4"/>
	<line id="XMLID_700_" class="st3" x1="45.2" y1="11.6" x2="92.5" y2="50.9"/>
	<line id="XMLID_699_" class="st3" x1="95.5" y1="45.3" x2="49.3" y2="7"/>
	<line id="XMLID_5_" class="st3" x1="37.8" y1="29" x2="75.9" y2="61"/>
	<line id="XMLID_2_" class="st3" x1="41.8" y1="16.8" x2="87.9" y2="55.1"/>
</g>
</svg>
