<?xml version="1.0" encoding="utf-8"?>
<!-- Generator: Adobe Illustrator 19.1.0, SVG Export Plug-In . SVG Version: 6.00 Build 0)  -->
<svg version="1.1" id="Layer_1" xmlns="http://www.w3.org/2000/svg" xmlns:xlink="http://www.w3.org/1999/xlink" x="0px" y="0px"
	 viewBox="0 0 72 72" style="enable-background:new 0 0 72 72;" xml:space="preserve">
<style type="text/css">
	.st0{fill:#AEBECC;stroke:#909CAC;stroke-miterlimit:10;}
</style>
<g id="XMLID_1_">
	<path id="XMLID_724_" class="st0" d="M26.2,56.7l-9.4,12.2L9.9,64l9.2-12C19.1,52,26.4,56.7,26.2,56.7z"/>
	<polygon id="XMLID_723_" class="st0" points="5.9,54.6 31.1,41.9 27.9,70 20.8,56.6 	"/>
	<path id="XMLID_722_" class="st0" d="M36,0.7C16.6,0.7,0.7,16.6,0.7,36c0,4.8,1,9.5,2.8,13.7l10.4-5c-0.8-2.4-1.7-6-1.7-8.7
		c0-13.1,10.7-23.8,23.8-23.8S59.8,22.9,59.8,36c0,13.1-10.1,23.8-24.9,24.1l-1,11.1c0.7,0,1.4,0.1,2,0.1
		c19.4,0,35.3-15.8,35.3-35.3S55.4,0.7,36,0.7z"/>
</g>
</svg>
