<?xml version="1.0" encoding="utf-8"?>
<!-- Generator: Adobe Illustrator 19.1.0, SVG Export Plug-In . SVG Version: 6.00 Build 0)  -->
<svg version="1.1" id="Layer_1" xmlns="http://www.w3.org/2000/svg" xmlns:xlink="http://www.w3.org/1999/xlink" x="0px" y="0px"
	 viewBox="0 0 103 50" style="enable-background:new 0 0 103 50;" xml:space="preserve">
<style type="text/css">
	.st0{fill:#FFFFFF;stroke:#222222;stroke-miterlimit:10;}
	.st1{fill:#FFFFFF;stroke:#222222;stroke-linecap:round;stroke-miterlimit:10;}
</style>
<line class="st0" x1="0.7" y1="46.5" x2="102.3" y2="46.5"/>
<path class="st0" d="M13.9,37.1H9.5c-0.2,0-0.4-0.2-0.4-0.4V10.2c0-0.2,0.2-0.4,0.4-0.4h4.4c0.2,0,0.4,0.2,0.4,0.4v26.5
	C14.3,37,14.1,37.1,13.9,37.1z"/>
<path class="st0" d="M25.5,37.1h-4.4c-0.2,0-0.4-0.2-0.4-0.4V16.2c0-0.2,0.2-0.4,0.4-0.4h4.4c0.2,0,0.4,0.2,0.4,0.4v20.5
	C25.9,37,25.7,37.1,25.5,37.1z"/>
<path class="st0" d="M37.1,37.1h-4.4c-0.2,0-0.4-0.2-0.4-0.4V16.2c0-0.2,0.2-0.4,0.4-0.4h4.4c0.2,0,0.4,0.2,0.4,0.4v20.5
	C37.4,37,37.3,37.1,37.1,37.1z"/>
<path class="st0" d="M48.6,37.1h-4.4c-0.2,0-0.4-0.2-0.4-0.4V23.6c0-0.2,0.2-0.4,0.4-0.4h4.4c0.2,0,0.4,0.2,0.4,0.4v13.1
	C49,37,48.8,37.1,48.6,37.1z"/>
<path class="st0" d="M60.2,37.1h-4.4c-0.2,0-0.4-0.2-0.4-0.4v-5.4c0-0.2,0.2-0.4,0.4-0.4h4.4c0.2,0,0.4,0.2,0.4,0.4v5.4
	C60.6,37,60.4,37.1,60.2,37.1z"/>
<path class="st0" d="M71.8,37.1h-4.4c-0.2,0-0.4-0.2-0.4-0.4v-5.4c0-0.2,0.2-0.4,0.4-0.4h4.4c0.2,0,0.4,0.2,0.4,0.4v5.4
	C72.2,37,72,37.1,71.8,37.1z"/>
<path class="st0" d="M83.3,37.1h-4.4c-0.2,0-0.4-0.2-0.4-0.4V10.2c0-0.2,0.2-0.4,0.4-0.4h4.4c0.2,0,0.4,0.2,0.4,0.4v26.5
	C83.7,37,83.6,37.1,83.3,37.1z"/>
<path class="st0" d="M94.9,37.1h-4.4c-0.2,0-0.4-0.2-0.4-0.4V1c0-0.2,0.2-0.4,0.4-0.4h4.4c0.2,0,0.4,0.2,0.4,0.4v35.7
	C95.3,37,95.1,37.1,94.9,37.1z"/>
<line class="st0" x1="9.1" y1="14.6" x2="14.3" y2="11.5"/>
<line class="st0" x1="9.1" y1="18.8" x2="14.3" y2="15.7"/>
<line class="st0" x1="9.1" y1="22.9" x2="14.3" y2="19.8"/>
<line class="st0" x1="9.1" y1="27.1" x2="14.3" y2="24"/>
<line class="st0" x1="9.1" y1="31.3" x2="14.3" y2="28.2"/>
<line class="st0" x1="9.1" y1="35.5" x2="14.3" y2="32.4"/>
<line class="st0" x1="32.3" y1="20" x2="37.4" y2="16.9"/>
<line class="st0" x1="32.3" y1="24.2" x2="37.4" y2="21.1"/>
<line class="st0" x1="32.3" y1="28.4" x2="37.4" y2="25.2"/>
<line class="st0" x1="32.3" y1="32.5" x2="37.4" y2="29.4"/>
<line class="st0" x1="32.3" y1="36.7" x2="37.4" y2="33.6"/>
<line class="st0" x1="55.4" y1="35.4" x2="60.6" y2="32.3"/>
<line class="st0" x1="78.6" y1="15.1" x2="83.7" y2="12"/>
<line class="st0" x1="78.6" y1="19.3" x2="83.7" y2="16.2"/>
<line class="st0" x1="78.6" y1="23.5" x2="83.7" y2="20.4"/>
<line class="st0" x1="78.6" y1="27.6" x2="83.7" y2="24.5"/>
<line class="st0" x1="78.6" y1="31.8" x2="83.7" y2="28.7"/>
<line class="st0" x1="78.6" y1="36" x2="83.7" y2="32.9"/>
<line class="st1" x1="0.7" y1="44.9" x2="0.7" y2="49.4"/>
<line class="st1" x1="17.6" y1="45.7" x2="17.6" y2="48.5"/>
<line class="st1" x1="52.2" y1="45.7" x2="52.2" y2="48.5"/>
<line class="st1" x1="86.8" y1="45.7" x2="86.8" y2="48.5"/>
<line class="st1" x1="35.2" y1="44.9" x2="35.2" y2="49.3"/>
<line class="st1" x1="69.4" y1="44.9" x2="69.4" y2="49.3"/>
<line class="st1" x1="102.3" y1="44.9" x2="102.3" y2="49.3"/>
</svg>
