<?xml version="1.0" encoding="utf-8"?>
<!-- Generator: Adobe Illustrator 19.1.0, SVG Export Plug-In . SVG Version: 6.00 Build 0)  -->
<svg version="1.1" id="Layer_1" xmlns="http://www.w3.org/2000/svg" xmlns:xlink="http://www.w3.org/1999/xlink" x="0px" y="0px"
	 viewBox="0 0 62 55" style="enable-background:new 0 0 62 55;" xml:space="preserve">
<style type="text/css">
	.st0{fill:none;stroke:#222222;stroke-linecap:round;stroke-miterlimit:10;}
	.st1{fill:#FFFFFF;stroke:#222222;stroke-miterlimit:10;}
</style>
<g>
	<path class="st0" d="M6.7,52.1L1,49c-0.3-0.2-0.5-0.4-0.5-0.7V0.6"/>
	<path class="st0" d="M18,0.6v47.6c0,0.3-0.2,0.6-0.5,0.7l-5.7,3.1"/>
	<circle id="XMLID_21_" class="st1" cx="9.3" cy="6.4" r="3"/>
	<circle id="XMLID_20_" class="st1" cx="9.3" cy="44.3" r="3"/>
	<circle id="XMLID_19_" class="st1" cx="9.3" cy="34.8" r="3"/>
	<circle id="XMLID_18_" class="st1" cx="9.3" cy="25.3" r="3"/>
	<path class="st0" d="M28.5,28.1L22.7,25c-0.3-0.2-0.5-0.4-0.5-0.7V0.6"/>
	<path class="st0" d="M39.8,0.6v23.6c0,0.3-0.2,0.6-0.5,0.7l-5.7,3.1"/>
	<circle id="XMLID_22_" class="st1" cx="31" cy="21.3" r="3"/>
	<circle id="XMLID_16_" class="st1" cx="31" cy="38.3" r="3"/>
	<path class="st0" d="M50.2,42.1L44.5,39c-0.3-0.2-0.5-0.4-0.5-0.7V0.6"/>
	<path class="st0" d="M61.5,0.6v37.6c0,0.3-0.2,0.6-0.5,0.7l-5.7,3.1"/>
	<circle id="XMLID_26_" class="st1" cx="52.7" cy="34.3" r="3"/>
	<circle id="XMLID_17_" class="st1" cx="52.7" cy="51.3" r="3"/>
	<circle id="XMLID_25_" class="st1" cx="52.7" cy="24.8" r="3"/>
</g>
</svg>
