<?xml version="1.0" encoding="utf-8"?>
<!-- Generator: Adobe Illustrator 19.1.0, SVG Export Plug-In . SVG Version: 6.00 Build 0)  -->
<svg version="1.1" id="Layer_1" xmlns="http://www.w3.org/2000/svg" xmlns:xlink="http://www.w3.org/1999/xlink" x="0px" y="0px"
	 viewBox="0 0 91 55" style="enable-background:new 0 0 91 55;" xml:space="preserve">
<style type="text/css">
	.st0{fill:#FFFFFF;}
	.st1{fill:#FFFFFF;stroke:#222222;stroke-miterlimit:10;}
	.st2{fill:#FFFFFF;stroke:#222222;stroke-linecap:round;stroke-miterlimit:10;}
	.st3{fill:none;stroke:#222222;stroke-linecap:round;stroke-miterlimit:10;}
</style>
<path class="st0" d="M16.5,36.9c0,0-15.3-1.3-15.7,6.2S0.2,53,11.1,54C22,55,30.5,53.4,31,48.3s1.5-9.2-4.5-9.9S16.5,36.9,16.5,36.9
	z"/>
<g>
	<path class="st1" d="M0.8,49.5C0.7,49.5,0.7,49.5,0.8,49.5c0,2.7,6.8,4.8,15.1,4.8S31,52.1,31,49.5c0,0,0,0,0,0"/>
	<ellipse class="st1" cx="15.9" cy="41.7" rx="15.1" ry="4.8"/>
	<line class="st1" x1="31" y1="41.7" x2="31" y2="49.5"/>
	<line class="st1" x1="0.7" y1="41.7" x2="0.7" y2="49.5"/>
</g>
<g>
	<path class="st1" d="M39.3,13.1C39.3,13.1,39.3,13.2,39.3,13.1c0,2.7-6.8,4.8-15.1,4.8S9,15.8,9,13.2c0,0,0,0,0,0"/>
	<ellipse class="st1" cx="24.2" cy="5.4" rx="15.1" ry="4.8"/>
	<line class="st1" x1="39.3" y1="5.4" x2="39.3" y2="13.2"/>
	<line class="st1" x1="9" y1="5.4" x2="9" y2="13.2"/>
</g>
<path class="st2" d="M86,3.7L90.3,8c0.2,0.2,0.2,0.5,0,0.6L85.9,13"/>
<line class="st2" x1="46.5" y1="8.3" x2="89.9" y2="8.3"/>
<path class="st2" d="M72.6,27.3l4.3,4.3c0.2,0.2,0.2,0.5,0,0.6l-4.4,4.4"/>
<line class="st2" x1="43" y1="32" x2="76.7" y2="32"/>
<path class="st2" d="M60.6,41.9l4.3,4.3c0.2,0.2,0.2,0.5,0,0.6l-4.4,4.4"/>
<line class="st2" x1="35" y1="46.5" x2="64.5" y2="46.5"/>
<line class="st3" x1="5.4" y1="42.4" x2="9.5" y2="39.1"/>
<line class="st3" x1="10.1" y1="42.4" x2="14.1" y2="39.1"/>
<line class="st3" x1="14.7" y1="42.4" x2="18.8" y2="39.1"/>
<line class="st3" x1="19.6" y1="41.9" x2="23.6" y2="38.6"/>
<path class="st0" d="M19.2,22.4c0,0-15.3-1.3-15.7,6.2s-0.6,9.9,10.4,10.9c10.9,1,19.4-0.6,19.9-5.8c0.5-5.1,1.5-9.2-4.5-9.9
	C23.2,23,19.2,22.4,19.2,22.4z"/>
<g>
	<path class="st1" d="M3.5,34.9C3.5,34.9,3.5,34.9,3.5,34.9c0,2.7,6.8,4.8,15.1,4.8s15.1-2.1,15.1-4.8c0,0,0,0,0,0"/>
	<ellipse class="st1" cx="18.6" cy="27.2" rx="15.1" ry="4.8"/>
	<line class="st1" x1="33.8" y1="27.2" x2="33.8" y2="34.9"/>
	<line class="st1" x1="3.5" y1="27.2" x2="3.5" y2="34.9"/>
</g>
</svg>
