<?xml version="1.0" encoding="utf-8"?>
<!-- Generator: Adobe Illustrator 19.1.0, SVG Export Plug-In . SVG Version: 6.00 Build 0)  -->
<svg version="1.1" id="Layer_1" xmlns="http://www.w3.org/2000/svg" xmlns:xlink="http://www.w3.org/1999/xlink" x="0px" y="0px"
	 viewBox="0 0 63 54" style="enable-background:new 0 0 63 54;" xml:space="preserve">
<style type="text/css">
	.st0{fill:none;stroke:#222222;stroke-linecap:round;stroke-miterlimit:10;}
</style>
<g>
	<path class="st0" d="M20.7,27.6l-20,24c-0.5,0.7-0.1,1.6,0.8,1.6l2.5,0c0.6,0,1.3-0.3,1.7-0.8l21.4-24.9c0.3-0.4,0.3-0.9,0-1.3
		L6.2,1C6,0.8,5.7,0.7,5.4,0.7l-3.9,0c-0.9,0-1.3,1-0.8,1.6l19.9,24C21,26.7,21,27.3,20.7,27.6z"/>
</g>
<g>
	<path class="st0" d="M34.3,27.6l-20,24c-0.5,0.7-0.1,1.6,0.8,1.6l2.5,0c0.6,0,1.3-0.3,1.7-0.8l21.4-24.9c0.3-0.4,0.3-0.9,0-1.3
		L19.8,1c-0.2-0.2-0.5-0.4-0.8-0.4l-3.9,0c-0.9,0-1.3,1-0.8,1.6l19.9,24C34.6,26.7,34.6,27.3,34.3,27.6z"/>
</g>
<g>
	<path class="st0" d="M55.3,27.6l-20,24c-0.5,0.7-0.1,1.6,0.8,1.6l2.5,0c0.6,0,1.3-0.3,1.7-0.8l21.4-24.9c0.3-0.4,0.3-0.9,0-1.3
		L40.8,1c-0.2-0.2-0.5-0.4-0.8-0.4l-3.9,0c-0.9,0-1.3,1-0.8,1.6l19.9,24C55.6,26.7,55.6,27.3,55.3,27.6z"/>
</g>
</svg>
