<?xml version="1.0" encoding="utf-8"?>
<!-- Generator: Adobe Illustrator 19.1.0, SVG Export Plug-In . SVG Version: 6.00 Build 0)  -->
<svg version="1.1" id="Layer_1" xmlns="http://www.w3.org/2000/svg" xmlns:xlink="http://www.w3.org/1999/xlink" x="0px" y="0px"
	 viewBox="0 0 63 39" style="enable-background:new 0 0 63 39;" xml:space="preserve">
<style type="text/css">
	.st0{fill:#CCCCCC;stroke:#ABABAB;stroke-miterlimit:10;}
	.st1{fill:#FFFFFF;stroke:#ABABAB;stroke-miterlimit:10;}
	.st2{fill:#EEEEEE;stroke:#ABABAB;stroke-miterlimit:10;}
</style>
<circle id="XMLID_981_" class="st0" cx="19.9" cy="19.6" r="18.8"/>
<circle id="XMLID_980_" class="st1" cx="42.9" cy="19.4" r="18.8"/>
<path id="XMLID_979_" class="st2" d="M31.2,4.8c0,0-7.2,4.5-7.3,15.6c-0.1,7.4,5.2,12.4,8,14.4c0.1,0,7.6-7.4,7.4-15.8
	C39.2,15,37.6,10,31.2,4.8z"/>
<line id="XMLID_978_" class="st1" x1="24.7" y1="24" x2="41.6" y2="38.1"/>
<line id="XMLID_977_" class="st1" x1="44" y1="0.7" x2="61" y2="14.8"/>
<line id="XMLID_976_" class="st1" x1="34.6" y1="2.8" x2="61" y2="24.6"/>
<line id="XMLID_975_" class="st1" x1="38.2" y1="1.2" x2="61.6" y2="20.4"/>
<line id="XMLID_974_" class="st1" x1="24.7" y1="14.2" x2="51.2" y2="36.2"/>
<line id="XMLID_973_" class="st1" x1="28.5" y1="7.5" x2="57.5" y2="31.6"/>
<line id="XMLID_972_" class="st1" x1="59.3" y1="28.2" x2="31.1" y2="4.7"/>
<line id="XMLID_971_" class="st1" x1="24" y1="18.2" x2="47.3" y2="37.7"/>
<line id="XMLID_970_" class="st1" x1="26.5" y1="10.7" x2="54.7" y2="34.2"/>
</svg>
