<?xml version="1.0" encoding="utf-8"?>
<!-- Generator: Adobe Illustrator 19.1.0, SVG Export Plug-In . SVG Version: 6.00 Build 0)  -->
<svg version="1.1" id="Layer_1" xmlns="http://www.w3.org/2000/svg" xmlns:xlink="http://www.w3.org/1999/xlink" x="0px" y="0px"
	 viewBox="0 0 63 39" style="enable-background:new 0 0 63 39;" xml:space="preserve">
<style type="text/css">
	.st0{fill:#FDCDAC;stroke:#F37A21;stroke-miterlimit:10;}
	.st1{fill:#FFFFFF;stroke:#F37A21;stroke-miterlimit:10;}
</style>
<g id="XMLID_733_">
	<circle id="XMLID_18_" class="st0" cx="20.1" cy="19.6" r="18.8"/>
	<circle id="XMLID_17_" class="st1" cx="43.1" cy="19.4" r="18.8"/>
	<path id="XMLID_11_" class="st0" d="M31.4,4.8c0,0-7.2,4.5-7.3,15.6c-0.1,7.4,5.2,12.5,8,14.4c0.1,0,7.6-7.4,7.4-15.9
		C39.4,15,37.8,10,31.4,4.8z"/>
	<line id="XMLID_20_" class="st1" x1="24.8" y1="24" x2="41.8" y2="38.1"/>
	<line id="XMLID_21_" class="st1" x1="44.2" y1="0.7" x2="61.2" y2="14.8"/>
	<line id="XMLID_23_" class="st1" x1="34.8" y1="2.7" x2="61.2" y2="24.6"/>
	<line id="XMLID_26_" class="st1" x1="38.4" y1="1.1" x2="61.8" y2="20.5"/>
	<line id="XMLID_24_" class="st1" x1="24.9" y1="14.2" x2="51.5" y2="36.2"/>
	<line id="XMLID_22_" class="st1" x1="28.7" y1="7.5" x2="57.7" y2="31.6"/>
	<line id="XMLID_25_" class="st1" x1="59.5" y1="28.2" x2="31.2" y2="4.6"/>
	<line id="XMLID_28_" class="st1" x1="24.1" y1="18.2" x2="47.5" y2="37.8"/>
	<line id="XMLID_27_" class="st1" x1="26.6" y1="10.7" x2="54.9" y2="34.2"/>
</g>
</svg>
