<?xml version="1.0" encoding="utf-8"?>
<!-- Generator: Adobe Illustrator 19.1.0, SVG Export Plug-In . SVG Version: 6.00 Build 0)  -->
<svg version="1.1" id="Layer_1" xmlns="http://www.w3.org/2000/svg" xmlns:xlink="http://www.w3.org/1999/xlink" x="0px" y="0px"
	 viewBox="0 0 59 59" style="enable-background:new 0 0 59 59;" xml:space="preserve">
<style type="text/css">
	.st0{fill:none;stroke:#222222;stroke-linecap:round;stroke-miterlimit:10;}
</style>
<polygon class="st0" points="16.1,21.8 29.5,14.1 42.9,21.8 42.9,37.2 29.5,44.9 16.1,37.2 "/>
<g>
	<path class="st0" d="M50,50c5.2-5.2,8.5-12.5,8.5-20.5c0-5.3-1.5-10.3-4-14.6"/>
	<path class="st0" d="M9,9c-5.2,5.2-8.5,12.5-8.5,20.5c0,5.3,1.5,10.3,4,14.6"/>
	<path class="st0" d="M9,50c5.2,5.2,12.5,8.5,20.5,8.5c5.3,0,10.3-1.5,14.6-4"/>
	<path class="st0" d="M50,9c-5.2-5.2-12.5-8.5-20.5-8.5c-5.3,0-10.3,1.5-14.6,4"/>
	<polyline class="st0" points="46.5,9.6 50.5,9.6 50.5,5.9 	"/>
	<polyline class="st0" points="49,46.6 49.6,50.5 53.3,50 	"/>
	<polyline class="st0" points="12.6,49.8 8.7,49.5 8.4,53.2 	"/>
	<polyline class="st0" points="8.7,12.5 9.6,8.6 6,7.8 	"/>
	<line class="st0" x1="14" y1="3.2" x2="15.9" y2="5.8"/>
	<line class="st0" x1="3.3" y1="45.1" x2="6" y2="43.4"/>
	<line class="st0" x1="45" y1="55.9" x2="43.3" y2="53.2"/>
	<line class="st0" x1="55.7" y1="13.9" x2="53" y2="15.5"/>
</g>
</svg>
