<?xml version="1.0" encoding="utf-8"?>
<!-- Generator: Adobe Illustrator 19.1.0, SVG Export Plug-In . SVG Version: 6.00 Build 0)  -->
<svg version="1.1" id="Layer_1" xmlns="http://www.w3.org/2000/svg" xmlns:xlink="http://www.w3.org/1999/xlink" x="0px" y="0px"
	 viewBox="0 0 59 61" style="enable-background:new 0 0 59 61;" xml:space="preserve">
<style type="text/css">
	.st0{fill:#FFFFFF;stroke:#222222;stroke-miterlimit:10;}
	.st1{fill:none;stroke:#222222;stroke-width:0.75;stroke-linecap:round;stroke-linejoin:round;stroke-miterlimit:10;}
	.st2{fill:none;stroke:#222222;stroke-miterlimit:10;}
	.st3{fill:none;stroke:#222222;stroke-linecap:round;stroke-linejoin:round;stroke-miterlimit:10;}
</style>
<g>
	<g>
		<circle id="XMLID_1028_" class="st0" cx="9.3" cy="52" r="8"/>
		<g>
			<polyline id="XMLID_1027_" class="st1" points="6.1,53.2 6.2,54.7 9.2,56.3 12.4,54.8 12.4,53.2 			"/>
			<polygon id="XMLID_1016_" class="st1" points="8.1,52.4 6.9,50.3 8.1,48.3 10.5,48.3 11.7,50.3 10.5,52.4 			"/>
		</g>
	</g>
	<g>
		<circle id="XMLID_1031_" class="st0" cx="29.5" cy="52" r="8"/>
		<g>
			<polyline id="XMLID_1030_" class="st1" points="26.3,53.2 26.4,54.7 29.4,56.3 32.7,54.8 32.7,53.2 			"/>
			<polygon id="XMLID_1029_" class="st1" points="28.3,52.4 27.1,50.3 28.3,48.3 30.7,48.3 31.9,50.3 30.7,52.4 			"/>
		</g>
	</g>
	<g>
		<circle id="XMLID_1034_" class="st0" cx="49.7" cy="52" r="8"/>
		<g>
			<polyline id="XMLID_1033_" class="st1" points="46.6,53.2 46.6,54.7 49.6,56.3 52.9,54.8 52.9,53.2 			"/>
			<polygon id="XMLID_1032_" class="st1" points="48.5,52.4 47.4,50.3 48.5,48.3 50.9,48.3 52.1,50.3 50.9,52.4 			"/>
		</g>
	</g>
	<line class="st2" x1="29.2" y1="27.7" x2="29.2" y2="44.1"/>
	<line class="st2" x1="23.6" y1="24.3" x2="8.9" y2="44.1"/>
	<line class="st2" x1="34.3" y1="22.5" x2="49.9" y2="44.1"/>
	<g>
		<circle id="XMLID_1026_" class="st0" cx="29.5" cy="14.4" r="13.5"/>
		<g>
			<polyline id="XMLID_1025_" class="st3" points="24.3,16 24.4,18.4 29.3,21.1 34.7,18.6 34.7,16 			"/>
			<polygon id="XMLID_1024_" class="st3" points="27.5,14.6 25.6,11.2 27.5,7.8 31.5,7.8 33.4,11.2 31.5,14.6 			"/>
		</g>
	</g>
</g>
</svg>
