<?xml version="1.0" encoding="utf-8"?>
<!-- Generator: Adobe Illustrator 19.1.0, SVG Export Plug-In . SVG Version: 6.00 Build 0)  -->
<svg version="1.1" id="Layer_1" xmlns="http://www.w3.org/2000/svg" xmlns:xlink="http://www.w3.org/1999/xlink" x="0px" y="0px"
	 viewBox="0 0 64 64" style="enable-background:new 0 0 64 64;" xml:space="preserve">
<style type="text/css">
	.st0{fill:#FFFFFF;stroke:#222222;stroke-linecap:round;stroke-miterlimit:10;}
</style>
<g>
	<line class="st0" x1="7.4" y1="0.7" x2="7.4" y2="63.3"/>
	<line class="st0" x1="4.4" y1="0.7" x2="10.3" y2="0.7"/>
	<line class="st0" x1="5.6" y1="17" x2="9.2" y2="17"/>
	<line class="st0" x1="5.6" y1="47.8" x2="9.2" y2="47.8"/>
	<line class="st0" x1="4.4" y1="33.5" x2="10.3" y2="33.5"/>
	<line class="st0" x1="63.3" y1="56.8" x2="0.7" y2="56.8"/>
	<line class="st0" x1="63.3" y1="53.8" x2="63.3" y2="59.7"/>
	<line class="st0" x1="47" y1="55" x2="47" y2="58.6"/>
	<line class="st0" x1="16.2" y1="55" x2="16.2" y2="58.6"/>
	<line class="st0" x1="30.5" y1="53.8" x2="30.5" y2="59.7"/>
	<line class="st0" x1="20.8" y1="56.8" x2="45.7" y2="35.8"/>
	<line class="st0" x1="7.1" y1="56.8" x2="60.6" y2="13"/>
	<line class="st0" x1="33.8" y1="56.8" x2="61" y2="35.9"/>
	<circle class="st0" cx="45.7" cy="36.5" r="2.1"/>
	<circle class="st0" cx="32.7" cy="47.5" r="2.1"/>
	<circle class="st0" cx="61" cy="12.4" r="2.1"/>
	<circle class="st0" cx="35.3" cy="33.5" r="2.1"/>
	<circle class="st0" cx="61" cy="36.5" r="2.1"/>
</g>
</svg>
