<?xml version="1.0" encoding="utf-8"?>
<!-- Generator: Adobe Illustrator 19.1.0, SVG Export Plug-In . SVG Version: 6.00 Build 0)  -->
<svg version="1.1" id="Layer_1" xmlns="http://www.w3.org/2000/svg" xmlns:xlink="http://www.w3.org/1999/xlink" x="0px" y="0px"
	 viewBox="0 0 59 56" style="enable-background:new 0 0 59 56;" xml:space="preserve">
<style type="text/css">
	.st0{fill:#FFFFFF;stroke:#222222;stroke-miterlimit:10;}
	.st1{fill:#FFFFFF;stroke:#222222;stroke-linecap:round;stroke-linejoin:round;stroke-miterlimit:10;}
	.st2{fill:none;stroke:#222222;stroke-linecap:round;stroke-linejoin:round;stroke-miterlimit:10;}
	.st3{fill:#FFFFFF;}
</style>
<g>
	<g>
		<path id="XMLID_1002_" class="st0" d="M53,54.5H6c-2.5,0-4.6-2.1-4.6-4.6V30c0-2.5,2.1-4.6,4.6-4.6h47c2.5,0,4.6,2.1,4.6,4.6v19.9
			C57.6,52.4,55.5,54.5,53,54.5z"/>
		<line id="XMLID_1001_" class="st1" x1="35.5" y1="31.4" x2="51.8" y2="31.4"/>
		<line id="XMLID_1000_" class="st1" x1="35.5" y1="36.8" x2="51.8" y2="36.8"/>
		<line id="XMLID_999_" class="st1" x1="35.5" y1="42.1" x2="51.8" y2="42.1"/>
		<polyline id="XMLID_998_" class="st2" points="8,42.1 8.1,44.6 13.2,47.3 18.8,44.8 18.8,42.1 		"/>
		<polygon id="XMLID_997_" class="st2" points="11.3,40.6 9.3,37.1 11.3,33.6 15.4,33.6 17.5,37.1 15.4,40.6 		"/>
		<path id="XMLID_996_" class="st2" d="M38,49.3h-6.8c-0.7,0-1.2-0.5-1.2-1.2V48c0-0.7,0.5-1.2,1.2-1.2H38c0.7,0,1.2,0.5,1.2,1.2
			v0.2C39.2,48.8,38.7,49.3,38,49.3z"/>
		<path id="XMLID_995_" class="st2" d="M50.2,49.3h-6.8c-0.7,0-1.2-0.5-1.2-1.2V48c0-0.7,0.5-1.2,1.2-1.2h6.8c0.7,0,1.2,0.5,1.2,1.2
			v0.2C51.4,48.8,50.9,49.3,50.2,49.3z"/>
	</g>
	<g>
		<path class="st3" d="M44.9,16.9c0-8.5-6.9-15.4-15.4-15.4c-8.5,0-15.4,6.9-15.4,15.4c0,4.9,2.3,9.2,5.8,12l10.2,13.2l9.6-13.8
			C42.9,25.5,44.9,21.4,44.9,16.9z"/>
		<ellipse class="st1" cx="30" cy="39" rx="3.6" ry="1.2"/>
		<path class="st1" d="M42.3,17.7c0-7.1-5.7-12.8-12.8-12.8c-7.1,0-12.8,5.7-12.8,12.8c0,4.1,4.8,10,4.8,10l8.5,11l8-11.5
			C38.1,27.2,42.3,21.5,42.3,17.7z"/>
		<circle class="st1" cx="29.5" cy="18.1" r="5.3"/>
	</g>
</g>
</svg>
