<?xml version="1.0" encoding="utf-8"?>
<!-- Generator: Adobe Illustrator 19.1.0, SVG Export Plug-In . SVG Version: 6.00 Build 0)  -->
<svg version="1.1" id="Layer_1" xmlns="http://www.w3.org/2000/svg" xmlns:xlink="http://www.w3.org/1999/xlink" x="0px" y="0px"
	 viewBox="0 0 74 58" style="enable-background:new 0 0 74 58;" xml:space="preserve">
<style type="text/css">
	.st0{fill:#FFFFFF;stroke:#222222;stroke-linecap:round;stroke-miterlimit:10;}
	.st1{fill:none;stroke:#222222;stroke-linecap:round;stroke-miterlimit:10;}
	.st2{fill:#222222;}
</style>
<line class="st0" x1="30.8" y1="4.7" x2="45.8" y2="15.1"/>
<polyline class="st1" points="33.2,3.4 33.4,6.5 30.4,7.4 "/>
<polyline class="st1" points="46.3,12.5 43.3,13.4 43.5,16.5 "/>
<line class="st0" x1="45.9" y1="4.7" x2="30.9" y2="15.1"/>
<polyline class="st1" points="43.5,3.4 43.3,6.5 46.3,7.4 "/>
<polyline class="st1" points="30.4,12.5 33.4,13.4 33.2,16.5 "/>
<line class="st0" x1="38.4" y1="0.7" x2="38.4" y2="19.1"/>
<polyline class="st1" points="35.9,1.9 38.4,3.9 40.8,1.9 "/>
<polyline class="st1" points="35.9,17.9 38.4,16 40.8,17.9 "/>
<circle class="st0" cx="12.6" cy="30.5" r="5.6"/>
<line class="st0" x1="18.6" y1="30.6" x2="24.4" y2="30.6"/>
<line class="st0" x1="0.8" y1="30.6" x2="6.7" y2="30.6"/>
<line class="st0" x1="12.6" y1="36.5" x2="12.6" y2="42.4"/>
<line class="st0" x1="12.6" y1="18.7" x2="12.6" y2="24.6"/>
<line class="st0" x1="8.4" y1="34.8" x2="4.3" y2="38.9"/>
<line class="st0" x1="21" y1="22.2" x2="16.8" y2="26.3"/>
<line class="st0" x1="8.4" y1="26.3" x2="4.3" y2="22.2"/>
<line class="st0" x1="21" y1="38.9" x2="16.8" y2="34.8"/>
<path class="st0" d="M69,25.5c-0.2,0-0.3,0-0.5,0c-0.6-2.4-2.8-4.2-5.4-4.2c-2.4,0-4.9,2.1-4.3,4.4c-2.6-1-5.1,1.2-5.1,3.6
	c-0.1,0-0.2,0-0.2,0c-1.3,0-2.3,1-2.3,2.3c0,1.3,1,2.3,2.3,2.3c0.8,0,3.7,0,4.7,0c1.4,0,9.4,0,10.9,0c2.3,0,4.2-1.9,4.2-4.2
	S71.3,25.5,69,25.5z"/>
<line class="st0" x1="65.7" y1="38.5" x2="62.2" y2="33.9"/>
<line class="st0" x1="64.5" y1="42.2" x2="58" y2="33.9"/>
<line class="st0" x1="71.5" y1="40.9" x2="66.3" y2="33.9"/>
<g>
	<line class="st0" x1="37.2" y1="29.2" x2="12.3" y2="4.4"/>
	<line class="st0" x1="39.9" y1="31.9" x2="64.8" y2="56.9"/>
	<line class="st0" x1="64.8" y1="4.4" x2="39.9" y2="29.3"/>
	<line class="st0" x1="12.3" y1="56.9" x2="37.2" y2="32"/>
</g>
<g>
	<path class="st2" d="M38.4,57.3v-1.9c-1.1,0-2.2-0.4-2.9-0.8l0.5-1.3c0.7,0.5,1.7,0.8,2.7,0.8c1.3,0,2.2-0.8,2.2-1.8
		c0-1-0.7-1.7-2.1-2.2c-1.9-0.8-3.1-1.6-3.1-3.3c0-1.6,1.1-2.8,2.8-3v-1.9h1.2v1.8c1.1,0,1.9,0.3,2.5,0.7l-0.5,1.2
		c-0.4-0.2-1.2-0.6-2.4-0.6c-1.5,0-2,0.9-2,1.6c0,1,0.7,1.5,2.3,2.1c1.9,0.8,2.9,1.8,2.9,3.5c0,1.5-1,2.9-3,3.2v2H38.4z"/>
</g>
</svg>
