<?xml version="1.0" encoding="utf-8"?>
<!-- Generator: Adobe Illustrator 19.1.0, SVG Export Plug-In . SVG Version: 6.00 Build 0)  -->
<svg version="1.1" id="Layer_1" xmlns="http://www.w3.org/2000/svg" xmlns:xlink="http://www.w3.org/1999/xlink" x="0px" y="0px"
	 viewBox="0 0 66 67" style="enable-background:new 0 0 66 67;" xml:space="preserve">
<style type="text/css">
	.st0{fill:none;stroke:#222222;stroke-linecap:round;stroke-miterlimit:10;}
	.st1{fill:#FFFFFF;stroke:#222222;stroke-linecap:round;stroke-miterlimit:10;}
</style>
<polygon class="st0" points="40.7,19 45.8,16.1 50.9,19 50.9,24.9 45.8,27.9 40.7,24.9 "/>
<polygon class="st0" points="45.8,27.9 50.9,24.9 56,27.9 56,33.8 50.9,36.8 45.8,33.8 "/>
<polygon class="st0" points="35.5,27.9 40.7,24.9 45.8,27.9 45.8,33.8 40.7,36.8 35.5,33.8 "/>
<polygon class="st0" points="40.7,36.8 45.8,33.8 50.9,36.8 50.9,42.7 45.8,45.6 40.7,42.7 "/>
<polygon class="st0" points="21.8,45.2 20.3,51 14.6,52.5 10.4,48.3 11.9,42.6 17.6,41.1 "/>
<polygon class="st0" points="19.2,35.4 17.6,41.1 11.9,42.6 7.7,38.4 9.3,32.7 15,31.2 "/>
<polygon class="st0" points="20.1,12.3 25.8,13.9 27.3,19.6 23.1,23.8 17.4,22.2 15.9,16.5 "/>
<polygon class="st0" points="30.6,47.8 36.3,49.3 37.8,55 33.7,59.2 28,57.7 26.4,52 "/>
<circle class="st0" cx="30.3" cy="35.3" r="29.3"/>
<polyline class="st0" points="30.3,6 30.3,37.3 50,57 "/>
<line class="st0" x1="30.3" y1="37.3" x2="6.4" y2="18.3"/>
<path class="st0" d="M30.3,37.3"/>
<path class="st1" d="M3.7,61.7l4.4-0.5c0.2,0,0.3,0.1,0.4,0.3L9,65.9"/>
<path class="st1" d="M13.8,0.5l-0.2,4.4c0,0.2-0.2,0.3-0.3,0.3L8.8,5"/>
<path class="st1" d="M65.1,20.4l-4.3-0.9c-0.2,0-0.3-0.2-0.3-0.4l0.9-4.4"/>
</svg>
