<?xml version="1.0" encoding="utf-8"?>
<!-- Generator: Adobe Illustrator 19.1.0, SVG Export Plug-In . SVG Version: 6.00 Build 0)  -->
<svg version="1.1" id="Layer_1" xmlns="http://www.w3.org/2000/svg" xmlns:xlink="http://www.w3.org/1999/xlink" x="0px" y="0px"
	 viewBox="0 0 60 40" style="enable-background:new 0 0 60 40;" xml:space="preserve">
<style type="text/css">
	.st0{fill:#FFFFFF;stroke:#222222;stroke-linecap:round;stroke-linejoin:round;stroke-miterlimit:10;}
	.st1{fill:none;stroke:#222222;stroke-linecap:round;stroke-linejoin:round;stroke-miterlimit:10;}
	.st2{fill:#FFFFFF;stroke:#222222;stroke-width:0.75;stroke-linecap:round;stroke-linejoin:round;stroke-miterlimit:10;}
	.st3{fill:none;stroke:#222222;stroke-width:0.5;stroke-miterlimit:10;}
	.st4{fill:none;stroke:#222222;stroke-width:0.5;stroke-linecap:round;stroke-linejoin:round;stroke-miterlimit:10;}
	.st5{fill:none;stroke:#222222;stroke-width:0.25;stroke-linecap:round;stroke-linejoin:round;stroke-miterlimit:10;}
</style>
<g>
	<g>
		<path id="XMLID_1136_" class="st0" d="M54.5,38.9H11.8c-2.3,0-4.1-1.9-4.1-4.1V11.1C7.6,8.9,9.5,7,11.8,7h42.7
			c2.3,0,4.1,1.9,4.1,4.1v23.6C58.6,37,56.8,38.9,54.5,38.9z"/>
		<polyline id="XMLID_1135_" class="st1" points="9,9.2 32.4,26.6 57.6,9.2 		"/>
	</g>
	<g>
		<circle class="st2" cx="9.8" cy="9.5" r="8.4"/>
		<circle id="XMLID_1134_" class="st3" cx="9.8" cy="9.5" r="0.8"/>
		<line class="st4" x1="10.4" y1="8" x2="12.2" y2="2.9"/>
		<line class="st4" x1="10.9" y1="10.8" x2="12.5" y2="12.7"/>
		<line class="st5" x1="3.5" y1="7.1" x2="4.6" y2="7.5"/>
		<line class="st5" x1="5.1" y1="4.6" x2="5.9" y2="5.4"/>
		<line class="st5" x1="7.8" y1="3" x2="8.2" y2="4.1"/>
		<line class="st5" x1="10.6" y1="2.8" x2="10.5" y2="3.9"/>
		<line class="st5" x1="12.1" y1="3.1" x2="11.7" y2="4.2"/>
		<line class="st5" x1="13.4" y1="3.7" x2="12.8" y2="4.7"/>
		<line class="st5" x1="15.6" y1="5.9" x2="14.6" y2="6.5"/>
		<line class="st5" x1="16.5" y1="8.7" x2="15.4" y2="8.8"/>
		<line class="st5" x1="16.2" y1="11.7" x2="15.1" y2="11.3"/>
		<line class="st5" x1="14.7" y1="14.2" x2="13.8" y2="13.4"/>
		<line class="st5" x1="12.1" y1="15.8" x2="11.8" y2="14.7"/>
		<line class="st5" x1="9.2" y1="16.2" x2="9.3" y2="15"/>
		<line class="st5" x1="6.3" y1="15.3" x2="6.9" y2="14.3"/>
		<line class="st5" x1="4.2" y1="13.2" x2="5.2" y2="12.6"/>
		<line class="st5" x1="3.1" y1="10.4" x2="4.3" y2="10.3"/>
	</g>
</g>
</svg>
