<?xml version="1.0" encoding="utf-8"?>
<!-- Generator: Adobe Illustrator 19.1.0, SVG Export Plug-In . SVG Version: 6.00 Build 0)  -->
<svg version="1.1" id="Layer_1" xmlns="http://www.w3.org/2000/svg" xmlns:xlink="http://www.w3.org/1999/xlink" x="0px" y="0px"
	 viewBox="0 0 119 18" style="enable-background:new 0 0 119 18;" xml:space="preserve">
<style type="text/css">
	.st0{fill:#FFFFFF;}
	.st1{fill:#EC6923;}
</style>
<g>
	<g>
		<path class="st0" d="M22.6,0.4h2l6.3,9.5l6.3-9.5h2v17.3h-2V3.7L30.9,13h-0.1l-6.3-9.3v14.1h-1.9C22.6,17.8,22.6,0.4,22.6,0.4z"/>
		<path class="st0" d="M44.2,0.4h12.6v1.8H46.1v5.9h9.5v1.8h-9.5v6h10.7v1.8H44.2L44.2,0.4L44.2,0.4z"/>
		<path class="st0" d="M65.4,2.2h-5.9V0.4h13.6v1.8h-5.9v15.5h-1.9V2.2z"/>
		<path class="st0" d="M76.8,0.4h7.5c2.2,0,3.9,0.6,5,1.7c0.8,0.8,1.4,2.1,1.4,3.4v0.1c0,2.9-2,4.6-4.7,5.1l5.3,7.1h-2.4l-5.1-6.8
			h-5v6.8h-2L76.8,0.4L76.8,0.4z M84.1,9.3c2.6,0,4.4-1.4,4.4-3.6l0,0c0-2.2-1.6-3.4-4.4-3.4h-5.3v7H84.1L84.1,9.3z"/>
		<path class="st0" d="M95,0.4h2v17.3h-2V0.4z"/>
		<path class="st0" d="M108.4,0.2h1.8l7.9,17.5h-2.1l-2.1-4.6h-9.5l-2.1,4.6h-2L108.4,0.2z M113.2,11.4l-4-8.8l-4,8.8H113.2z"/>
	</g>
	<g>
		<path class="st1" d="M8.8,15.8C5.4,15.3,2.9,12.4,2.9,9s2.5-6.2,5.9-6.8V0.2C4.3,0.7,0.8,4.4,0.8,9s3.4,8.3,7.9,8.8V15.8z"/>
		<path class="st0" d="M10.7,0.2v2.1C14,2.7,16.5,5.6,16.5,9s-2.5,6.2-5.9,6.8v2.1c4.4-0.5,7.9-4.2,7.9-8.8S15.1,0.7,10.7,0.2z"/>
	</g>
</g>
</svg>
