<?xml version="1.0" encoding="utf-8"?>
<!-- Generator: Adobe Illustrator 19.1.0, SVG Export Plug-In . SVG Version: 6.00 Build 0)  -->
<svg version="1.1" id="Layer_1" xmlns="http://www.w3.org/2000/svg" xmlns:xlink="http://www.w3.org/1999/xlink" x="0px" y="0px"
	 viewBox="0 0 58 63" style="enable-background:new 0 0 58 63;" xml:space="preserve">
<style type="text/css">
	.st0{fill:none;stroke:#222222;stroke-linecap:round;stroke-miterlimit:10;}
	.st1{fill:#FFFFFF;stroke:#222222;stroke-linecap:round;stroke-miterlimit:10;}
	.st2{fill:#FFFFFF;stroke:#222222;stroke-miterlimit:10;}
</style>
<polygon class="st0" points="4.3,23.1 24.9,11.2 45.5,23.1 45.5,46.9 24.9,58.8 4.3,46.9 "/>
<path class="st1" d="M31.6,24.6L43.9,1.1c0.2-0.3,0.6-0.3,0.8,0L57,24.6c0.2,0.3,0,0.7-0.4,0.7H31.9C31.6,25.3,31.4,24.9,31.6,24.6z
	"/>
<circle class="st1" cx="44.3" cy="21.9" r="1.1"/>
<line class="st1" x1="44.3" y1="5.9" x2="44.3" y2="17.9"/>
<line class="st0" x1="31.3" y1="28.6" x2="35.3" y2="25.3"/>
<line class="st0" x1="35.9" y1="28.6" x2="40" y2="25.3"/>
<line class="st0" x1="40.6" y1="28.6" x2="44.6" y2="25.3"/>
<circle id="XMLID_54_" class="st2" cx="24.9" cy="11.2" r="3.4"/>
<circle id="XMLID_53_" class="st2" cx="24.9" cy="58.8" r="3.4"/>
<circle id="XMLID_52_" class="st2" cx="4.3" cy="46.7" r="3.4"/>
<circle id="XMLID_51_" class="st2" cx="45.4" cy="46.7" r="3.4"/>
<circle id="XMLID_50_" class="st2" cx="4.3" cy="23" r="3.4"/>
</svg>
