<?xml version="1.0" encoding="utf-8"?>
<!-- Generator: Adobe Illustrator 19.1.0, SVG Export Plug-In . SVG Version: 6.00 Build 0)  -->
<svg version="1.1" id="Layer_1" xmlns="http://www.w3.org/2000/svg" xmlns:xlink="http://www.w3.org/1999/xlink" x="0px" y="0px"
	 viewBox="0 0 89 58" style="enable-background:new 0 0 89 58;" xml:space="preserve">
<style type="text/css">
	.st0{fill:none;stroke:#222222;stroke-linecap:round;stroke-miterlimit:10;}
	.st1{fill:#FFFFFF;stroke:#222222;stroke-miterlimit:10;}
	.st2{fill:#FFFFFF;stroke:#222222;stroke-linecap:round;stroke-miterlimit:10;}
</style>
<polygon class="st0" points="1,41.8 9.9,36.7 18.8,41.8 18.8,52.1 9.9,57.3 1,52.1 "/>
<polygon class="st0" points="23.1,41.8 32.1,36.7 41,41.8 41,52.1 32.1,57.3 23.1,52.1 "/>
<polygon class="st0" points="45.3,41.8 54.2,36.7 63.2,41.8 63.2,52.1 54.2,57.3 45.3,52.1 "/>
<path class="st0" d="M31.6,0.7"/>
<path class="st1" d="M43.1,25.8l-9.2,6.1c-1,0.8-2.4,0.8-3.4,0l-9.2-6.1c-0.7-0.5-1.1-1.4-1.1-2.2v-22c0-0.4,0.3-0.7,0.6-0.7h22.8
	c0.3,0,0.6,0.3,0.6,0.7v22C44.2,24.4,43.8,25.2,43.1,25.8z"/>
<circle class="st1" cx="25.3" cy="7.9" r="1.6"/>
<circle class="st1" cx="29.3" cy="15.1" r="1.6"/>
<line class="st2" x1="31.1" y1="5.7" x2="23.9" y2="16.2"/>
<line class="st1" x1="33" y1="5.9" x2="41.2" y2="5.9"/>
<line class="st1" x1="33" y1="8.4" x2="41.2" y2="8.4"/>
<line class="st1" x1="33" y1="10.9" x2="37.1" y2="10.9"/>
<path class="st0" d="M77.9,8.7"/>
<path class="st1" d="M87,25.8l-9.2,6.1c-1,0.8-2.4,0.8-3.4,0l-9.2-6.1c-0.7-0.5-1.1-1.4-1.1-2.2V10.6c0-0.4,0.3-0.7,0.6-0.7h22.8
	c0.3,0,0.6,0.3,0.6,0.7v12.9C88,24.4,87.6,25.2,87,25.8z"/>
<circle class="st1" cx="69.7" cy="14.9" r="1.6"/>
<circle class="st1" cx="73.8" cy="22.1" r="1.6"/>
<line class="st2" x1="75.6" y1="12.8" x2="68.4" y2="23.3"/>
<line class="st1" x1="77.5" y1="14.3" x2="85.6" y2="14.3"/>
<line class="st1" x1="77.5" y1="16.8" x2="85.6" y2="16.8"/>
<line class="st1" x1="77.5" y1="19.3" x2="81.6" y2="19.3"/>
<path class="st1" d="M40.5,22.4h-6.3c-0.4,0-0.6-0.3-0.6-0.6v-6.6c0-0.4,0.3-0.6,0.6-0.6h6.3c0.4,0,0.6,0.3,0.6,0.6v6.6
	C41.2,22.2,40.9,22.4,40.5,22.4z"/>
<line class="st1" x1="23.1" y1="45" x2="35.3" y2="38.6"/>
<line class="st1" x1="23.1" y1="48.5" x2="38.5" y2="40.4"/>
<line class="st1" x1="23.1" y1="51.9" x2="41" y2="42.6"/>
<line class="st1" x1="26.1" y1="53.9" x2="41" y2="45.9"/>
<line class="st1" x1="29.3" y1="55.7" x2="41" y2="49.4"/>
<polygon class="st0" points="67.5,41.8 76.4,36.7 85.3,41.8 85.3,52.1 76.4,57.3 67.5,52.1 "/>
<line class="st1" x1="67.5" y1="45" x2="79.7" y2="38.6"/>
<line class="st1" x1="67.5" y1="48.5" x2="82.8" y2="40.4"/>
<line class="st1" x1="67.5" y1="51.9" x2="85.3" y2="42.6"/>
<line class="st1" x1="70.5" y1="53.9" x2="85.3" y2="45.9"/>
<line class="st1" x1="73.6" y1="55.7" x2="85.3" y2="49.4"/>
</svg>
