<?xml version="1.0" encoding="utf-8"?>
<!-- Generator: Adobe Illustrator 19.1.0, SVG Export Plug-In . SVG Version: 6.00 Build 0)  -->
<svg version="1.1" id="Layer_1" xmlns="http://www.w3.org/2000/svg" xmlns:xlink="http://www.w3.org/1999/xlink" x="0px" y="0px"
	 viewBox="0 0 75 57" style="enable-background:new 0 0 75 57;" xml:space="preserve">
<style type="text/css">
	.st0{fill:#FFFFFF;stroke:#222222;stroke-miterlimit:10;}
</style>
<g>
	<g id="XMLID_178_">
		<path id="XMLID_166_" class="st0" d="M64.4,49.8H3.2c-1.4,0-2.6-1.2-2.6-2.6V3.4c0-1.4,1.2-2.6,2.6-2.6h61.2
			c1.4,0,2.6,1.2,2.6,2.6v43.9C67,48.6,65.8,49.8,64.4,49.8z"/>
		<line id="XMLID_165_" class="st0" x1="0.5" y1="8.9" x2="66.8" y2="8.9"/>
		<circle id="XMLID_164_" class="st0" cx="6.3" cy="4.8" r="1.5"/>
		<circle id="XMLID_163_" class="st0" cx="11.1" cy="4.8" r="1.5"/>
		<circle id="XMLID_162_" class="st0" cx="15.9" cy="4.8" r="1.5"/>
	</g>
	<g id="XMLID_177_">
		<path id="XMLID_171_" class="st0" d="M72,52.7H46.8c-1.4,0-2.6-1.2-2.6-2.6V14.4c0-1.4,1.2-2.6,2.6-2.6H72c1.4,0,2.6,1.2,2.6,2.6
			v35.7C74.5,51.5,73.4,52.7,72,52.7z"/>
		<line id="XMLID_170_" class="st0" x1="44.1" y1="18.9" x2="74.5" y2="18.9"/>
		<circle id="XMLID_169_" class="st0" cx="48.2" cy="15.4" r="1.1"/>
		<circle id="XMLID_168_" class="st0" cx="51.7" cy="15.4" r="1.1"/>
		<circle id="XMLID_167_" class="st0" cx="55.3" cy="15.4" r="1.1"/>
	</g>
	<g id="XMLID_160_">
		<path id="XMLID_176_" class="st0" d="M46.9,56.2H33.2c-1.4,0-2.6-1.2-2.6-2.6V26.1c0-1.4,1.2-2.6,2.6-2.6h13.6
			c1.4,0,2.6,1.2,2.6,2.6v27.5C49.4,55.1,48.3,56.2,46.9,56.2z"/>
		<line id="XMLID_175_" class="st0" x1="30.6" y1="29.2" x2="49.4" y2="29.2"/>
		<circle id="XMLID_174_" class="st0" cx="34.5" cy="26.4" r="1"/>
		<circle id="XMLID_173_" class="st0" cx="37.6" cy="26.4" r="1"/>
		<circle id="XMLID_172_" class="st0" cx="40.6" cy="26.4" r="1"/>
	</g>
</g>
</svg>
