<?xml version="1.0" encoding="utf-8"?>
<!-- Generator: Adobe Illustrator 19.1.0, SVG Export Plug-In . SVG Version: 6.00 Build 0)  -->
<svg version="1.1" id="Layer_1" xmlns="http://www.w3.org/2000/svg" xmlns:xlink="http://www.w3.org/1999/xlink" x="0px" y="0px"
	 viewBox="0 0 87 65" style="enable-background:new 0 0 87 65;" xml:space="preserve">
<style type="text/css">
	.st0{fill:#FFFFFF;stroke:#222222;stroke-linecap:round;stroke-miterlimit:10;}
	.st1{fill:none;stroke:#222222;stroke-linecap:round;stroke-miterlimit:10;}
	.st2{fill:#FFFFFF;stroke:#222222;stroke-linecap:round;stroke-miterlimit:10;stroke-dasharray:2;}
</style>
<g>
	<rect x="2.8" y="31.9" class="st0" width="6.7" height="11"/>
	<rect x="24.2" y="31.9" class="st0" width="6.7" height="11"/>
	<rect x="34.9" y="31.9" class="st0" width="6.7" height="11"/>
	<rect x="45.6" y="31.9" class="st0" width="6.7" height="11"/>
	<rect x="56.3" y="31.9" class="st0" width="6.7" height="11"/>
	<rect x="67" y="31.9" class="st0" width="6.7" height="11"/>
	<rect x="77.7" y="31.9" class="st0" width="6.7" height="11"/>
	<line class="st1" x1="0.7" y1="64.4" x2="86.3" y2="64.4"/>
	<line class="st1" x1="0.7" y1="29.1" x2="86.3" y2="29.1"/>
	<line class="st1" x1="11.4" y1="29.1" x2="11.4" y2="64.4"/>
	<line class="st1" x1="22.1" y1="29.1" x2="22.1" y2="64.4"/>
	<line class="st1" x1="32.8" y1="29.1" x2="32.8" y2="64.4"/>
	<line class="st1" x1="43.5" y1="29.1" x2="43.5" y2="64.4"/>
	<line class="st1" x1="54.2" y1="29.1" x2="54.2" y2="64.4"/>
	<line class="st1" x1="64.9" y1="29.1" x2="64.9" y2="64.4"/>
	<line class="st1" x1="75.6" y1="29.1" x2="75.6" y2="64.4"/>
	<circle class="st2" cx="43.3" cy="19.3" r="18.8"/>
	<line class="st0" x1="26.7" y1="10.7" x2="60" y2="10.7"/>
	<line class="st0" x1="43.5" y1="10.7" x2="43.5" y2="38.1"/>
	<path class="st0" d="M61.5,15.5h-12c-0.5,0-0.9,0.4-0.9,0.9v21"/>
	<line class="st0" x1="52.5" y1="19.6" x2="62.1" y2="19.6"/>
	<line class="st0" x1="52.5" y1="23.1" x2="61.7" y2="23.1"/>
	<line class="st0" x1="52.5" y1="26.5" x2="60.7" y2="26.5"/>
	<path class="st0" d="M25.4,15.5H38c0.5,0,0.9,0.4,0.9,0.9V37"/>
	<line class="st0" x1="34.5" y1="19.6" x2="24.6" y2="19.6"/>
	<line class="st0" x1="34.5" y1="23.1" x2="24.9" y2="23.1"/>
	<line class="st0" x1="34.5" y1="26.4" x2="26.7" y2="26.4"/>
	<rect x="13.5" y="31.9" class="st0" width="6.7" height="11"/>
</g>
</svg>
