<?xml version="1.0" encoding="utf-8"?>
<!-- Generator: Adobe Illustrator 19.1.0, SVG Export Plug-In . SVG Version: 6.00 Build 0)  -->
<svg version="1.1" id="Layer_1" xmlns="http://www.w3.org/2000/svg" xmlns:xlink="http://www.w3.org/1999/xlink" x="0px" y="0px"
	 viewBox="0 0 94 71" style="enable-background:new 0 0 94 71;" xml:space="preserve">
<style type="text/css">
	.st0{fill:#FFFFFF;stroke:#222222;stroke-miterlimit:10;stroke-dasharray:3;}
	.st1{fill:#FFFFFF;}
	.st2{fill:none;stroke:#222222;stroke-miterlimit:10;stroke-dasharray:1.9334,1.9334;}
	.st3{fill:#FFFFFF;stroke:#222222;stroke-miterlimit:10;}
	.st4{fill:none;stroke:#222222;stroke-miterlimit:10;}
	.st5{fill:none;stroke:#222222;stroke-miterlimit:10;stroke-dasharray:3.1351,3.1351;}
	.st6{fill:none;stroke:#222222;stroke-miterlimit:10;stroke-dasharray:2.9981,2.9981;}
</style>
<polyline class="st0" points="41.1,5.9 41.1,37.5 5.5,37.5 "/>
<g id="XMLID_34_">
	<circle class="st1" cx="41.1" cy="37.5" r="4.9"/>
	<circle class="st2" cx="41.1" cy="37.5" r="4.9"/>
</g>
<line class="st3" x1="54.7" y1="61.7" x2="28.2" y2="53.4"/>
<g>
	<polyline class="st1" points="78.8,42.8 52.6,25.7 54.7,61.7 	"/>
	<g>
		<line class="st4" x1="78.8" y1="42.8" x2="77.5" y2="42"/>
		<line class="st5" x1="74.9" y1="40.3" x2="55.2" y2="27.4"/>
		<polyline class="st4" points="53.9,26.6 52.6,25.7 52.7,27.2 		"/>
		<line class="st6" x1="52.9" y1="30.2" x2="54.6" y2="58.7"/>
		<line class="st4" x1="54.6" y1="60.2" x2="54.7" y2="61.7"/>
	</g>
</g>
<line class="st3" x1="88.5" y1="23.1" x2="82.4" y2="45.3"/>
<circle id="XMLID_23_" class="st3" cx="88.5" cy="23.1" r="4.9"/>
<circle id="XMLID_27_" class="st3" cx="28.2" cy="53.4" r="4.9"/>
<line class="st3" x1="5.5" y1="37.5" x2="5.5" y2="65.2"/>
<circle id="XMLID_38_" class="st3" cx="5.5" cy="65.2" r="4.9"/>
<g id="XMLID_28_">
	<circle class="st1" cx="52.6" cy="25.7" r="4.9"/>
	<circle class="st2" cx="52.6" cy="25.7" r="4.9"/>
</g>
<g id="XMLID_29_">
	<circle class="st1" cx="54.7" cy="61.7" r="4.9"/>
	<circle class="st2" cx="54.7" cy="61.7" r="4.9"/>
</g>
<circle id="XMLID_24_" class="st3" cx="82.4" cy="45.3" r="4.9"/>
<line class="st3" x1="17.3" y1="20.1" x2="41.1" y2="5.9"/>
<circle id="XMLID_33_" class="st3" cx="17.3" cy="20.1" r="4.9"/>
<circle id="XMLID_30_" class="st3" cx="41.1" cy="5.9" r="4.9"/>
<g id="XMLID_36_">
	<circle class="st1" cx="5.5" cy="37.5" r="4.9"/>
	<circle class="st2" cx="5.5" cy="37.5" r="4.9"/>
</g>
</svg>
