<?xml version="1.0" encoding="utf-8"?>
<!-- Generator: Adobe Illustrator 19.1.0, SVG Export Plug-In . SVG Version: 6.00 Build 0)  -->
<svg version="1.1" id="Layer_1" xmlns="http://www.w3.org/2000/svg" xmlns:xlink="http://www.w3.org/1999/xlink" x="0px" y="0px"
	 viewBox="0 0 90 56" style="enable-background:new 0 0 90 56;" xml:space="preserve">
<style type="text/css">
	.st0{fill:none;stroke:#222222;stroke-linecap:round;stroke-linejoin:round;stroke-miterlimit:10;}
	.st1{fill:#FFFFFF;stroke:#222222;stroke-linecap:round;stroke-linejoin:round;stroke-miterlimit:10;}
	.st2{fill:#FFFFFF;stroke:#222222;stroke-miterlimit:10;}
	.st3{fill:#F58C74;stroke:#222222;stroke-miterlimit:10;}
</style>
<g>
	<polygon id="XMLID_180_" class="st0" points="16.7,41.7 12.8,35 16.7,28.3 24.4,28.3 28.3,35 24.4,41.7 	"/>
	<polygon id="XMLID_182_" class="st0" points="28.1,34.4 24.3,27.8 28.1,21.1 35.9,21.1 39.7,27.8 35.9,34.4 	"/>
	<polygon id="XMLID_181_" class="st0" points="28.5,48.2 24.7,41.5 28.5,34.8 36.3,34.8 40.1,41.5 36.3,48.2 	"/>
	<polygon id="XMLID_191_" class="st0" points="17.1,55.1 13.2,48.4 17.1,41.7 24.8,41.7 28.7,48.4 24.8,55.1 	"/>
	<polygon id="XMLID_183_" class="st0" points="39.6,40.9 35.8,34.3 39.6,27.6 47.3,27.6 51.2,34.3 47.3,40.9 	"/>
	<polygon id="XMLID_189_" class="st0" points="39.2,14.3 35.4,7.6 39.2,0.9 47,0.9 50.8,7.6 47,14.3 	"/>
	<polygon id="XMLID_190_" class="st0" points="15.9,15.2 12.1,8.5 15.9,1.8 23.6,1.8 27.5,8.5 23.6,15.2 	"/>
	<polygon id="XMLID_188_" class="st0" points="4.8,35.4 1,28.8 4.8,22.1 12.6,22.1 16.4,28.8 12.6,35.4 	"/>
	<polygon id="XMLID_185_" class="st0" points="40,27.6 36.1,20.9 40,14.2 47.7,14.2 51.6,20.9 47.7,27.6 	"/>
	<polygon id="XMLID_186_" class="st0" points="27.8,21.4 23.9,14.8 27.8,8.1 35.5,8.1 39.4,14.8 35.5,21.4 	"/>
	<polygon id="XMLID_184_" class="st0" points="16.3,28.7 12.4,22 16.3,15.3 24,15.3 27.9,22 24,28.7 	"/>
	<line id="XMLID_555_" class="st1" x1="72.3" y1="8.6" x2="88.6" y2="8.6"/>
	<line id="XMLID_202_" class="st1" x1="72.3" y1="12.3" x2="81.8" y2="12.4"/>
	<line id="XMLID_554_" class="st1" x1="72.3" y1="4.8" x2="88.6" y2="4.8"/>
	<line id="XMLID_199_" class="st1" x1="72.3" y1="31" x2="89" y2="31"/>
	<line id="XMLID_198_" class="st1" x1="72.3" y1="27.2" x2="88.6" y2="27.2"/>
	<line id="XMLID_201_" class="st1" x1="72.3" y1="42.3" x2="82.9" y2="42.4"/>
	<line id="XMLID_200_" class="st1" x1="72.3" y1="38.5" x2="88.6" y2="38.5"/>
	<circle id="XMLID_196_" class="st2" cx="32" cy="41.5" r="4.1"/>
	<circle id="XMLID_195_" class="st2" cx="43.2" cy="7.1" r="4.1"/>
	<circle id="XMLID_194_" class="st2" cx="32.3" cy="28.3" r="4.1"/>
	<line id="XMLID_193_" class="st1" x1="66.8" y1="7.3" x2="47.2" y2="7.3"/>
	<line id="XMLID_192_" class="st1" x1="36.9" y1="28" x2="66.8" y2="28"/>
	<line id="XMLID_179_" class="st1" x1="36.6" y1="41" x2="66.5" y2="41"/>
	<circle id="XMLID_205_" class="st3" cx="66.2" cy="40.9" r="1.2"/>
	<circle id="XMLID_204_" class="st3" cx="66.6" cy="27.7" r="1.2"/>
	<circle id="XMLID_203_" class="st3" cx="67.1" cy="7.1" r="1.2"/>
</g>
</svg>
