<?xml version="1.0" encoding="utf-8"?>
<!-- Generator: Adobe Illustrator 19.1.0, SVG Export Plug-In . SVG Version: 6.00 Build 0)  -->
<svg version="1.1" id="Layer_1" xmlns="http://www.w3.org/2000/svg" xmlns:xlink="http://www.w3.org/1999/xlink" x="0px" y="0px"
	 viewBox="0 0 55 53" style="enable-background:new 0 0 55 53;" xml:space="preserve">
<style type="text/css">
	.st0{fill:none;stroke:#222222;stroke-linecap:round;stroke-linejoin:round;stroke-miterlimit:10;}
	.st1{fill:#FFFFFF;stroke:#222222;stroke-miterlimit:10;}
	.st2{fill:none;stroke:#222222;stroke-width:0.75;stroke-linecap:round;stroke-linejoin:round;stroke-miterlimit:10;}
</style>
<g>
	<path id="XMLID_1144_" class="st0" d="M50.4,15.1l-0.5-0.9c-7.4-12.9-26.1-12.9-33.5,0l0,0"/>
	<line id="XMLID_1142_" class="st0" x1="51.3" y1="16" x2="37.9" y2="15.3"/>
	<line id="XMLID_1141_" class="st0" x1="51.3" y1="16" x2="52" y2="2.5"/>
	<path id="XMLID_1140_" class="st0" d="M3.7,37.6l0.6,0.9c7.7,12.7,26.4,12.3,33.5-0.8l0,0"/>
	<line id="XMLID_1138_" class="st0" x1="3.2" y1="37" x2="16.7" y2="37.3"/>
	<line id="XMLID_1137_" class="st0" x1="3.2" y1="37" x2="2.9" y2="50.5"/>
	<g>
		<circle id="XMLID_1150_" class="st1" cx="37.7" cy="37.6" r="11.3"/>
		<g>
			<polyline id="XMLID_1149_" class="st2" points="33.2,39.3 33.3,41.4 37.6,43.6 42.2,41.5 42.1,39.2 			"/>
			<polygon id="XMLID_1148_" class="st2" points="36,38.1 34.3,35.2 35.9,32.3 39.3,32.2 41,35.1 39.4,38.1 			"/>
		</g>
	</g>
	<g>
		<circle id="XMLID_1147_" class="st1" cx="16.4" cy="14.2" r="11.3"/>
		<g>
			<polyline id="XMLID_1146_" class="st2" points="12,15.9 12.1,17.9 16.3,20.1 20.9,18 20.9,15.8 			"/>
			<polygon id="XMLID_1145_" class="st2" points="14.8,14.6 13.1,11.7 14.7,8.8 18.1,8.8 19.8,11.7 18.1,14.6 			"/>
		</g>
	</g>
</g>
</svg>
