<?xml version="1.0" encoding="utf-8"?>
<!-- Generator: Adobe Illustrator 19.1.0, SVG Export Plug-In . SVG Version: 6.00 Build 0)  -->
<svg version="1.1" id="Layer_1" xmlns="http://www.w3.org/2000/svg" xmlns:xlink="http://www.w3.org/1999/xlink" x="0px" y="0px"
	 viewBox="0 0 59 56" style="enable-background:new 0 0 59 56;" xml:space="preserve">
<style type="text/css">
	.st0{fill:none;stroke:#222222;stroke-linecap:round;stroke-linejoin:round;stroke-miterlimit:10;}
	.st1{fill:#FFFFFF;stroke:#222222;stroke-miterlimit:10;}
	.st2{fill:#FFFFFF;stroke:#222222;stroke-linecap:round;stroke-linejoin:round;stroke-miterlimit:10;}
</style>
<g>
	<g>
		<path id="XMLID_1165_" class="st0" d="M45.8,50.8l1.2-1C64.1,36.2,60,9.2,39.7,1.3l0,0"/>
		<line id="XMLID_1163_" class="st0" x1="45.4" y1="51.2" x2="44.6" y2="44.2"/>
		<line id="XMLID_1162_" class="st0" x1="45.6" y1="51.1" x2="51.9" y2="50.5"/>
		<path id="XMLID_1161_" class="st0" d="M12.5,5.5l-1.2,1c-16.8,14-12,40.8,8.5,48.3l0,0"/>
		<line id="XMLID_1159_" class="st0" x1="13.1" y1="5.2" x2="12" y2="13.5"/>
		<line id="XMLID_1158_" class="st0" x1="13.1" y1="5.2" x2="5.5" y2="4.7"/>
	</g>
	<g>
		<g>
			<circle id="XMLID_1167_" class="st1" cx="42.7" cy="27.2" r="7"/>
			<polygon id="XMLID_1166_" class="st1" points="42.8,23.8 43.8,25.9 46.2,26.2 44.5,27.9 44.9,30.3 42.8,29.2 40.7,30.3 
				41.1,27.9 39.3,26.2 41.7,25.9 			"/>
		</g>
		<g>
			<circle class="st2" cx="16.9" cy="27.2" r="7.8"/>
			<g>
				<path id="XMLID_1175_" class="st0" d="M21,27.2l0-0.2c-0.3-3.1-3.9-4.7-6.4-2.8l0,0"/>
				<line id="XMLID_1173_" class="st0" x1="21" y1="27.2" x2="20.1" y2="26.8"/>
				<line id="XMLID_1172_" class="st0" x1="21.1" y1="27.2" x2="21.5" y2="26.4"/>
				<path id="XMLID_1171_" class="st0" d="M13,27.7l0,0.2c0.4,3.1,4,4.6,6.5,2.6l0,0"/>
				<line id="XMLID_1169_" class="st0" x1="13" y1="27.6" x2="13.9" y2="28.4"/>
				<line id="XMLID_1168_" class="st0" x1="13" y1="27.6" x2="12.4" y2="28.5"/>
			</g>
		</g>
		<g>
			<circle id="XMLID_1153_" class="st1" cx="30.5" cy="14.2" r="7.5"/>
			<g>
				<polyline id="XMLID_1152_" class="st0" points="27.6,15.1 27.6,16.4 30.4,17.9 33.4,16.5 33.4,15.1 				"/>
				<polygon id="XMLID_1151_" class="st0" points="29.4,14.3 28.3,12.4 29.4,10.5 31.6,10.5 32.7,12.4 31.6,14.3 				"/>
			</g>
		</g>
		<g>
			<circle id="XMLID_1176_" class="st1" cx="30.5" cy="39.5" r="7"/>
			<path id="XMLID_1157_" class="st0" d="M33.6,38.4c0-1-0.8-1.9-1.9-1.9c-0.5,0-0.9,0.2-1.3,0.5c-0.3-0.3-0.8-0.5-1.3-0.5
				c-1,0-1.9,0.8-1.9,1.9c0,0.4,0.2,0.8,0.4,1.2l0,0c0,0,0,0,0,0c0.1,0.1,0.2,0.2,0.3,0.3c0.8,0.8,2.6,2.5,2.6,2.5l2.4-2.6
				C33.4,39.4,33.6,39,33.6,38.4z"/>
		</g>
	</g>
</g>
</svg>
