<?xml version="1.0" encoding="utf-8"?>
<!-- Generator: Adobe Illustrator 19.1.0, SVG Export Plug-In . SVG Version: 6.00 Build 0)  -->
<svg version="1.1" id="Layer_1" xmlns="http://www.w3.org/2000/svg" xmlns:xlink="http://www.w3.org/1999/xlink" x="0px" y="0px"
	 viewBox="0 0 67 62" style="enable-background:new 0 0 67 62;" xml:space="preserve">
<style type="text/css">
	.st0{fill:none;stroke:#222222;stroke-linecap:round;stroke-miterlimit:10;}
</style>
<g>
	<polygon class="st0" points="15.9,29.3 21.1,38.2 15.9,47 5.7,47 0.6,38.2 5.7,29.3 	"/>
	<polygon class="st0" points="59.1,27.1 63.3,34.3 59.1,41.5 50.8,41.5 46.6,34.3 50.8,27.1 	"/>
	<polygon class="st0" points="63.8,46.7 66.4,51.2 63.8,55.7 58.5,55.7 55.9,51.2 58.5,46.7 	"/>
	<polygon class="st0" points="33.2,26.3 40.2,38.3 33.2,50.4 19.3,50.4 12.4,38.3 19.3,26.3 	"/>
	<polygon class="st0" points="41.1,40.9 47,51.2 41.1,61.5 29.2,61.5 23.3,51.2 29.2,40.9 	"/>
	<path class="st0" d="M29,17.7l-2.5,3.5c-0.1,0.2-0.3,0.2-0.4,0l-2.5-3.5c-0.1-0.1-0.1-0.2-0.1-0.3V0.9c0-0.2,0.1-0.4,0.3-0.4h5
		c0.2,0,0.3,0.2,0.3,0.4v16.5C29.1,17.6,29.1,17.7,29,17.7z"/>
	<line class="st0" x1="32.9" y1="1.5" x2="54.5" y2="1.5"/>
	<line class="st0" x1="32.9" y1="4.2" x2="47.8" y2="4.2"/>
	<line class="st0" x1="32.9" y1="10.3" x2="54.5" y2="10.3"/>
	<line class="st0" x1="32.9" y1="13" x2="47.8" y2="13"/>
	<line class="st0" x1="49.7" y1="13" x2="54.8" y2="13"/>
	<line class="st0" x1="39.4" y1="15.8" x2="47" y2="15.8"/>
	<line class="st0" x1="32.9" y1="15.8" x2="35.4" y2="15.8"/>
</g>
</svg>
