<?xml version="1.0" encoding="utf-8"?>
<!-- Generator: Adobe Illustrator 19.1.0, SVG Export Plug-In . SVG Version: 6.00 Build 0)  -->
<svg version="1.1" id="Layer_1" xmlns="http://www.w3.org/2000/svg" xmlns:xlink="http://www.w3.org/1999/xlink" x="0px" y="0px"
	 viewBox="0 0 54 50" style="enable-background:new 0 0 54 50;" xml:space="preserve">
<style type="text/css">
	.st0{fill:none;stroke:#222222;stroke-width:0.75;stroke-linecap:round;stroke-linejoin:round;stroke-miterlimit:10;}
	.st1{fill:#FFFFFF;stroke:#222222;stroke-width:0.75;stroke-linecap:round;stroke-linejoin:round;stroke-miterlimit:10;}
	.st2{fill:#FFFFFF;stroke:#222222;stroke-width:0.5;stroke-linecap:round;stroke-linejoin:round;stroke-miterlimit:10;}
	.st3{fill:#222222;stroke:#222222;stroke-width:0.5;stroke-miterlimit:10;}
	.st4{fill:#222222;}
</style>
<g>
	<polyline id="XMLID_1054_" class="st0" points="52.7,19.1 28.1,0.7 1.5,18.7 	"/>
	<g>
		<path id="XMLID_1053_" class="st1" d="M42.8,39.2H11.5c-2.3,0-4.1-1.9-4.1-4.1V13.4c0-2.3,1.9-4.1,4.1-4.1h31.2
			c2.3,0,4.1,1.9,4.1,4.1v21.7C46.9,37.3,45,39.2,42.8,39.2z"/>
		<path id="XMLID_1042_" class="st2" d="M14.2,23.1l0.6-2.3c0.2-0.8,0.2-1.7,0-2.5l-0.5-1.8c0,0,0,0,0-0.1L14.1,16
			c-0.3-0.9-0.3-1.9,0.1-2.8l0.1-0.1c0.1-0.2,0.3-0.3,0.5-0.2l3.5,1.6c0.1,0,0.2,0,0.3,0l4.1-1.5c0.2-0.1,0.4,0,0.4,0.2v0
			c0.3,0.8,0.3,1.7,0,2.5l-0.4,0.9c0,0,0,0,0,0l-0.7,1.6c-0.2,0.6-0.2,1.3-0.2,2l0.4,2.9C22.2,23.1,14.2,23.1,14.2,23.1z"/>
		<path id="XMLID_1041_" class="st2" d="M14,24.2l-0.4,2.4c-0.3,1.9-0.3,3.8,0.2,5.7l0.8,3.2h7.1l0.8-3.3c0.4-1.7,0.5-3.5,0.2-5.2
			l-0.5-2.8"/>
		<path id="XMLID_1040_" class="st2" d="M14.2,23.2l8.1,0l0.1,1H14C14,24.2,14.2,23,14.2,23.2z"/>
		<path id="XMLID_1039_" class="st2" d="M17.6,23.2V24h1.2v-0.9C18.8,23.2,17.6,23.2,17.6,23.2z"/>
		<circle id="XMLID_1036_" class="st2" cx="10.1" cy="10.5" r="6.7"/>
		<polygon id="XMLID_1035_" class="st2" points="10.2,7.2 11.2,9.3 13.5,9.6 11.8,11.2 12.2,13.5 10.2,12.4 8.1,13.5 8.5,11.2 
			6.9,9.6 9.2,9.3 		"/>
		<line id="XMLID_1057_" class="st2" x1="32" y1="14.9" x2="41.4" y2="14.9"/>
		<line id="XMLID_1050_" class="st2" x1="32" y1="19.2" x2="41.4" y2="19.2"/>
		<line id="XMLID_1049_" class="st2" x1="32" y1="23.6" x2="41.4" y2="23.6"/>
		<line id="XMLID_1058_" class="st2" x1="29" y1="27.9" x2="41.4" y2="27.9"/>
		<line id="XMLID_1059_" class="st2" x1="29" y1="30.3" x2="41.4" y2="30.3"/>
		<line id="XMLID_1060_" class="st2" x1="29" y1="32.5" x2="41.4" y2="32.5"/>
		<line id="XMLID_1048_" class="st3" x1="29.3" y1="15.2" x2="29.3" y2="23.2"/>
		<circle id="XMLID_1046_" class="st4" cx="29.3" cy="23.3" r="0.9"/>
		<circle id="XMLID_1044_" class="st4" cx="29.3" cy="19.2" r="0.9"/>
		<circle id="XMLID_1043_" class="st4" cx="29.3" cy="15" r="0.9"/>
	</g>
	<path id="XMLID_1061_" class="st1" d="M52.8,19.1c0.4,0.8,0.6,1.6,0.6,2.6v22.2c0,3-2.4,5.4-5.4,5.4H6c-3,0-5.4-2.4-5.4-5.4V21.7
		c0-1,0.3-1.9,0.7-2.7l0,0l24.9,18.5L52.8,19.1L52.8,19.1z"/>
</g>
</svg>
