<?xml version="1.0" encoding="utf-8"?>
<!-- Generator: Adobe Illustrator 19.1.0, SVG Export Plug-In . SVG Version: 6.00 Build 0)  -->
<svg version="1.1" id="Layer_1" xmlns="http://www.w3.org/2000/svg" xmlns:xlink="http://www.w3.org/1999/xlink" x="0px" y="0px"
	 viewBox="0 0 55 44" style="enable-background:new 0 0 55 44;" xml:space="preserve">
<style type="text/css">
	.st0{fill:#FFFFFF;stroke:#222222;stroke-linecap:round;stroke-linejoin:round;stroke-miterlimit:10;}
	.st1{fill:#222222;stroke:#222222;stroke-miterlimit:10;}
	.st2{fill:#222222;}
	.st3{fill:none;stroke:#222222;stroke-linecap:round;stroke-linejoin:round;stroke-miterlimit:10;}
</style>
<g>
	<line id="XMLID_982_" class="st0" x1="13.4" y1="12.4" x2="43.2" y2="12.4"/>
	<line id="XMLID_969_" class="st0" x1="13.4" y1="26.3" x2="43.2" y2="26.3"/>
	<line id="XMLID_953_" class="st0" x1="13.4" y1="40.2" x2="43.2" y2="40.2"/>
	<line id="XMLID_994_" class="st1" x1="4.9" y1="13.6" x2="4.9" y2="39"/>
	<circle id="XMLID_993_" class="st2" cx="4.9" cy="39.4" r="2.7"/>
	<circle id="XMLID_992_" class="st2" cx="4.9" cy="26.3" r="2.7"/>
	<circle id="XMLID_983_" class="st2" cx="4.9" cy="13" r="2.7"/>
	<circle class="st0" cx="41.7" cy="13.1" r="11.1"/>
	<g>
		<path id="XMLID_991_" class="st3" d="M47.6,13.1l0-0.3c-0.5-4.5-5.6-6.7-9.2-4l0,0"/>
		<line id="XMLID_989_" class="st3" x1="47.6" y1="13.2" x2="46.3" y2="12.5"/>
		<line id="XMLID_988_" class="st3" x1="47.6" y1="13.1" x2="48.2" y2="12"/>
		<path id="XMLID_987_" class="st3" d="M36.1,13.9l0,0.3c0.6,4.4,5.8,6.6,9.3,3.8l0,0"/>
		<line id="XMLID_985_" class="st3" x1="36.1" y1="13.8" x2="37.4" y2="14.8"/>
		<line id="XMLID_984_" class="st3" x1="36.1" y1="13.8" x2="35.2" y2="15"/>
	</g>
</g>
</svg>
