<?xml version="1.0" encoding="utf-8"?>
<!-- Generator: Adobe Illustrator 19.1.0, SVG Export Plug-In . SVG Version: 6.00 Build 0)  -->
<svg version="1.1" id="Layer_1" xmlns="http://www.w3.org/2000/svg" xmlns:xlink="http://www.w3.org/1999/xlink" x="0px" y="0px"
	 viewBox="0 0 68 60" style="enable-background:new 0 0 68 60;" xml:space="preserve">
<style type="text/css">
	.st0{fill:none;stroke:#222222;stroke-linecap:round;stroke-miterlimit:10;}
</style>
<polygon class="st0" points="18.9,6.8 25,17.3 18.9,27.9 6.8,27.9 0.7,17.3 6.8,6.8 "/>
<polygon class="st0" points="18.9,27.9 25,38.4 18.9,49 6.8,49 0.7,38.4 6.8,27.9 "/>
<polygon class="st0" points="37.2,38.4 43.3,49 37.2,59.5 25,59.5 18.9,49 25,38.4 "/>
<polygon class="st0" points="52.6,12 57,19.7 52.6,27.3 43.7,27.3 39.3,19.7 43.7,12 "/>
<line class="st0" x1="48.2" y1="0.5" x2="48.2" y2="6.8"/>
<line class="st0" x1="48.2" y1="32.6" x2="48.2" y2="38.9"/>
<line class="st0" x1="67.3" y1="19.7" x2="61.1" y2="19.7"/>
<line class="st0" x1="35.4" y1="19.7" x2="29.1" y2="19.7"/>
<circle class="st0" cx="48.2" cy="19.7" r="16"/>
</svg>
