<?xml version="1.0" encoding="utf-8"?>
<!-- Generator: Adobe Illustrator 19.1.0, SVG Export Plug-In . SVG Version: 6.00 Build 0)  -->
<svg version="1.1" id="Layer_1" xmlns="http://www.w3.org/2000/svg" xmlns:xlink="http://www.w3.org/1999/xlink" x="0px" y="0px"
	 viewBox="0 0 133 20" style="enable-background:new 0 0 133 20;" xml:space="preserve">
<style type="text/css">
	.st0{fill:#5D5D5D;}
	.st1{fill:#EC6923;}
</style>
<g>
	<g>
		<path class="st0" d="M25.6,0.4h2.2l7,10.5l7-10.5h2.2v19.2h-2.2V4.1l-7,10.3h-0.1l-7-10.3v15.6h-2.1V0.4z"/>
		<path class="st0" d="M49.5,0.4h13.9v2H51.7V9h10.5v2H51.7v6.7h11.9v2h-14V0.4z"/>
		<path class="st0" d="M73,2.4h-6.5v-2h15.1v2h-6.5v17.2H73V2.4z"/>
		<path class="st0" d="M85.7,0.4H94c2.4,0,4.3,0.7,5.5,1.9c0.9,0.9,1.5,2.3,1.5,3.8v0.1c0,3.2-2.2,5.1-5.2,5.6l5.9,7.9H99l-5.6-7.5
			h-5.5v7.5h-2.2L85.7,0.4L85.7,0.4z M93.8,10.2c2.9,0,4.9-1.5,4.9-4V6.2c0-2.4-1.8-3.8-4.9-3.8h-5.9v7.8L93.8,10.2L93.8,10.2z"/>
		<path class="st0" d="M105.8,0.4h2.2v19.2h-2.2V0.4z"/>
		<path class="st0" d="M120.7,0.3h2l8.8,19.4h-2.3l-2.3-5.1h-10.5l-2.3,5.1h-2.2L120.7,0.3z M126.1,12.6l-4.4-9.8l-4.4,9.8H126.1z"
			/>
	</g>
	<g>
		<path class="st1" d="M10.3,17.4c-3.7-0.5-6.5-3.7-6.5-7.5c0-3.8,2.8-6.9,6.5-7.5V0.2C5.3,0.7,1.5,4.9,1.5,10s3.8,9.2,8.8,9.8V17.4
			z"/>
		<path class="st0" d="M12.4,0.2v2.3C16,3,18.9,6.2,18.9,10c0,3.8-2.8,6.9-6.5,7.5v2.3c4.9-0.5,8.8-4.7,8.8-9.8
			C21.2,4.9,17.3,0.7,12.4,0.2z"/>
	</g>
</g>
</svg>
