<?xml version="1.0" encoding="utf-8"?>
<!-- Generator: Adobe Illustrator 19.1.0, SVG Export Plug-In . SVG Version: 6.00 Build 0)  -->
<svg version="1.1" id="Layer_1" xmlns="http://www.w3.org/2000/svg" xmlns:xlink="http://www.w3.org/1999/xlink" x="0px" y="0px"
	 viewBox="0 0 77 57" style="enable-background:new 0 0 77 57;" xml:space="preserve">
<style type="text/css">
	.st0{fill:none;stroke:#222222;stroke-miterlimit:10;}
	.st1{fill:#FFFFFF;stroke:#222222;stroke-miterlimit:10;}
	.st2{fill:none;stroke:#222222;stroke-linecap:round;stroke-miterlimit:10;}
</style>
<path class="st0" d="M2.9,34.1h7.6c0.3,0,0.5-0.1,0.6-0.4c0.5-0.9,1.9-3.3,2.7-4.7c0.3-0.5,0.9-0.5,1.3-0.1c1,1.4,2.9,4,3.6,4.8
	c0.1,0.2,0.4,0.3,0.6,0.3h3.3c0.2,0,0.5,0.1,0.6,0.3c0.5,0.7,1.6,2.2,2.4,3.4c0.4,0.5,1.2,0.4,1.3-0.3L35,4.8c0.8,0,0.7,0,1.5,0
	l8.7,38c0.2,0.8,1.3,0.8,1.5,0c0.7-2.8,1.8-6.8,2.2-8.2c0.1-0.3,0.4-0.5,0.7-0.5h5.3c0.3,0,0.5-0.1,0.6-0.3c0.8-1.3,3.8-6.1,5.2-8.3
	c0.3-0.5,1-0.5,1.3,0c1.2,2.2,3.8,6.9,4.6,8.2c0.1,0.2,0.4,0.4,0.7,0.4h6.9"/>
<circle id="XMLID_1_" class="st1" cx="35.8" cy="3.1" r="2.3"/>
<circle id="XMLID_5_" class="st1" cx="2.9" cy="34.1" r="2.2"/>
<circle id="XMLID_2_" class="st1" cx="74.1" cy="34" r="2.2"/>
<line class="st2" x1="15.1" y1="52.2" x2="15.1" y2="56.2"/>
<line class="st2" x1="2.9" y1="52.2" x2="2.9" y2="56.2"/>
<line class="st2" x1="27.4" y1="52.2" x2="27.4" y2="56.2"/>
<line class="st2" x1="39.6" y1="52.2" x2="39.6" y2="56.2"/>
<line class="st2" x1="51.8" y1="52.2" x2="51.8" y2="56.2"/>
<line class="st2" x1="64" y1="52.2" x2="64" y2="56.2"/>
<line class="st2" x1="76.3" y1="52.2" x2="76.3" y2="56.2"/>
</svg>
