<?xml version="1.0" encoding="utf-8"?>
<!-- Generator: Adobe Illustrator 19.1.0, SVG Export Plug-In . SVG Version: 6.00 Build 0)  -->
<svg version="1.1" id="Layer_1" xmlns="http://www.w3.org/2000/svg" xmlns:xlink="http://www.w3.org/1999/xlink" x="0px" y="0px"
	 viewBox="0 0 84 53" style="enable-background:new 0 0 84 53;" xml:space="preserve">
<style type="text/css">
	.st0{fill:#FFFFFF;}
	.st1{fill:#FFFFFF;stroke:#222222;stroke-miterlimit:10;}
	.st2{fill:none;stroke:#222222;stroke-linecap:round;stroke-miterlimit:10;}
</style>
<g>
	<circle class="st0" cx="35.7" cy="8.2" r="7.6"/>
	<line class="st1" x1="35.7" y1="8.2" x2="67.1" y2="47"/>
	<line class="st1" x1="6" y1="47" x2="35.7" y2="8.2"/>
	<line class="st1" x1="19.9" y1="28.7" x2="33.5" y2="47"/>
	<line class="st2" x1="64.6" y1="25.8" x2="83.4" y2="25.8"/>
	<line class="st2" x1="64.6" y1="28.8" x2="72.9" y2="28.8"/>
	<line class="st2" x1="59.6" y1="25.8" x2="61.6" y2="25.8"/>
	<line class="st2" x1="64.6" y1="32.9" x2="77.9" y2="32.9"/>
	<line class="st2" x1="50.8" y1="7" x2="69.6" y2="7"/>
	<line class="st2" x1="50.8" y1="10" x2="59.1" y2="10"/>
	<line class="st2" x1="45.8" y1="7" x2="47.8" y2="7"/>
	<line class="st2" x1="50.8" y1="14.1" x2="64.1" y2="14.1"/>
	<circle class="st1" cx="35.7" cy="8.2" r="7.6"/>
	<circle class="st1" cx="52.3" cy="28.7" r="5.4"/>
	<circle class="st1" cx="67.1" cy="47" r="5.4"/>
	<circle class="st1" cx="19.6" cy="28.3" r="5.4"/>
	<circle class="st1" cx="6" cy="47" r="5.4"/>
	<circle class="st1" cx="33.5" cy="47" r="5.4"/>
</g>
</svg>
