<?xml version="1.0" encoding="utf-8"?>
<!-- Generator: Adobe Illustrator 19.1.0, SVG Export Plug-In . SVG Version: 6.00 Build 0)  -->
<svg version="1.1" id="Layer_1" xmlns="http://www.w3.org/2000/svg" xmlns:xlink="http://www.w3.org/1999/xlink" x="0px" y="0px"
	 viewBox="0 0 92 46" style="enable-background:new 0 0 92 46;" xml:space="preserve">
<style type="text/css">
	.st0{fill:none;stroke:#222222;stroke-width:0.75;stroke-linecap:round;stroke-linejoin:round;stroke-miterlimit:10;}
	.st1{fill:none;}
	.st2{fill:#222222;}
</style>
<g>
	<g>
		<polyline id="XMLID_1122_" class="st0" points="7.7,29 7.8,32.4 14.7,36 22.1,32.6 22.1,29 		"/>
		<polygon id="XMLID_1121_" class="st0" points="12.2,27.1 9.4,22.4 12.2,17.6 17.6,17.6 20.4,22.4 17.6,27.1 		"/>
	</g>
	<path id="XMLID_1120_" class="st0" d="M27.6,44.4l-25.6,0c-0.4,0-0.7-0.3-0.7-0.7l0-33.4c0-0.4,0.3-0.7,0.7-0.7l25.6,0
		c0.4,0,0.7,0.3,0.7,0.7v33.4C28.3,44.1,28,44.4,27.6,44.4z"/>
	<path id="XMLID_1123_" class="st1" d="M27.6,44.4l-25.6,0c-0.4,0-0.7-0.3-0.7-0.7l0-33.4c0-0.4,0.3-0.7,0.7-0.7l25.6,0
		c0.4,0,0.7,0.3,0.7,0.7v33.4C28.3,44.1,28,44.4,27.6,44.4z"/>
	<g>
		<polyline id="XMLID_1119_" class="st0" points="38.9,29 39,32.4 45.8,36 53.3,32.6 53.3,29 		"/>
		<polygon id="XMLID_1118_" class="st0" points="43.4,27.1 40.6,22.4 43.4,17.6 48.8,17.6 51.5,22.4 48.8,27.1 		"/>
	</g>
	<path id="XMLID_1117_" class="st0" d="M58.7,44.4l-25.6,0c-0.4,0-0.7-0.3-0.7-0.7V10.3c0-0.4,0.3-0.7,0.7-0.7l25.6,0
		c0.4,0,0.7,0.3,0.7,0.7v33.4C59.5,44.1,59.1,44.4,58.7,44.4z"/>
	<g>
		<polyline id="XMLID_1110_" class="st0" points="70.2,29 70.3,32.4 77.2,36 84.6,32.6 84.6,29 		"/>
		<polygon id="XMLID_1109_" class="st0" points="74.7,27.1 71.9,22.4 74.7,17.6 80.1,17.6 82.8,22.4 80.1,27.1 		"/>
	</g>
	<path id="XMLID_1108_" class="st0" d="M90.1,44.4l-25.6,0c-0.4,0-0.7-0.3-0.7-0.7V10.3c0-0.4,0.3-0.7,0.7-0.7l25.6,0
		c0.4,0,0.7,0.3,0.7,0.7v33.4C90.8,44.1,90.5,44.4,90.1,44.4z"/>
	<circle id="XMLID_1129_" class="st2" cx="4.1" cy="3.2" r="1.7"/>
	<path id="XMLID_1128_" class="st2" d="M25.6,2.1l-15,0L8.7,3.5l1.9,1.4h15c1,0,1.3-0.6,1.3-1.4v0C26.9,2.7,26.7,2.1,25.6,2.1z"/>
	<circle id="XMLID_1131_" class="st2" cx="35.1" cy="3.2" r="1.7"/>
	<path id="XMLID_1130_" class="st2" d="M56.7,2.1l-15,0l-1.9,1.4l1.9,1.4h15c1,0,1.3-0.6,1.3-1.4v0C57.9,2.7,57.7,2.1,56.7,2.1z"/>
	<circle id="XMLID_1133_" class="st2" cx="66.1" cy="3.2" r="1.7"/>
	<path id="XMLID_1132_" class="st2" d="M87.7,2.1l-15,0l-1.9,1.4l1.9,1.4h15c1,0,1.3-0.6,1.3-1.4v0C88.9,2.7,88.7,2.1,87.7,2.1z"/>
</g>
</svg>
