<?xml version="1.0" encoding="utf-8"?>
<!-- Generator: Adobe Illustrator 19.1.0, SVG Export Plug-In . SVG Version: 6.00 Build 0)  -->
<svg version="1.1" id="Layer_1" xmlns="http://www.w3.org/2000/svg" xmlns:xlink="http://www.w3.org/1999/xlink" x="0px" y="0px"
	 viewBox="0 0 73 53" style="enable-background:new 0 0 73 53;" xml:space="preserve">
<style type="text/css">
	.st0{fill:none;stroke:#222222;stroke-linecap:round;stroke-miterlimit:10;}
	.st1{fill:none;stroke:#222222;stroke-linecap:round;stroke-miterlimit:10;stroke-dasharray:4;}
	.st2{fill:#FFFFFF;stroke:#222222;stroke-miterlimit:10;}
</style>
<g>
	<line class="st0" x1="0.9" y1="43" x2="37.9" y2="43"/>
	<path class="st1" d="M0.9,29.7h35.4c3.2,0,4.4-4.2,1.6-5.8L11.8,8.2"/>
	<line class="st0" x1="0.9" y1="36.4" x2="55" y2="36.4"/>
	<line class="st0" x1="0.9" y1="49.6" x2="11.1" y2="49.6"/>
	<circle id="XMLID_100_" class="st2" cx="13.8" cy="9.5" r="2.8"/>
	<circle id="XMLID_32_" class="st2" cx="55.5" cy="36.4" r="2.8"/>
	<circle id="XMLID_101_" class="st2" cx="38.8" cy="43" r="2.8"/>
	<circle id="XMLID_102_" class="st2" cx="11.1" cy="49.6" r="2.8"/>
	<line class="st0" x1="44.4" y1="7.9" x2="55.7" y2="7.9"/>
	<line class="st0" x1="57.4" y1="7.9" x2="62" y2="7.9"/>
	<line class="st0" x1="63.7" y1="7.9" x2="68.3" y2="7.9"/>
	<line class="st0" x1="44.4" y1="4.4" x2="68.3" y2="4.4"/>
	<line class="st0" x1="44.4" y1="12.1" x2="55.3" y2="12.1"/>
	<line class="st0" x1="44.4" y1="14.4" x2="55.3" y2="14.4"/>
	<path class="st0" d="M71.5,18.5H44.3c-0.1,0-0.3,0.1-0.4,0.2l-2.6,3.6c-0.3,0.3-0.9,0.1-0.9-0.4V1.1c0-0.3,0.2-0.5,0.5-0.5h30.5
		c0.3,0,0.5,0.2,0.5,0.5v16.8C72.1,18.2,71.8,18.5,71.5,18.5z"/>
</g>
</svg>
