<?xml version="1.0" encoding="utf-8"?>
<!-- Generator: Adobe Illustrator 19.1.0, SVG Export Plug-In . SVG Version: 6.00 Build 0)  -->
<svg version="1.1" id="Layer_1" class="charlotte-logo" xmlns="http://www.w3.org/2000/svg" xmlns:xlink="http://www.w3.org/1999/xlink" x="0px" y="0px"
	 viewBox="0 0 359 60" style="enable-background:new 0 0 359 60;" xml:space="preserve">
<style type="text/css">
	.st0{fill:#1a1f24;}
</style>
<g>
	<path class="st0" d="M39,34.6c0.7,0.2,1.2,0.4,1.6,0.6c0.5,0.2,0.9,0.4,1.4,0.6c-2,6.4-12.1,11.5-20.3,11
		C12,46.4,2.5,39.7,0.6,28.2C-1,18.9,4.5,8.8,13.6,4.9c9.5-4.2,20.7-1.6,26.7,6.2c-0.7,0.6-1.5,1.3-2.7,2.3
		c-0.5-0.8-0.9-1.5-1.5-2.1c-8.3-9.9-23.7-8.2-29.4,4.6c-3.6,7.9-2.5,15.5,2.9,22.3c7.1,9,20.9,8.5,27.7-0.9
		C37.8,36.5,38.3,35.7,39,34.6z"/>
	<path class="st0" d="M177.8,42.8c3.1,1.7,5.5,0.8,7.9-0.2c-1.4,2.8-4,3.9-7.5,3.4c-2.6-0.4-4.2-2-4.4-4.9
		c-0.2-4.6-0.1-9.1-0.2-13.7c0-2.3,0-4.5,0-6.9c-4,0-7.6,0-11.2,0c-1,3.7-0.6,20.2,0.5,22.4c2.1,1,2.1,1,7.4,0.1
		c-2.2,3-6.1,4-9.2,2.4c-2.2-1.2-2.7-3.3-2.8-5.5c0-5,0-10,0-15c0-1.4,0-2.9,0-4.2c-2.5,0-4.6,0-7.1,0c0.5-0.8,0.8-1.4,1.2-2.2
		c1.9,0,3.7,0,5.7,0c0-2,0-3.7,0-5.6c1.1-0.9,2.1-1.7,3.6-2.9c0,3.1,0,5.6,0,8.3c4,0,7.7,0,11.7,0c0-1.8,0-3.7,0-5.5
		c1.2-0.9,2.1-1.7,3.6-2.8c0,3.1,0,5.6,0,8.4c3.5,0,6.7,0,9.8,0c0.4,0.7,0.8,1.2,1.2,2c-3.7,0-7.1,0-11,0
		C177.5,28,176.6,35.5,177.8,42.8z"/>
	<path class="st0" d="M261.3,3.5c1.2,0,2.1,0,3.4,0c0,5.9,0,11.7,0,18c0.9-0.6,1.3-0.8,1.7-1.1c5.5-4.3,16.3-2.8,19.1,7.2
		c0.9,3.3,0.8,6.6-0.2,9.9c-2.4,7.7-10.7,11.1-17.9,7.3c-0.7-0.4-1.4-0.8-2.3-1.3c-0.3,0.8-0.5,1.4-0.8,2.1c-1,0-2,0-3.2,0
		C261.3,31.5,261.3,17.7,261.3,3.5z M264.9,41.8c1.7,0.6,3.2,1.3,4.7,1.6c6.9,1.3,11.8-2.5,12.5-9.5c0.1-0.5,0.2-1,0.2-1.5
		c-0.1-4.4-1.1-8.4-5.3-10.5c-4.1-2.1-8.2-1.4-12,1.3C264.9,29.2,264.9,35.2,264.9,41.8z"/>
	<path class="st0" d="M46.4,3.6c1.3,0,2.2,0,3.3,0c0,6.6,0,13,0,19.4c0.2,0.2,0.5,0.3,0.7,0.5c0.4-0.6,0.6-1.3,1.1-1.8
		c2.9-3.4,7.8-4.5,11.9-2.8c2.2,0.9,3.6,2.4,4.3,4.6c0.3,1,0.6,2,0.6,3c0.1,6.2,0,12.5,0,18.8c-1.2,0-2.3,0-3.6,0c0-2.7,0-5.2,0-7.7
		c0-3.2,0.1-6.5,0-9.7c-0.1-5.7-3.2-8.1-8.8-7.1c-3.7,0.7-6.2,3.7-6.2,7.5c0,4.6,0,9.2,0,13.7c0,1,0,2,0,3.2c-1.3,0-2.2,0-3.4,0
		C46.4,31.5,46.4,17.7,46.4,3.6z"/>
	<path class="st0" d="M97.5,44.9c-3.8,1.4-5,0.9-7.7-3.2c-2.9,3.8-6.7,5-11.3,4.3c-3.3-0.5-5.6-2.5-6.2-5.3c-0.8-3.4,0.3-6.2,3.4-8
		c2.4-1.4,5.1-2.3,7.6-3.4c1.1-0.5,2.3-0.9,3.4-1.5c1.5-0.8,2.5-1.9,2.3-3.7c-0.2-1.8-1.2-3.1-2.8-3.8c-2.6-1.2-6.1,0-7.6,2.5
		c-0.5,0.9-0.9,1.8-1.5,3c-1.1-0.4-2.1-0.8-3.1-1.3c0.6-2.7,2.4-4.1,4.4-5.2c2.5-1.3,5.1-1.7,7.9-1.1c4.6,1,7,3.7,7.1,8.5
		c0.1,3.6,0,7.3,0,10.9c0,0.9,0,1.9,0,2.8C93.5,43.3,94.2,44.1,97.5,44.9z M89.4,28.4c-3.2,1.4-5.8,2.5-8.2,3.8
		c-1.4,0.8-2.8,1.8-3.8,3.1c-1.8,2.3-1.4,6.3,0.7,7.9c2,1.6,4.4,1.9,6.7,0.8c2.5-1.2,4.4-2.9,4.6-5.8C89.5,35.1,89.4,32,89.4,28.4z"
		/>
	<path class="st0" d="M124.6,31.8c-0.1-12.7,12.6-16.5,20.8-12.1c0.7,0.4,1.4,0.9,2.1,1.4c4.3,3.6,5.8,11.2,3.4,17
		c-2.1,5.2-7.3,8.4-13.2,8C129.3,45.7,124.5,40.4,124.6,31.8z M128.4,31.8c0,3.1,0.7,5.9,2,8c3.7,5.9,11.2,6.2,15.3,0.5
		c3.3-4.6,3.2-12.2-0.2-16.7c-3.9-5.2-11.3-4.9-14.8,0.5C129.1,26.5,128.3,29.1,128.4,31.8z"/>
	<path class="st0" d="M209.8,3.6c11.7,0,23,0,34.5,0c0.4,0.6,0.8,1.3,1.3,2.3c-5.4,0-10.5,0-16,0c0,13.2,0,26.4,0,39.7
		c-1.3,0-2.3,0-3.6,0c0-13.2,0-26.3,0-39.6c-5.8-0.7-11.4,0.3-17.2,0C209.2,5.1,209.5,4.4,209.8,3.6z"/>
	<path class="st0" d="M289.8,18.8c1.2-0.1,2.1-0.1,3.3-0.2c0.1,0.9,0.3,1.7,0.3,2.5c0,4.8,0,9.6,0,14.3c0,1,0.1,2.1,0.2,3.1
		c0.4,2.7,1.9,4.3,4.5,4.9c0.6,0.1,1.2,0.3,1.6,0.4c3.3-0.7,6.2-1.9,7.9-5.7c0-6,0-12.6,0-19.3c1.2-0.1,2.1-0.1,3.5-0.2
		c0.3,9,0.1,17.8,0.1,26.9c-1.2,0.1-2.3,0.1-3.6,0.2c0-1.6,0-2.9,0-4.8c-0.8,0.9-1.1,1.3-1.5,1.8c-3.2,4.1-8.3,4-11.6,2.8
		c-2.5-1-3.9-3-4.4-5.6c-0.3-1.4-0.3-2.9-0.3-4.3c-0.1-4.3-0.1-8.5-0.1-12.8C289.8,21.4,289.8,20.2,289.8,18.8z"/>
	<path class="st0" d="M212,40.8c-0.6,0.7-1,1.5-1.7,2.1c-5.1,4.9-14.8,4.3-19.3-1.2c-4.7-5.8-4.2-15.3,1-20.3
		c3.7-3.5,9.6-4.5,14.2-2.3c3.7,1.7,5.9,5.2,5.8,9.8c-6.6,0-13.2,0-19.7,0c-1.5,4.3,0,9.6,3.3,12.4C199.6,44.5,205.1,44.2,212,40.8z
		 M208.3,27.1c0-5.2-3.7-6.9-6.9-7.2c-4.2-0.3-7.9,2.6-8.8,7.2C197.8,27.1,202.9,27.1,208.3,27.1z"/>
	<path class="st0" d="M340.7,58.3c-1.4,0-2.5,0-3.9,0c2.6-4.9,5.1-9.5,7.6-14.2c-3.7-8.4-7.4-16.7-11.3-25.3c1.4,0,2.5,0,3.8,0
		c3,6.9,5.9,13.7,9.1,21.2c3.6-7.2,6.3-14.3,9.6-21.1c0.9,0,1.7,0,3,0C352.6,32.1,346.7,45.1,340.7,58.3z"/>
	<path class="st0" d="M254.4,45.5c-1,0-2,0-3.2,0c0-13.9,0-27.8,0-41.8c1.1,0,2.1-0.1,3.2-0.1C254.4,17.5,254.4,31.4,254.4,45.5z"/>
	<path class="st0" d="M117.4,3.5c1.1,0,2,0.1,3,0.1c0,13.9,0,27.7,0,41.7c-1,0.1-1.9,0.2-2.6,0.3C116.9,44.7,116.6,9.5,117.4,3.5z"
		/>
	<path class="st0" d="M329,18.5c0.6,1.5,1.2,2.7,1.6,3.9c-2.3,0.1-4.5,0-6.5,0.4c-3.4,0.7-4.8,2.8-4.9,6.2c0,4.4,0,8.7,0,13.1
		c0,1-0.1,2-0.2,3.2c-1,0.1-1.9,0.1-3,0.2c0-9,0-17.8,0-26.8c0.9,0,1.9,0,3.2,0c0,1.7,0,3.3,0,4.9C321.8,20.8,324.5,18.4,329,18.5z"
		/>
	<path class="st0" d="M100.5,18.7c1.1,0,1.9,0,3.1,0c0,1.7,0,3.4,0,5.4c1.6-1.6,2.8-3,4.2-4.1c1.5-1.2,3.3-1.7,5.4-1.4
		c0,1.1,0,2.2,0,3.6c-1,0-1.9,0-2.8,0c-4.2,0.2-6.7,2.8-6.7,6.9c0,4.4,0,8.7,0,13.1c0,1,0,2,0,3.2c-1.2,0-2.1,0-3.2,0
		C100.5,36.6,100.5,27.8,100.5,18.7z"/>
	<path class="st0" d="M243.9,45.4c-1,0-1.9,0-2.8,0c-0.6-2.2-0.8-22.8-0.2-26.6c0.9,0,1.9,0,3,0C243.9,27.7,243.9,36.5,243.9,45.4z"
		/>
	<path class="st0" d="M244.3,12.4c-0.7,1.1-1.2,2-1.9,3.2c-0.7-1.2-1.3-2.1-1.9-3.2c0.6-1.1,1.2-2.1,1.9-3.5
		C243.1,10.3,243.7,11.3,244.3,12.4z"/>
</g>
</svg>
