<?xml version="1.0" encoding="utf-8"?>
<!-- Generator: Adobe Illustrator 19.1.0, SVG Export Plug-In . SVG Version: 6.00 Build 0)  -->
<svg version="1.1" id="Layer_1" xmlns="http://www.w3.org/2000/svg" xmlns:xlink="http://www.w3.org/1999/xlink" x="0px" y="0px"
	 viewBox="0 0 96 77" style="enable-background:new 0 0 96 77;" xml:space="preserve">
<style type="text/css">
	.st0{fill:#FFFFFF;stroke:#222222;stroke-linecap:round;stroke-linejoin:round;stroke-miterlimit:10;}
</style>
<g>
	<line id="XMLID_752_" class="st0" x1="0.8" y1="61.4" x2="95.2" y2="61.4"/>
	<ellipse id="XMLID_29_" class="st0" cx="34.5" cy="60.6" rx="12.5" ry="4.5"/>
	<ellipse id="XMLID_662_" class="st0" cx="34.5" cy="54.6" rx="12.5" ry="4.5"/>
	<ellipse id="XMLID_663_" class="st0" cx="34.5" cy="48.6" rx="12.5" ry="4.5"/>
	<ellipse id="XMLID_664_" class="st0" cx="34.5" cy="42.6" rx="12.5" ry="4.5"/>
	<ellipse id="XMLID_665_" class="st0" cx="34.5" cy="37.4" rx="12.5" ry="4.5"/>
	<ellipse id="XMLID_666_" class="st0" cx="34.5" cy="30.6" rx="12.5" ry="4.5"/>
	<ellipse id="XMLID_759_" class="st0" cx="72.7" cy="56.9" rx="12.5" ry="4.5"/>
	<ellipse id="XMLID_757_" class="st0" cx="72.7" cy="50.9" rx="12.5" ry="4.5"/>
	<ellipse id="XMLID_756_" class="st0" cx="72.7" cy="44.9" rx="12.5" ry="4.5"/>
	<ellipse id="XMLID_743_" class="st0" cx="53.6" cy="71.1" rx="12.5" ry="4.5"/>
	<ellipse id="XMLID_672_" class="st0" cx="53.6" cy="65.1" rx="12.5" ry="4.5"/>
	<ellipse id="XMLID_671_" class="st0" cx="53.6" cy="59.1" rx="12.5" ry="4.5"/>
	<ellipse id="XMLID_670_" class="st0" cx="53.6" cy="53.1" rx="12.5" ry="4.5"/>
	<ellipse id="XMLID_668_" class="st0" cx="53.6" cy="47.9" rx="12.5" ry="4.5"/>
	<ellipse id="XMLID_667_" class="st0" cx="53.6" cy="41.1" rx="12.5" ry="4.5"/>
	<ellipse id="XMLID_751_" class="st0" cx="53.6" cy="35.9" rx="12.5" ry="4.5"/>
	<ellipse id="XMLID_750_" class="st0" cx="53.6" cy="29.9" rx="12.5" ry="4.5"/>
	<ellipse id="XMLID_749_" class="st0" cx="53.6" cy="23.9" rx="12.5" ry="4.5"/>
	<ellipse id="XMLID_748_" class="st0" cx="53.6" cy="17.9" rx="12.5" ry="4.5"/>
	<ellipse id="XMLID_747_" class="st0" cx="53.6" cy="12.6" rx="12.5" ry="4.5"/>
	<ellipse id="XMLID_744_" class="st0" cx="53.6" cy="5.9" rx="12.5" ry="4.5"/>
</g>
</svg>
