<?xml version="1.0" encoding="utf-8"?>
<!-- Generator: Adobe Illustrator 19.1.0, SVG Export Plug-In . SVG Version: 6.00 Build 0)  -->
<svg version="1.1" id="Layer_1" xmlns="http://www.w3.org/2000/svg" xmlns:xlink="http://www.w3.org/1999/xlink" x="0px" y="0px"
	 viewBox="-397 401 55.2 63.4" style="enable-background:new -397 401 55.2 63.4;" xml:space="preserve">
<style type="text/css">
	.st0{fill:none;stroke:#000000;stroke-linecap:round;stroke-linejoin:round;stroke-miterlimit:10;}
	.st1{fill:#FFFFFF;stroke:#000000;stroke-linecap:round;stroke-linejoin:round;stroke-miterlimit:10;}
</style>
<polygon id="XMLID_813_" class="st0" points="-394.4,447.2 -394.3,418.3 -369.4,404 -344.5,418.5 -344.5,447.3 -369.5,461.7 "/>
<polygon id="XMLID_793_" class="st0" points="-394.4,447.2 -394.4,418.4 -369.4,404 -344.5,418.5 -344.6,447.4 -369.5,461.7 "/>
<polygon id="XMLID_792_" class="st0" points="-394.4,418.4 -344.5,418.5 -369.5,461.7 "/>
<line id="XMLID_785_" class="st0" x1="-369.4" y1="404" x2="-369.3" y2="461.7"/>
<polyline id="XMLID_784_" class="st0" points="-394.1,447.8 -369.3,418.5 -344.2,447.8 "/>
<circle id="XMLID_763_" class="st1" cx="-369.2" cy="404" r="2.2"/>
<circle id="XMLID_764_" class="st1" cx="-369.2" cy="418.5" r="2.2"/>
<circle id="XMLID_765_" class="st1" cx="-369.2" cy="461.4" r="2.2"/>
<circle id="XMLID_766_" class="st1" cx="-344.9" cy="447.4" r="2.2"/>
<circle id="XMLID_767_" class="st1" cx="-344.9" cy="418.9" r="2.2"/>
<circle id="XMLID_768_" class="st1" cx="-394" cy="419" r="2.2"/>
<circle id="XMLID_769_" class="st1" cx="-394" cy="447.8" r="2.2"/>
</svg>
