<?xml version="1.0" encoding="utf-8"?>
<!-- Generator: Adobe Illustrator 19.1.0, SVG Export Plug-In . SVG Version: 6.00 Build 0)  -->
<svg version="1.1" id="Layer_1" xmlns="http://www.w3.org/2000/svg" xmlns:xlink="http://www.w3.org/1999/xlink" x="0px" y="0px"
	 viewBox="0 0 77 82" style="enable-background:new 0 0 77 82;" xml:space="preserve">
<style type="text/css">
	.st0{fill:none;stroke:#222222;stroke-miterlimit:10;}
	.st1{fill:none;stroke:#222222;stroke-width:0.75;stroke-linecap:round;stroke-linejoin:round;stroke-miterlimit:10;}
</style>
<g>
	<line id="XMLID_524_" class="st0" x1="0.1" y1="54.2" x2="21.4" y2="54.2"/>
	<line id="XMLID_525_" class="st0" x1="55.6" y1="54.2" x2="76.9" y2="54.2"/>
	<g id="XMLID_522_">
		<line id="XMLID_503_" class="st1" x1="11.2" y1="59.6" x2="65.4" y2="59.6"/>
		<rect id="XMLID_502_" x="21.3" y="24.1" class="st1" width="33.9" height="35.5"/>
		<line id="XMLID_505_" class="st1" x1="25.2" y1="29.2" x2="30.4" y2="29.2"/>
		<line id="XMLID_504_" class="st1" x1="25.2" y1="34.2" x2="30.4" y2="34.2"/>
		<line id="XMLID_507_" class="st1" x1="25.2" y1="39.2" x2="30.4" y2="39.2"/>
		<line id="XMLID_510_" class="st1" x1="25.2" y1="44.2" x2="30.4" y2="44.2"/>
		<line id="XMLID_521_" class="st1" x1="35.7" y1="29.2" x2="40.9" y2="29.2"/>
		<line id="XMLID_520_" class="st1" x1="35.7" y1="34.2" x2="40.9" y2="34.2"/>
		<line id="XMLID_519_" class="st1" x1="35.7" y1="39.2" x2="40.9" y2="39.2"/>
		<line id="XMLID_518_" class="st1" x1="35.7" y1="44.1" x2="40.9" y2="44.1"/>
		<line id="XMLID_509_" class="st1" x1="25.2" y1="49.2" x2="30.4" y2="49.2"/>
		<line id="XMLID_508_" class="st1" x1="25.2" y1="54.1" x2="30.4" y2="54.1"/>
		<line id="XMLID_516_" class="st1" x1="45.5" y1="29.2" x2="50.7" y2="29.2"/>
		<line id="XMLID_515_" class="st1" x1="45.5" y1="34.2" x2="50.7" y2="34.2"/>
		<line id="XMLID_514_" class="st1" x1="45.5" y1="39.2" x2="50.7" y2="39.2"/>
		<line id="XMLID_513_" class="st1" x1="45.5" y1="44.2" x2="50.7" y2="44.2"/>
		<line id="XMLID_512_" class="st1" x1="45.5" y1="49.2" x2="50.7" y2="49.2"/>
		<line id="XMLID_511_" class="st1" x1="45.5" y1="54.1" x2="50.7" y2="54.1"/>
		<rect id="XMLID_506_" x="34.3" y="48.8" class="st1" width="8" height="10.8"/>
	</g>
	<line id="XMLID_523_" class="st1" x1="9.7" y1="54.4" x2="9.7" y2="45.9"/>
	<path id="XMLID_531_" class="st0" d="M14.8,36.8c0.6-1.8-0.4-3.7-2.1-4.3c-1.2-0.4-2.4-0.1-3.3,0.6c-0.3-0.3-0.7-0.5-1.1-0.6
		c-1.8-0.6-3.7,0.3-4.4,2.1c-0.3,0.9-0.2,1.8,0.1,2.6c-0.6,0.4-1,1-1.3,1.7c-0.6,1.8,0.3,3.7,2.1,4.4c0.4,0.1,0.8,0.2,1.1,0.2
		c0.2,0.8,0.8,1.5,1.7,1.8c0.6,0.2,1.1,0.2,1.7,0c0.3,0.4,0.7,0.6,1.1,0.8c1.4,0.5,2.9-0.2,3.4-1.6c0.2-0.4,0.2-0.9,0.1-1.3
		c1.1-0.3,2.1-1.1,2.5-2.2C17,39.4,16.2,37.6,14.8,36.8z"/>
	<path id="XMLID_526_" class="st0" d="M34.4,60c0,0,5.8,3.8,1.5,7s-13.7,4.5-13.7,10.8"/>
	<path id="XMLID_517_" class="st0" d="M41.9,59.5c0,0,8.5,3.5,8,8.5s-9,10-9,10s-2.8,2-1,3.8"/>
	<path id="XMLID_549_" class="st0" d="M53.8,10.5c-6.7,0-12.2,5.4-12.2,12.2c0,0.5,0,0.9,0.1,1.4h14v10.7c5.8-0.9,10.3-5.9,10.3-12
		C65.9,15.9,60.5,10.5,53.8,10.5z"/>
	<line id="XMLID_528_" class="st0" x1="38.6" y1="20.7" x2="31.1" y2="20.7"/>
	<line id="XMLID_529_" class="st0" x1="39.8" y1="16.6" x2="36.9" y2="15.5"/>
	<line id="XMLID_530_" class="st0" x1="42.1" y1="12.2" x2="36.4" y2="6.7"/>
	<line id="XMLID_533_" class="st0" x1="50.6" y1="8.1" x2="49.2" y2="0.3"/>
	<line id="XMLID_532_" class="st0" x1="46" y1="9.5" x2="44.6" y2="6.8"/>
	<line id="XMLID_537_" class="st0" x1="68.8" y1="21" x2="76.3" y2="21"/>
	<line id="XMLID_536_" class="st0" x1="67.6" y1="17" x2="70.5" y2="15.9"/>
	<line id="XMLID_535_" class="st0" x1="65.3" y1="12.5" x2="71" y2="7"/>
	<line id="XMLID_534_" class="st0" x1="56.8" y1="8.5" x2="58.2" y2="0.6"/>
	<line id="XMLID_527_" class="st0" x1="61.4" y1="9.8" x2="62.8" y2="7.2"/>
	<line id="XMLID_539_" class="st0" x1="53.8" y1="7.6" x2="54.1" y2="4.6"/>
	<line id="XMLID_543_" class="st0" x1="68.4" y1="28.3" x2="75.5" y2="30.7"/>
	<line id="XMLID_542_" class="st0" x1="66.5" y1="32.2" x2="69" y2="34.2"/>
	<line id="XMLID_541_" class="st0" x1="63.1" y1="35.1" x2="68.3" y2="41.2"/>
	<line id="XMLID_538_" class="st0" x1="59.5" y1="37.5" x2="60.6" y2="40.3"/>
	<line id="XMLID_540_" class="st0" x1="69.2" y1="24.7" x2="72.3" y2="24.9"/>
</g>
</svg>
