<?xml version="1.0" encoding="utf-8"?>
<!-- Generator: Adobe Illustrator 19.1.0, SVG Export Plug-In . SVG Version: 6.00 Build 0)  -->
<svg version="1.1" id="Layer_1" xmlns="http://www.w3.org/2000/svg" xmlns:xlink="http://www.w3.org/1999/xlink" x="0px" y="0px"
	 viewBox="0 0 105 64" style="enable-background:new 0 0 105 64;" xml:space="preserve">
<style type="text/css">
	.st0{fill:none;stroke:#222222;stroke-linecap:round;stroke-linejoin:round;stroke-miterlimit:10;}
	.st1{fill:#F4F4F4;stroke:#222222;stroke-linecap:round;stroke-linejoin:round;stroke-miterlimit:10;}
	.st2{fill:#222222;}
	.st3{fill:#F4F4F4;}
</style>
<g>
	<line id="XMLID_560_" class="st0" x1="16.6" y1="30" x2="16.6" y2="53.2"/>
	<line id="XMLID_561_" class="st0" x1="24.5" y1="30" x2="24.5" y2="53.2"/>
	<line id="XMLID_562_" class="st0" x1="32.1" y1="30" x2="32.1" y2="53.2"/>
	<path id="XMLID_563_" class="st0" d="M7.9,21.8V8.5c0-4.3,3.5-7.8,7.8-7.8h0c7.8-0.2,7.8,6.9,7.8,8.3v2.3v0c0-4.2,3.4-7.7,7.7-7.7
		h0c3.7,0,6.7,3,6.7,6.7v0.2c0.3,2.9,4.3,1.9,4.3,1.9v44.1c0,3.4-2.8,6.2-6.2,6.2H14.2c-3.4,0-6.2-2.8-6.2-6.2V21.8h25.2"/>
	<line id="XMLID_559_" class="st0" x1="36.2" y1="21.8" x2="38.6" y2="21.8"/>
	<path id="XMLID_558_" class="st0" d="M45.1,51.5h-1.3c-0.8,0-1.5-0.7-1.5-1.5V34.6c0-0.8,0.7-1.5,1.5-1.5h1.3
		c0.8,0,1.5,0.7,1.5,1.5V50C46.6,50.8,45.9,51.5,45.1,51.5z"/>
	<line id="XMLID_565_" class="st0" x1="7.9" y1="17.5" x2="42" y2="17.5"/>
	<line id="XMLID_566_" class="st0" x1="0.8" y1="63.3" x2="104.2" y2="63.3"/>
	<path id="XMLID_584_" class="st1" d="M99.1,35.2c-2.4-9.8-11.4-17-21.8-16.9h0C67,18.5,58.4,25.7,56,35.2H99.1z"/>
	<path id="XMLID_585_" class="st1" d="M57.6,57c2.4,3.6,6.4,5.9,11,5.8l18.5-0.2c4.4-0.1,8.2-2.3,10.5-5.6H57.6z"/>
	<path id="XMLID_556_" class="st1" d="M98,53.3H57.6c-1.1,0-2-0.9-2-2v-1.7c0-1.1,0.9-2,2-2H98c1.1,0,2,0.9,2,2v1.7
		C100,52.4,99.1,53.3,98,53.3z"/>
	<polyline id="XMLID_557_" class="st1" points="77.7,48.3 85.4,52.7 89.2,48.3 	"/>
	<g id="XMLID_564_">
		<circle id="XMLID_568_" class="st2" cx="64.1" cy="31.3" r="1.2"/>
		<circle id="XMLID_569_" class="st2" cx="70.8" cy="31.3" r="1.2"/>
		<circle id="XMLID_570_" class="st2" cx="77.5" cy="31.3" r="1.2"/>
		<circle id="XMLID_571_" class="st2" cx="83.8" cy="31.3" r="1.2"/>
		<circle id="XMLID_572_" class="st2" cx="90.6" cy="31.3" r="1.2"/>
		<circle id="XMLID_577_" class="st2" cx="67.8" cy="27.1" r="1.2"/>
		<circle id="XMLID_576_" class="st2" cx="74.4" cy="27.1" r="1.2"/>
		<circle id="XMLID_575_" class="st2" cx="81.1" cy="27.1" r="1.2"/>
		<circle id="XMLID_574_" class="st2" cx="87.5" cy="27.1" r="1.2"/>
		<circle id="XMLID_579_" class="st2" cx="71.6" cy="23.4" r="1.2"/>
		<circle id="XMLID_578_" class="st2" cx="78.3" cy="23.4" r="1.2"/>
		<circle id="XMLID_573_" class="st2" cx="84.6" cy="23.4" r="1.2"/>
	</g>
	<line id="XMLID_580_" class="st1" x1="56.4" y1="44.9" x2="98.9" y2="44.9"/>
	<g id="XMLID_581_">
		<path class="st3" d="M55.6,39.3c1.8,0,1.8,2,3.6,2c1.8,0,1.8-2,3.6-2c1.8,0,1.8,2,3.6,2c1.8,0,1.8-2,3.6-2c1.8,0,1.8,2,3.6,2
			c1.8,0,1.8-2,3.6-2c1.8,0,1.8,2,3.6,2c1.8,0,1.8-2,3.6-2c1.8,0,1.8,2,3.6,2c1.8,0,1.8-2,3.6-2c1.8,0,1.8,2,3.6,2s1.8-2,3.6-2"/>
		<path class="st0" d="M55.6,39.3c1.8,0,1.8,2,3.6,2c1.8,0,1.8-2,3.6-2c1.8,0,1.8,2,3.6,2c1.8,0,1.8-2,3.6-2c1.8,0,1.8,2,3.6,2
			c1.8,0,1.8-2,3.6-2c1.8,0,1.8,2,3.6,2c1.8,0,1.8-2,3.6-2c1.8,0,1.8,2,3.6,2c1.8,0,1.8-2,3.6-2c1.8,0,1.8,2,3.6,2s1.8-2,3.6-2"/>
	</g>
</g>
</svg>
