<?xml version="1.0" encoding="utf-8"?>
<!-- Generator: Adobe Illustrator 19.1.0, SVG Export Plug-In . SVG Version: 6.00 Build 0)  -->
<svg version="1.1" id="Layer_1" xmlns="http://www.w3.org/2000/svg" xmlns:xlink="http://www.w3.org/1999/xlink" x="0px" y="0px"
	 viewBox="0 0 74 44" style="enable-background:new 0 0 74 44;" xml:space="preserve">
<style type="text/css">
	.st0{fill:#FFFFFF;stroke:#222222;stroke-linecap:round;stroke-miterlimit:10;}
	.st1{fill:#FFFFFF;stroke:#222222;stroke-miterlimit:10;}
	.st2{fill:none;stroke:#222222;stroke-linecap:round;stroke-miterlimit:10;}
</style>
<g>
	<path class="st0" d="M39.6,43.3h1.2c1.8,0,3.4-1.5,3.4-3.4V4.1c0-1.8-1.5-3.4-3.4-3.4h-1.2"/>
</g>
<g>
	<path class="st0" d="M5.3,0.7H4.1c-1.8,0-3.4,1.5-3.4,3.4v35.9c0,1.8,1.5,3.4,3.4,3.4h1.2"/>
</g>
<circle id="XMLID_145_" class="st1" cx="14.9" cy="11.8" r="4"/>
<circle id="XMLID_143_" class="st1" cx="9.8" cy="25" r="4"/>
<circle id="XMLID_132_" class="st1" cx="17.7" cy="34.1" r="4"/>
<circle id="XMLID_157_" class="st1" cx="29.4" cy="11.2" r="4"/>
<circle id="XMLID_156_" class="st1" cx="35.8" cy="22.8" r="4"/>
<circle id="XMLID_155_" class="st1" cx="22.8" cy="22" r="4"/>
<circle id="XMLID_146_" class="st1" cx="29.9" cy="33.7" r="4"/>
<line class="st2" x1="55.8" y1="2" x2="73.2" y2="2"/>
<line class="st2" x1="55.8" y1="5.2" x2="62.2" y2="5.2"/>
<line class="st2" x1="47.6" y1="2" x2="51.5" y2="2"/>
<line class="st2" x1="55.8" y1="8.4" x2="66.1" y2="8.4"/>
<line class="st2" x1="55.8" y1="11.8" x2="73.2" y2="11.8"/>
<line class="st2" x1="55.8" y1="15" x2="62.2" y2="15"/>
<line class="st2" x1="55.8" y1="18.1" x2="66.1" y2="18.1"/>
</svg>
